<?xml version="1.0" standalone="no"?>
<!DOCTYPE svg PUBLIC "-//W3C//DTD SVG 1.1//EN" "http://www.w3.org/Graphics/SVG/1.1/DTD/svg11.dtd">
<svg version="1.1" xmlns="http://www.w3.org/2000/svg" viewBox="0 0 627.8266223242244 133.79947559481366" width="627.8266223242244" height="133.79947559481366"><!-- svg-source:excalidraw --><metadata></metadata><defs><style class="style-fonts">
      </style></defs><g stroke-linecap="round" transform="translate(385.97817589920214 10.000000047916615) rotate(0 104.25 22.5)"><path d="M2.99 2.6 C2.99 2.6, 2.99 2.6, 2.99 2.6 M2.99 2.6 C2.99 2.6, 2.99 2.6, 2.99 2.6 M0.5 17.66 C6.35 10.93, 12.21 4.2, 15.59 0.3 M0.5 17.66 C3.58 14.13, 6.65 10.59, 15.59 0.3 M0.64 29.7 C6.42 23.05, 12.2 16.4, 26.22 0.27 M0.64 29.7 C9.21 19.85, 17.78 9.99, 26.22 0.27 M2.08 40.24 C15.48 24.82, 28.88 9.4, 36.85 0.24 M2.08 40.24 C13.9 26.64, 25.71 13.05, 36.85 0.24 M8.78 44.73 C22.55 28.89, 36.32 13.04, 47.48 0.2 M8.78 44.73 C16.55 35.78, 24.33 26.83, 47.48 0.2 M18.75 45.45 C31.32 30.99, 43.9 16.52, 58.11 0.17 M18.75 45.45 C31.89 30.33, 45.03 15.21, 58.11 0.17 M29.38 45.41 C41.21 31.8, 53.05 18.19, 68.74 0.13 M29.38 45.41 C38.7 34.69, 48.02 23.97, 68.74 0.13 M40.01 45.38 C52.45 31.07, 64.89 16.76, 79.37 0.1 M40.01 45.38 C53.42 29.95, 66.84 14.52, 79.37 0.1 M50.64 45.35 C63.4 30.66, 76.16 15.98, 90 0.06 M50.64 45.35 C60.87 33.58, 71.1 21.81, 90 0.06 M61.27 45.31 C76.08 28.27, 90.89 11.23, 100.63 0.03 M61.27 45.31 C70.75 34.41, 80.22 23.51, 100.63 0.03 M71.9 45.28 C86.28 28.74, 100.66 12.2, 111.26 -0.01 M71.9 45.28 C80.28 35.64, 88.66 26, 111.26 -0.01 M81.87 46 C96.94 28.66, 112.01 11.33, 121.89 -0.04 M81.87 46 C91.43 35.01, 100.98 24.02, 121.89 -0.04 M92.5 45.96 C101.85 35.21, 111.2 24.46, 131.87 0.68 M92.5 45.96 C106.81 29.51, 121.11 13.05, 131.87 0.68 M103.13 45.93 C113.68 33.8, 124.22 21.67, 142.5 0.65 M103.13 45.93 C113.56 33.93, 123.99 21.94, 142.5 0.65 M113.76 45.89 C122.8 35.5, 131.83 25.12, 153.13 0.61 M113.76 45.89 C125.73 32.13, 137.7 18.36, 153.13 0.61 M124.39 45.86 C135.27 33.34, 146.15 20.83, 163.76 0.58 M124.39 45.86 C139.13 28.91, 153.86 11.96, 163.76 0.58 M135.02 45.82 C147.03 32.02, 159.03 18.21, 174.39 0.54 M135.02 45.82 C148.89 29.87, 162.76 13.92, 174.39 0.54 M145.65 45.79 C157.6 32.05, 169.54 18.32, 185.02 0.51 M145.65 45.79 C159.31 30.08, 172.98 14.36, 185.02 0.51 M156.28 45.76 C168.19 32.06, 180.1 18.36, 195.65 0.47 M156.28 45.76 C170.09 29.87, 183.89 13.99, 195.65 0.47 M166.91 45.72 C179.07 31.74, 191.22 17.76, 204.31 2.7 M166.91 45.72 C177.69 33.33, 188.46 20.93, 204.31 2.7 M177.54 45.69 C188.12 33.52, 198.7 21.35, 209.04 9.46 M177.54 45.69 C185.95 36.01, 194.36 26.34, 209.04 9.46 M188.17 45.65 C196.15 36.47, 204.13 27.3, 208.51 22.26 M188.17 45.65 C192.81 40.32, 197.44 35, 208.51 22.26 M199.46 44.86 C203.08 40.7, 206.69 36.54, 208.65 34.3 M199.46 44.86 C203.08 40.7, 206.69 36.54, 208.65 34.3" stroke="#fff0f6" stroke-width="1" fill="none"></path><path d="M11.25 0 C58.66 0, 106.08 0, 197.25 0 M11.25 0 C65.81 0, 120.37 0, 197.25 0 M197.25 0 C204.75 0, 208.5 3.75, 208.5 11.25 M197.25 0 C204.75 0, 208.5 3.75, 208.5 11.25 M208.5 11.25 C208.5 18.79, 208.5 26.32, 208.5 33.75 M208.5 11.25 C208.5 16.9, 208.5 22.55, 208.5 33.75 M208.5 33.75 C208.5 41.25, 204.75 45, 197.25 45 M208.5 33.75 C208.5 41.25, 204.75 45, 197.25 45 M197.25 45 C154.57 45, 111.89 45, 11.25 45 M197.25 45 C139.64 45, 82.04 45, 11.25 45 M11.25 45 C3.75 45, 0 41.25, 0 33.75 M11.25 45 C3.75 45, 0 41.25, 0 33.75 M0 33.75 C0 26.45, 0 19.15, 0 11.25 M0 33.75 C0 27.65, 0 21.54, 0 11.25 M0 11.25 C0 3.75, 3.75 0, 11.25 0 M0 11.25 C0 3.75, 3.75 0, 11.25 0" stroke="#c2255c" stroke-width="2" fill="none"></path></g><g transform="translate(420.22817589920214 15.000000047916615) rotate(0 70 17.5)"><text x="70" y="26.712" font-family="Nunito, sans-serif, Segoe UI Emoji" font-size="28px" fill="#c2255c" text-anchor="middle" style="white-space: pre;" direction="ltr" dominant-baseline="alphabetic">食べている</text></g><g stroke-linecap="round"><g transform="translate(10 71.83103892601935) rotate(0 303.9133111621122 5.684341886080802e-14)"><path d="M0 0 C234.82 0, 469.64 0, 607.83 0 M0 0 C190.39 0, 380.79 0, 607.83 0" stroke="#343a40" stroke-width="2" fill="none"></path></g><g transform="translate(10 71.83103892601935) rotate(0 303.9133111621122 5.684341886080802e-14)"><path d="M607.83 0 L594.23 6.34 L594.23 -6.34 L607.83 0" stroke="none" stroke-width="0" fill="#343a40" fill-rule="evenodd"></path><path d="M607.83 0 C602.57 2.45, 597.32 4.9, 594.23 6.34 M607.83 0 C603.57 1.99, 599.31 3.97, 594.23 6.34 M594.23 6.34 C594.23 3.52, 594.23 0.71, 594.23 -6.34 M594.23 6.34 C594.23 2.52, 594.23 -1.29, 594.23 -6.34 M594.23 -6.34 C597.07 -5.02, 599.9 -3.7, 607.83 0 M594.23 -6.34 C597.74 -4.71, 601.24 -3.07, 607.83 0 M607.83 0 C607.83 0, 607.83 0, 607.83 0 M607.83 0 C607.83 0, 607.83 0, 607.83 0" stroke="#343a40" stroke-width="2" fill="none"></path></g></g><mask></mask><g transform="translate(476.2281762991515 88.79947551923738) rotate(0 14 17.5)"><text x="14" y="26.712" font-family="Nunito, sans-serif, Segoe UI Emoji" font-size="28px" fill="#343a40" text-anchor="middle" style="white-space: pre;" direction="ltr" dominant-baseline="alphabetic">今</text></g><g transform="translate(109.74042589376177 88.79947559481366) rotate(0 28 17.5)"><text x="28" y="26.712" font-family="Nunito, sans-serif, Segoe UI Emoji" font-size="28px" fill="#343a40" text-anchor="middle" style="white-space: pre;" direction="ltr" dominant-baseline="alphabetic">昨夜</text></g><g stroke-linecap="round" transform="translate(130.93876306701713 65.03261734636294) rotate(0 6.6596837900256105 6.798421480935019)"><path d="M13.32 6.8 C13.32 7.19, 13.29 7.59, 13.22 7.98 C13.15 8.37, 13.05 8.75, 12.92 9.12 C12.79 9.49, 12.62 9.86, 12.43 10.2 C12.23 10.54, 12.01 10.87, 11.76 11.17 C11.51 11.47, 11.24 11.75, 10.94 12.01 C10.65 12.26, 10.32 12.49, 9.99 12.69 C9.66 12.88, 9.3 13.05, 8.94 13.19 C8.58 13.32, 8.2 13.43, 7.82 13.49 C7.44 13.56, 7.05 13.6, 6.66 13.6 C6.27 13.6, 5.88 13.56, 5.5 13.49 C5.12 13.43, 4.74 13.32, 4.38 13.19 C4.02 13.05, 3.66 12.88, 3.33 12.69 C3 12.49, 2.67 12.26, 2.38 12.01 C2.08 11.75, 1.81 11.47, 1.56 11.17 C1.31 10.87, 1.08 10.54, 0.89 10.2 C0.7 9.86, 0.53 9.49, 0.4 9.12 C0.27 8.75, 0.17 8.37, 0.1 7.98 C0.03 7.59, 0 7.19, 0 6.8 C0 6.4, 0.03 6.01, 0.1 5.62 C0.17 5.23, 0.27 4.84, 0.4 4.47 C0.53 4.1, 0.7 3.74, 0.89 3.4 C1.08 3.06, 1.31 2.73, 1.56 2.43 C1.81 2.13, 2.08 1.84, 2.38 1.59 C2.67 1.34, 3 1.11, 3.33 0.91 C3.66 0.71, 4.02 0.54, 4.38 0.41 C4.74 0.28, 5.12 0.17, 5.5 0.1 C5.88 0.03, 6.27 0, 6.66 0 C7.05 0, 7.44 0.03, 7.82 0.1 C8.2 0.17, 8.58 0.28, 8.94 0.41 C9.3 0.54, 9.66 0.71, 9.99 0.91 C10.32 1.11, 10.65 1.34, 10.94 1.59 C11.24 1.84, 11.51 2.13, 11.76 2.43 C12.01 2.73, 12.23 3.06, 12.43 3.4 C12.62 3.74, 12.79 4.1, 12.92 4.47 C13.05 4.84, 13.15 5.23, 13.22 5.62 C13.29 6.01, 13.3 6.6, 13.32 6.8 C13.34 7, 13.34 6.6, 13.32 6.8" stroke="none" stroke-width="0" fill="#343a40"></path><path d="M13.32 6.8 C13.32 7.19, 13.29 7.59, 13.22 7.98 C13.15 8.37, 13.05 8.75, 12.92 9.12 C12.79 9.49, 12.62 9.86, 12.43 10.2 C12.23 10.54, 12.01 10.87, 11.76 11.17 C11.51 11.47, 11.24 11.75, 10.94 12.01 C10.65 12.26, 10.32 12.49, 9.99 12.69 C9.66 12.88, 9.3 13.05, 8.94 13.19 C8.58 13.32, 8.2 13.43, 7.82 13.49 C7.44 13.56, 7.05 13.6, 6.66 13.6 C6.27 13.6, 5.88 13.56, 5.5 13.49 C5.12 13.43, 4.74 13.32, 4.38 13.19 C4.02 13.05, 3.66 12.88, 3.33 12.69 C3 12.49, 2.67 12.26, 2.38 12.01 C2.08 11.75, 1.81 11.47, 1.56 11.17 C1.31 10.87, 1.08 10.54, 0.89 10.2 C0.7 9.86, 0.53 9.49, 0.4 9.12 C0.27 8.75, 0.17 8.37, 0.1 7.98 C0.03 7.59, 0 7.19, 0 6.8 C0 6.4, 0.03 6.01, 0.1 5.62 C0.17 5.23, 0.27 4.84, 0.4 4.47 C0.53 4.1, 0.7 3.74, 0.89 3.4 C1.08 3.06, 1.31 2.73, 1.56 2.43 C1.81 2.13, 2.08 1.84, 2.38 1.59 C2.67 1.34, 3 1.11, 3.33 0.91 C3.66 0.71, 4.02 0.54, 4.38 0.41 C4.74 0.28, 5.12 0.17, 5.5 0.1 C5.88 0.03, 6.27 0, 6.66 0 C7.05 0, 7.44 0.03, 7.82 0.1 C8.2 0.17, 8.58 0.28, 8.94 0.41 C9.3 0.54, 9.66 0.71, 9.99 0.91 C10.32 1.11, 10.65 1.34, 10.94 1.59 C11.24 1.84, 11.51 2.13, 11.76 2.43 C12.01 2.73, 12.23 3.06, 12.43 3.4 C12.62 3.74, 12.79 4.1, 12.92 4.47 C13.05 4.84, 13.15 5.23, 13.22 5.62 C13.29 6.01, 13.3 6.6, 13.32 6.8 C13.34 7, 13.34 6.6, 13.32 6.8" stroke="#343a40" stroke-width="1" fill="none"></path></g><g stroke-linecap="round" transform="translate(483.5684919370542 65.03261734636294) rotate(0 6.6596837900256105 6.798421480935019)"><path d="M13.32 6.8 C13.32 7.19, 13.29 7.59, 13.22 7.98 C13.15 8.37, 13.05 8.75, 12.92 9.12 C12.79 9.49, 12.62 9.86, 12.43 10.2 C12.23 10.54, 12.01 10.87, 11.76 11.17 C11.51 11.47, 11.24 11.75, 10.94 12.01 C10.65 12.26, 10.32 12.49, 9.99 12.69 C9.66 12.88, 9.3 13.05, 8.94 13.19 C8.58 13.32, 8.2 13.43, 7.82 13.49 C7.44 13.56, 7.05 13.6, 6.66 13.6 C6.27 13.6, 5.88 13.56, 5.5 13.49 C5.12 13.43, 4.74 13.32, 4.38 13.19 C4.02 13.05, 3.66 12.88, 3.33 12.69 C3 12.49, 2.67 12.26, 2.38 12.01 C2.08 11.75, 1.81 11.47, 1.56 11.17 C1.31 10.87, 1.08 10.54, 0.89 10.2 C0.7 9.86, 0.53 9.49, 0.4 9.12 C0.27 8.75, 0.17 8.37, 0.1 7.98 C0.03 7.59, 0 7.19, 0 6.8 C0 6.4, 0.03 6.01, 0.1 5.62 C0.17 5.23, 0.27 4.84, 0.4 4.47 C0.53 4.1, 0.7 3.74, 0.89 3.4 C1.08 3.06, 1.31 2.73, 1.56 2.43 C1.81 2.13, 2.08 1.84, 2.38 1.59 C2.67 1.34, 3 1.11, 3.33 0.91 C3.66 0.71, 4.02 0.54, 4.38 0.41 C4.74 0.28, 5.12 0.17, 5.5 0.1 C5.88 0.03, 6.27 0, 6.66 0 C7.05 0, 7.44 0.03, 7.82 0.1 C8.2 0.17, 8.58 0.28, 8.94 0.41 C9.3 0.54, 9.66 0.71, 9.99 0.91 C10.32 1.11, 10.65 1.34, 10.94 1.59 C11.24 1.84, 11.51 2.13, 11.76 2.43 C12.01 2.73, 12.23 3.06, 12.43 3.4 C12.62 3.74, 12.79 4.1, 12.92 4.47 C13.05 4.84, 13.15 5.23, 13.22 5.62 C13.29 6.01, 13.3 6.6, 13.32 6.8 C13.34 7, 13.34 6.6, 13.32 6.8" stroke="none" stroke-width="0" fill="#343a40"></path><path d="M13.32 6.8 C13.32 7.19, 13.29 7.59, 13.22 7.98 C13.15 8.37, 13.05 8.75, 12.92 9.12 C12.79 9.49, 12.62 9.86, 12.43 10.2 C12.23 10.54, 12.01 10.87, 11.76 11.17 C11.51 11.47, 11.24 11.75, 10.94 12.01 C10.65 12.26, 10.32 12.49, 9.99 12.69 C9.66 12.88, 9.3 13.05, 8.94 13.19 C8.58 13.32, 8.2 13.43, 7.82 13.49 C7.44 13.56, 7.05 13.6, 6.66 13.6 C6.27 13.6, 5.88 13.56, 5.5 13.49 C5.12 13.43, 4.74 13.32, 4.38 13.19 C4.02 13.05, 3.66 12.88, 3.33 12.69 C3 12.49, 2.67 12.26, 2.38 12.01 C2.08 11.75, 1.81 11.47, 1.56 11.17 C1.31 10.87, 1.08 10.54, 0.89 10.2 C0.7 9.86, 0.53 9.49, 0.4 9.12 C0.27 8.75, 0.17 8.37, 0.1 7.98 C0.03 7.59, 0 7.19, 0 6.8 C0 6.4, 0.03 6.01, 0.1 5.62 C0.17 5.23, 0.27 4.84, 0.4 4.47 C0.53 4.1, 0.7 3.74, 0.89 3.4 C1.08 3.06, 1.31 2.73, 1.56 2.43 C1.81 2.13, 2.08 1.84, 2.38 1.59 C2.67 1.34, 3 1.11, 3.33 0.91 C3.66 0.71, 4.02 0.54, 4.38 0.41 C4.74 0.28, 5.12 0.17, 5.5 0.1 C5.88 0.03, 6.27 0, 6.66 0 C7.05 0, 7.44 0.03, 7.82 0.1 C8.2 0.17, 8.58 0.28, 8.94 0.41 C9.3 0.54, 9.66 0.71, 9.99 0.91 C10.32 1.11, 10.65 1.34, 10.94 1.59 C11.24 1.84, 11.51 2.13, 11.76 2.43 C12.01 2.73, 12.23 3.06, 12.43 3.4 C12.62 3.74, 12.79 4.1, 12.92 4.47 C13.05 4.84, 13.15 5.23, 13.22 5.62 C13.29 6.01, 13.3 6.6, 13.32 6.8 C13.34 7, 13.34 6.6, 13.32 6.8" stroke="#343a40" stroke-width="1" fill="none"></path></g><g stroke-linecap="round" transform="translate(33.348447008766925 10) rotate(0 104.25 22.5)"><path d="M2.99 2.6 C2.99 2.6, 2.99 2.6, 2.99 2.6 M2.99 2.6 C2.99 2.6, 2.99 2.6, 2.99 2.6 M0.5 17.66 C3.57 14.14, 6.63 10.61, 15.59 0.3 M0.5 17.66 C5.56 11.84, 10.62 6.02, 15.59 0.3 M0.64 29.7 C8.57 20.58, 16.5 11.46, 26.22 0.27 M0.64 29.7 C8.66 20.47, 16.69 11.23, 26.22 0.27 M2.08 40.24 C13.26 27.37, 24.44 14.51, 36.85 0.24 M2.08 40.24 C9.32 31.91, 16.55 23.59, 36.85 0.24 M8.78 44.73 C18.98 32.99, 29.18 21.25, 47.48 0.2 M8.78 44.73 C20 31.82, 31.22 18.91, 47.48 0.2 M18.75 45.45 C26.79 36.2, 34.84 26.94, 58.11 0.17 M18.75 45.45 C31.11 31.24, 43.46 17.02, 58.11 0.17 M29.38 45.41 C37.41 36.18, 45.44 26.94, 68.74 0.13 M29.38 45.41 C43.84 28.78, 58.3 12.15, 68.74 0.13 M40.01 45.38 C50.45 33.37, 60.88 21.37, 79.37 0.1 M40.01 45.38 C52.62 30.88, 65.23 16.37, 79.37 0.1 M50.64 45.35 C61.76 32.56, 72.87 19.77, 90 0.06 M50.64 45.35 C61.5 32.85, 72.36 20.36, 90 0.06 M61.27 45.31 C76.72 27.53, 92.18 9.75, 100.63 0.03 M61.27 45.31 C69.93 35.35, 78.58 25.39, 100.63 0.03 M71.9 45.28 C84.69 30.57, 97.48 15.85, 111.26 -0.01 M71.9 45.28 C82.56 33.01, 93.23 20.74, 111.26 -0.01 M81.87 46 C95.9 29.86, 109.92 13.73, 121.89 -0.04 M81.87 46 C95.09 30.79, 108.31 15.58, 121.89 -0.04 M92.5 45.96 C101.66 35.43, 110.82 24.89, 131.87 0.68 M92.5 45.96 C105.59 30.91, 118.67 15.86, 131.87 0.68 M103.13 45.93 C117.98 28.85, 132.83 11.76, 142.5 0.65 M103.13 45.93 C114.71 32.61, 126.29 19.29, 142.5 0.65 M113.76 45.89 C128.8 28.6, 143.83 11.3, 153.13 0.61 M113.76 45.89 C128.14 29.35, 142.52 12.81, 153.13 0.61 M124.39 45.86 C139.62 28.35, 154.84 10.83, 163.76 0.58 M124.39 45.86 C135.37 33.24, 146.34 20.61, 163.76 0.58 M135.02 45.82 C143.84 35.69, 152.65 25.55, 174.39 0.54 M135.02 45.82 C150.76 27.72, 166.5 9.61, 174.39 0.54 M145.65 45.79 C160.13 29.14, 174.6 12.5, 185.02 0.51 M145.65 45.79 C160.49 28.72, 175.33 11.65, 185.02 0.51 M156.28 45.76 C167.49 32.87, 178.69 19.98, 195.65 0.47 M156.28 45.76 C171.68 28.05, 187.07 10.34, 195.65 0.47 M166.91 45.72 C181.26 29.22, 195.6 12.72, 204.31 2.7 M166.91 45.72 C174.63 36.85, 182.34 27.98, 204.31 2.7 M177.54 45.69 C189.05 32.45, 200.55 19.22, 209.04 9.46 M177.54 45.69 C184.44 37.75, 191.34 29.82, 209.04 9.46 M188.17 45.65 C195.76 36.92, 203.35 28.19, 208.51 22.26 M188.17 45.65 C194.46 38.42, 200.75 31.19, 208.51 22.26 M199.46 44.86 C202.6 41.25, 205.75 37.63, 208.65 34.3 M199.46 44.86 C202.11 41.81, 204.77 38.76, 208.65 34.3" stroke="#e7f5ff" stroke-width="1" fill="none"></path><path d="M11.25 0 C85.06 0, 158.86 0, 197.25 0 M11.25 0 C51.93 0, 92.62 0, 197.25 0 M197.25 0 C204.75 0, 208.5 3.75, 208.5 11.25 M197.25 0 C204.75 0, 208.5 3.75, 208.5 11.25 M208.5 11.25 C208.5 18.29, 208.5 25.33, 208.5 33.75 M208.5 11.25 C208.5 19.6, 208.5 27.95, 208.5 33.75 M208.5 33.75 C208.5 41.25, 204.75 45, 197.25 45 M208.5 33.75 C208.5 41.25, 204.75 45, 197.25 45 M197.25 45 C127.51 45, 57.77 45, 11.25 45 M197.25 45 C150.8 45, 104.35 45, 11.25 45 M11.25 45 C3.75 45, 0 41.25, 0 33.75 M11.25 45 C3.75 45, 0 41.25, 0 33.75 M0 33.75 C0 24.78, 0 15.81, 0 11.25 M0 33.75 C0 25.83, 0 17.91, 0 11.25 M0 11.25 C0 3.75, 3.75 0, 11.25 0 M0 11.25 C0 3.75, 3.75 0, 11.25 0" stroke="#1971c2" stroke-width="2" fill="none"></path></g><g transform="translate(67.59844700876693 15) rotate(0 70 17.5)"><text x="70" y="26.712" font-family="Nunito, sans-serif, Segoe UI Emoji" font-size="28px" fill="#1971c2" text-anchor="middle" style="white-space: pre;" direction="ltr" dominant-baseline="alphabetic">食べていた</text></g></svg>