<?xml version="1.0" standalone="no"?>
<!DOCTYPE svg PUBLIC "-//W3C//DTD SVG 1.1//EN" "http://www.w3.org/Graphics/SVG/1.1/DTD/svg11.dtd">
<svg version="1.1" xmlns="http://www.w3.org/2000/svg" viewBox="0 0 663.9372705 188.23422721685762" width="663.9372705" height="188.23422721685762"><!-- svg-source:excalidraw --><metadata></metadata><defs><style class="style-fonts">
      </style></defs><g stroke-linecap="round" transform="translate(137.94659324999998 100.94594534185762) rotate(0 61.1640625 19.744140625)"><path d="M122.33 19.74 C122.33 20.68, 122.12 21.63, 121.71 22.55 C121.29 23.48, 120.67 24.41, 119.85 25.31 C119.03 26.21, 118.01 27.09, 116.8 27.95 C115.6 28.8, 114.19 29.63, 112.62 30.42 C111.05 31.21, 109.29 31.97, 107.39 32.67 C105.49 33.38, 103.41 34.05, 101.22 34.67 C99.03 35.28, 96.67 35.85, 94.23 36.35 C91.79 36.86, 89.21 37.31, 86.57 37.7 C83.93 38.09, 81.18 38.42, 78.4 38.69 C75.61 38.95, 72.74 39.15, 69.87 39.29 C67 39.42, 64.07 39.49, 61.16 39.49 C58.26 39.49, 55.33 39.42, 52.46 39.29 C49.59 39.15, 46.72 38.95, 43.93 38.69 C41.15 38.42, 38.39 38.09, 35.76 37.7 C33.12 37.31, 30.54 36.86, 28.1 36.35 C25.66 35.85, 23.3 35.28, 21.11 34.67 C18.92 34.05, 16.84 33.38, 14.94 32.67 C13.04 31.97, 11.28 31.21, 9.71 30.42 C8.14 29.63, 6.73 28.8, 5.53 27.95 C4.32 27.09, 3.3 26.21, 2.48 25.31 C1.66 24.41, 1.04 23.48, 0.62 22.55 C0.21 21.63, 0 20.68, 0 19.74 C0 18.81, 0.21 17.86, 0.62 16.93 C1.04 16.01, 1.66 15.08, 2.48 14.18 C3.3 13.28, 4.32 12.39, 5.53 11.54 C6.73 10.69, 8.14 9.86, 9.71 9.07 C11.28 8.28, 13.04 7.52, 14.94 6.81 C16.84 6.11, 18.92 5.44, 21.11 4.82 C23.3 4.21, 25.66 3.64, 28.1 3.13 C30.54 2.63, 33.12 2.17, 35.76 1.78 C38.39 1.4, 41.15 1.06, 43.93 0.8 C46.72 0.54, 49.59 0.33, 52.46 0.2 C55.33 0.07, 58.26 0, 61.16 0 C64.07 0, 67 0.07, 69.87 0.2 C72.74 0.33, 75.61 0.54, 78.4 0.8 C81.18 1.06, 83.93 1.4, 86.57 1.78 C89.21 2.17, 91.79 2.63, 94.23 3.13 C96.67 3.64, 99.03 4.21, 101.22 4.82 C103.41 5.44, 105.49 6.11, 107.39 6.81 C109.29 7.52, 111.05 8.28, 112.62 9.07 C114.19 9.86, 115.6 10.69, 116.8 11.54 C118.01 12.39, 119.03 13.28, 119.85 14.18 C120.67 15.08, 121.29 16.01, 121.71 16.93 C122.12 17.86, 122.22 19.28, 122.33 19.74 C122.43 20.21, 122.43 19.28, 122.33 19.74" stroke="none" stroke-width="0" fill="#ced4da"></path><path d="M122.33 19.74 C122.33 20.68, 122.12 21.63, 121.71 22.55 C121.29 23.48, 120.67 24.41, 119.85 25.31 C119.03 26.21, 118.01 27.09, 116.8 27.95 C115.6 28.8, 114.19 29.63, 112.62 30.42 C111.05 31.21, 109.29 31.97, 107.39 32.67 C105.49 33.38, 103.41 34.05, 101.22 34.67 C99.03 35.28, 96.67 35.85, 94.23 36.35 C91.79 36.86, 89.21 37.31, 86.57 37.7 C83.93 38.09, 81.18 38.42, 78.4 38.69 C75.61 38.95, 72.74 39.15, 69.87 39.29 C67 39.42, 64.07 39.49, 61.16 39.49 C58.26 39.49, 55.33 39.42, 52.46 39.29 C49.59 39.15, 46.72 38.95, 43.93 38.69 C41.15 38.42, 38.39 38.09, 35.76 37.7 C33.12 37.31, 30.54 36.86, 28.1 36.35 C25.66 35.85, 23.3 35.28, 21.11 34.67 C18.92 34.05, 16.84 33.38, 14.94 32.67 C13.04 31.97, 11.28 31.21, 9.71 30.42 C8.14 29.63, 6.73 28.8, 5.53 27.95 C4.32 27.09, 3.3 26.21, 2.48 25.31 C1.66 24.41, 1.04 23.48, 0.62 22.55 C0.21 21.63, 0 20.68, 0 19.74 C0 18.81, 0.21 17.86, 0.62 16.93 C1.04 16.01, 1.66 15.08, 2.48 14.18 C3.3 13.28, 4.32 12.39, 5.53 11.54 C6.73 10.69, 8.14 9.86, 9.71 9.07 C11.28 8.28, 13.04 7.52, 14.94 6.81 C16.84 6.11, 18.92 5.44, 21.11 4.82 C23.3 4.21, 25.66 3.64, 28.1 3.13 C30.54 2.63, 33.12 2.17, 35.76 1.78 C38.39 1.4, 41.15 1.06, 43.93 0.8 C46.72 0.54, 49.59 0.33, 52.46 0.2 C55.33 0.07, 58.26 0, 61.16 0 C64.07 0, 67 0.07, 69.87 0.2 C72.74 0.33, 75.61 0.54, 78.4 0.8 C81.18 1.06, 83.93 1.4, 86.57 1.78 C89.21 2.17, 91.79 2.63, 94.23 3.13 C96.67 3.64, 99.03 4.21, 101.22 4.82 C103.41 5.44, 105.49 6.11, 107.39 6.81 C109.29 7.52, 111.05 8.28, 112.62 9.07 C114.19 9.86, 115.6 10.69, 116.8 11.54 C118.01 12.39, 119.03 13.28, 119.85 14.18 C120.67 15.08, 121.29 16.01, 121.71 16.93 C122.12 17.86, 122.22 19.28, 122.33 19.74 C122.43 20.21, 122.43 19.28, 122.33 19.74" stroke="#ced4da" stroke-width="1" fill="none"></path></g><g stroke-linecap="round" transform="translate(531.6091455 100.94594534185762) rotate(0 61.1640625 19.744140625)"><path d="M122.33 19.74 C122.33 20.68, 122.12 21.63, 121.71 22.55 C121.29 23.48, 120.67 24.41, 119.85 25.31 C119.03 26.21, 118.01 27.09, 116.8 27.95 C115.6 28.8, 114.19 29.63, 112.62 30.42 C111.05 31.21, 109.29 31.97, 107.39 32.67 C105.49 33.38, 103.41 34.05, 101.22 34.67 C99.03 35.28, 96.67 35.85, 94.23 36.35 C91.79 36.86, 89.21 37.31, 86.57 37.7 C83.93 38.09, 81.18 38.42, 78.4 38.69 C75.61 38.95, 72.74 39.15, 69.87 39.29 C67 39.42, 64.07 39.49, 61.16 39.49 C58.26 39.49, 55.33 39.42, 52.46 39.29 C49.59 39.15, 46.72 38.95, 43.93 38.69 C41.15 38.42, 38.39 38.09, 35.76 37.7 C33.12 37.31, 30.54 36.86, 28.1 36.35 C25.66 35.85, 23.3 35.28, 21.11 34.67 C18.92 34.05, 16.84 33.38, 14.94 32.67 C13.04 31.97, 11.28 31.21, 9.71 30.42 C8.14 29.63, 6.73 28.8, 5.53 27.95 C4.32 27.09, 3.3 26.21, 2.48 25.31 C1.66 24.41, 1.04 23.48, 0.62 22.55 C0.21 21.63, 0 20.68, 0 19.74 C0 18.81, 0.21 17.86, 0.62 16.93 C1.04 16.01, 1.66 15.08, 2.48 14.18 C3.3 13.28, 4.32 12.39, 5.53 11.54 C6.73 10.69, 8.14 9.86, 9.71 9.07 C11.28 8.28, 13.04 7.52, 14.94 6.81 C16.84 6.11, 18.92 5.44, 21.11 4.82 C23.3 4.21, 25.66 3.64, 28.1 3.13 C30.54 2.63, 33.12 2.17, 35.76 1.78 C38.39 1.4, 41.15 1.06, 43.93 0.8 C46.72 0.54, 49.59 0.33, 52.46 0.2 C55.33 0.07, 58.26 0, 61.16 0 C64.07 0, 67 0.07, 69.87 0.2 C72.74 0.33, 75.61 0.54, 78.4 0.8 C81.18 1.06, 83.93 1.4, 86.57 1.78 C89.21 2.17, 91.79 2.63, 94.23 3.13 C96.67 3.64, 99.03 4.21, 101.22 4.82 C103.41 5.44, 105.49 6.11, 107.39 6.81 C109.29 7.52, 111.05 8.28, 112.62 9.07 C114.19 9.86, 115.6 10.69, 116.8 11.54 C118.01 12.39, 119.03 13.28, 119.85 14.18 C120.67 15.08, 121.29 16.01, 121.71 16.93 C122.12 17.86, 122.22 19.28, 122.33 19.74 C122.43 20.21, 122.43 19.28, 122.33 19.74" stroke="none" stroke-width="0" fill="#ced4da"></path><path d="M122.33 19.74 C122.33 20.68, 122.12 21.63, 121.71 22.55 C121.29 23.48, 120.67 24.41, 119.85 25.31 C119.03 26.21, 118.01 27.09, 116.8 27.95 C115.6 28.8, 114.19 29.63, 112.62 30.42 C111.05 31.21, 109.29 31.97, 107.39 32.67 C105.49 33.38, 103.41 34.05, 101.22 34.67 C99.03 35.28, 96.67 35.85, 94.23 36.35 C91.79 36.86, 89.21 37.31, 86.57 37.7 C83.93 38.09, 81.18 38.42, 78.4 38.69 C75.61 38.95, 72.74 39.15, 69.87 39.29 C67 39.42, 64.07 39.49, 61.16 39.49 C58.26 39.49, 55.33 39.42, 52.46 39.29 C49.59 39.15, 46.72 38.95, 43.93 38.69 C41.15 38.42, 38.39 38.09, 35.76 37.7 C33.12 37.31, 30.54 36.86, 28.1 36.35 C25.66 35.85, 23.3 35.28, 21.11 34.67 C18.92 34.05, 16.84 33.38, 14.94 32.67 C13.04 31.97, 11.28 31.21, 9.71 30.42 C8.14 29.63, 6.73 28.8, 5.53 27.95 C4.32 27.09, 3.3 26.21, 2.48 25.31 C1.66 24.41, 1.04 23.48, 0.62 22.55 C0.21 21.63, 0 20.68, 0 19.74 C0 18.81, 0.21 17.86, 0.62 16.93 C1.04 16.01, 1.66 15.08, 2.48 14.18 C3.3 13.28, 4.32 12.39, 5.53 11.54 C6.73 10.69, 8.14 9.86, 9.71 9.07 C11.28 8.28, 13.04 7.52, 14.94 6.81 C16.84 6.11, 18.92 5.44, 21.11 4.82 C23.3 4.21, 25.66 3.64, 28.1 3.13 C30.54 2.63, 33.12 2.17, 35.76 1.78 C38.39 1.4, 41.15 1.06, 43.93 0.8 C46.72 0.54, 49.59 0.33, 52.46 0.2 C55.33 0.07, 58.26 0, 61.16 0 C64.07 0, 67 0.07, 69.87 0.2 C72.74 0.33, 75.61 0.54, 78.4 0.8 C81.18 1.06, 83.93 1.4, 86.57 1.78 C89.21 2.17, 91.79 2.63, 94.23 3.13 C96.67 3.64, 99.03 4.21, 101.22 4.82 C103.41 5.44, 105.49 6.11, 107.39 6.81 C109.29 7.52, 111.05 8.28, 112.62 9.07 C114.19 9.86, 115.6 10.69, 116.8 11.54 C118.01 12.39, 119.03 13.28, 119.85 14.18 C120.67 15.08, 121.29 16.01, 121.71 16.93 C122.12 17.86, 122.22 19.28, 122.33 19.74 C122.43 20.21, 122.43 19.28, 122.33 19.74" stroke="#ced4da" stroke-width="1" fill="none"></path></g><g stroke-linecap="round" transform="translate(10 100.94594546685761) rotate(0 61.1640625 19.744140625)"><path d="M122.33 19.74 C122.33 20.68, 122.12 21.63, 121.71 22.55 C121.29 23.48, 120.67 24.41, 119.85 25.31 C119.03 26.21, 118.01 27.09, 116.8 27.95 C115.6 28.8, 114.19 29.63, 112.62 30.42 C111.05 31.21, 109.29 31.97, 107.39 32.67 C105.49 33.38, 103.41 34.05, 101.22 34.67 C99.03 35.28, 96.67 35.85, 94.23 36.35 C91.79 36.86, 89.21 37.31, 86.57 37.7 C83.93 38.09, 81.18 38.42, 78.4 38.69 C75.61 38.95, 72.74 39.15, 69.87 39.29 C67 39.42, 64.07 39.49, 61.16 39.49 C58.26 39.49, 55.33 39.42, 52.46 39.29 C49.59 39.15, 46.72 38.95, 43.93 38.69 C41.15 38.42, 38.39 38.09, 35.76 37.7 C33.12 37.31, 30.54 36.86, 28.1 36.35 C25.66 35.85, 23.3 35.28, 21.11 34.67 C18.92 34.05, 16.84 33.38, 14.94 32.67 C13.04 31.97, 11.28 31.21, 9.71 30.42 C8.14 29.63, 6.73 28.8, 5.53 27.95 C4.32 27.09, 3.3 26.21, 2.48 25.31 C1.66 24.41, 1.04 23.48, 0.62 22.55 C0.21 21.63, 0 20.68, 0 19.74 C0 18.81, 0.21 17.86, 0.62 16.93 C1.04 16.01, 1.66 15.08, 2.48 14.18 C3.3 13.28, 4.32 12.39, 5.53 11.54 C6.73 10.69, 8.14 9.86, 9.71 9.07 C11.28 8.28, 13.04 7.52, 14.94 6.81 C16.84 6.11, 18.92 5.44, 21.11 4.82 C23.3 4.21, 25.66 3.64, 28.1 3.13 C30.54 2.63, 33.12 2.17, 35.76 1.78 C38.39 1.4, 41.15 1.06, 43.93 0.8 C46.72 0.54, 49.59 0.33, 52.46 0.2 C55.33 0.07, 58.26 0, 61.16 0 C64.07 0, 67 0.07, 69.87 0.2 C72.74 0.33, 75.61 0.54, 78.4 0.8 C81.18 1.06, 83.93 1.4, 86.57 1.78 C89.21 2.17, 91.79 2.63, 94.23 3.13 C96.67 3.64, 99.03 4.21, 101.22 4.82 C103.41 5.44, 105.49 6.11, 107.39 6.81 C109.29 7.52, 111.05 8.28, 112.62 9.07 C114.19 9.86, 115.6 10.69, 116.8 11.54 C118.01 12.39, 119.03 13.28, 119.85 14.18 C120.67 15.08, 121.29 16.01, 121.71 16.93 C122.12 17.86, 122.22 19.28, 122.33 19.74 C122.43 20.21, 122.43 19.28, 122.33 19.74" stroke="none" stroke-width="0" fill="#ced4da"></path><path d="M122.33 19.74 C122.33 20.68, 122.12 21.63, 121.71 22.55 C121.29 23.48, 120.67 24.41, 119.85 25.31 C119.03 26.21, 118.01 27.09, 116.8 27.95 C115.6 28.8, 114.19 29.63, 112.62 30.42 C111.05 31.21, 109.29 31.97, 107.39 32.67 C105.49 33.38, 103.41 34.05, 101.22 34.67 C99.03 35.28, 96.67 35.85, 94.23 36.35 C91.79 36.86, 89.21 37.31, 86.57 37.7 C83.93 38.09, 81.18 38.42, 78.4 38.69 C75.61 38.95, 72.74 39.15, 69.87 39.29 C67 39.42, 64.07 39.49, 61.16 39.49 C58.26 39.49, 55.33 39.42, 52.46 39.29 C49.59 39.15, 46.72 38.95, 43.93 38.69 C41.15 38.42, 38.39 38.09, 35.76 37.7 C33.12 37.31, 30.54 36.86, 28.1 36.35 C25.66 35.85, 23.3 35.28, 21.11 34.67 C18.92 34.05, 16.84 33.38, 14.94 32.67 C13.04 31.97, 11.28 31.21, 9.71 30.42 C8.14 29.63, 6.73 28.8, 5.53 27.95 C4.32 27.09, 3.3 26.21, 2.48 25.31 C1.66 24.41, 1.04 23.48, 0.62 22.55 C0.21 21.63, 0 20.68, 0 19.74 C0 18.81, 0.21 17.86, 0.62 16.93 C1.04 16.01, 1.66 15.08, 2.48 14.18 C3.3 13.28, 4.32 12.39, 5.53 11.54 C6.73 10.69, 8.14 9.86, 9.71 9.07 C11.28 8.28, 13.04 7.52, 14.94 6.81 C16.84 6.11, 18.92 5.44, 21.11 4.82 C23.3 4.21, 25.66 3.64, 28.1 3.13 C30.54 2.63, 33.12 2.17, 35.76 1.78 C38.39 1.4, 41.15 1.06, 43.93 0.8 C46.72 0.54, 49.59 0.33, 52.46 0.2 C55.33 0.07, 58.26 0, 61.16 0 C64.07 0, 67 0.07, 69.87 0.2 C72.74 0.33, 75.61 0.54, 78.4 0.8 C81.18 1.06, 83.93 1.4, 86.57 1.78 C89.21 2.17, 91.79 2.63, 94.23 3.13 C96.67 3.64, 99.03 4.21, 101.22 4.82 C103.41 5.44, 105.49 6.11, 107.39 6.81 C109.29 7.52, 111.05 8.28, 112.62 9.07 C114.19 9.86, 115.6 10.69, 116.8 11.54 C118.01 12.39, 119.03 13.28, 119.85 14.18 C120.67 15.08, 121.29 16.01, 121.71 16.93 C122.12 17.86, 122.22 19.28, 122.33 19.74 C122.43 20.21, 122.43 19.28, 122.33 19.74" stroke="#ced4da" stroke-width="1" fill="none"></path></g><g stroke-linecap="round" transform="translate(57.797593602072425 10.000000237604581) rotate(0 22.68293355221246 22.68293355221246)"><path d="M5.07 8.38 C5.07 8.38, 5.07 8.38, 5.07 8.38 M5.07 8.38 C5.07 8.38, 5.07 8.38, 5.07 8.38 M0.87 19.31 C6.52 12.81, 12.17 6.31, 16.61 1.19 M0.87 19.31 C6.63 12.67, 12.4 6.04, 16.61 1.19 M0.61 25.7 C9.32 15.68, 18.03 5.66, 22.91 0.04 M0.61 25.7 C5.67 19.87, 10.74 14.05, 22.91 0.04 M1.66 30.59 C8.59 22.62, 15.52 14.65, 27.9 0.4 M1.66 30.59 C7.59 23.77, 13.51 16.95, 27.9 0.4 M3.36 34.73 C10.71 26.27, 18.06 17.82, 31.58 2.27 M3.36 34.73 C13.71 22.83, 24.05 10.93, 31.58 2.27 M5.73 38.1 C14.43 28.09, 23.14 18.07, 35.25 4.14 M5.73 38.1 C15.64 26.7, 25.56 15.29, 35.25 4.14 M8.75 40.73 C15.66 32.77, 22.58 24.81, 38.27 6.77 M8.75 40.73 C17.11 31.1, 25.48 21.48, 38.27 6.77 M11.76 43.35 C18.16 36, 24.55 28.64, 41.29 9.39 M11.76 43.35 C17.78 36.43, 23.8 29.5, 41.29 9.39 M16.1 44.47 C26.27 32.76, 36.44 21.06, 43.65 12.77 M16.1 44.47 C24.85 34.39, 33.61 24.32, 43.65 12.77 M20.43 45.58 C28.4 36.42, 36.36 27.25, 44.7 17.66 M20.43 45.58 C26.57 38.51, 32.72 31.45, 44.7 17.66 M26.07 45.19 C33.09 37.11, 40.11 29.03, 45.75 22.55 M26.07 45.19 C30.52 40.07, 34.97 34.95, 45.75 22.55 M33.03 43.28 C35.97 39.9, 38.91 36.51, 44.18 30.45 M33.03 43.28 C35.51 40.43, 37.99 37.57, 44.18 30.45 M7.8 39.8 C7.8 39.8, 7.8 39.8, 7.8 39.8 M7.8 39.8 C7.8 39.8, 7.8 39.8, 7.8 39.8 M19.48 44.65 C12.4 38.49, 5.31 32.33, 1.37 28.91 M19.48 44.65 C12.84 38.88, 6.2 33.11, 1.37 28.91 M25.88 44.91 C20.03 39.83, 14.18 34.74, 0.22 22.61 M25.88 44.91 C16.48 36.75, 7.09 28.58, 0.22 22.61 M30.77 43.86 C24.33 38.27, 17.9 32.67, 0.58 17.62 M30.77 43.86 C23.05 37.15, 15.33 30.44, 0.58 17.62 M34.15 41.5 C25.7 34.15, 17.25 26.81, 2.45 13.95 M34.15 41.5 C21.83 30.79, 9.52 20.09, 2.45 13.95 M37.53 39.14 C25.36 28.56, 13.2 17.99, 4.32 10.27 M37.53 39.14 C25.06 28.3, 12.59 17.46, 4.32 10.27 M40.91 36.78 C31.61 28.69, 22.31 20.61, 6.19 6.6 M40.91 36.78 C31.69 28.77, 22.48 20.76, 6.19 6.6 M42.78 33.1 C35.4 26.69, 28.02 20.28, 9.57 4.23 M42.78 33.1 C31.91 23.65, 21.04 14.21, 9.57 4.23 M44.65 29.43 C35.29 21.29, 25.94 13.16, 12.95 1.87 M44.65 29.43 C37.33 23.06, 30.01 16.7, 12.95 1.87 M45.76 25.09 C37.77 18.15, 29.79 11.21, 17.84 0.82 M45.76 25.09 C39.39 19.56, 33.02 14.02, 17.84 0.82 M45.37 19.45 C39.79 14.61, 34.22 9.76, 22.73 -0.23 M45.37 19.45 C37.79 12.86, 30.21 6.27, 22.73 -0.23 M43.46 12.5 C38.36 8.06, 33.25 3.62, 30.63 1.34 M43.46 12.5 C39.47 9.03, 35.48 5.56, 30.63 1.34" stroke="#1971c2" stroke-width="0.5" fill="none"></path><path d="M45.37 22.68 C45.37 24, 45.25 25.33, 45.02 26.62 C44.79 27.91, 44.45 29.21, 44 30.44 C43.55 31.67, 42.98 32.89, 42.33 34.02 C41.67 35.16, 40.9 36.26, 40.06 37.26 C39.22 38.27, 38.27 39.22, 37.26 40.06 C36.26 40.9, 35.16 41.67, 34.02 42.33 C32.89 42.98, 31.67 43.55, 30.44 44 C29.21 44.45, 27.91 44.79, 26.62 45.02 C25.33 45.25, 24 45.37, 22.68 45.37 C21.37 45.37, 20.04 45.25, 18.74 45.02 C17.45 44.79, 16.16 44.45, 14.92 44 C13.69 43.55, 12.48 42.98, 11.34 42.33 C10.2 41.67, 9.11 40.9, 8.1 40.06 C7.1 39.22, 6.15 38.27, 5.31 37.26 C4.46 36.26, 3.7 35.16, 3.04 34.02 C2.38 32.89, 1.82 31.67, 1.37 30.44 C0.92 29.21, 0.57 27.91, 0.34 26.62 C0.12 25.33, 0 24, 0 22.68 C0 21.37, 0.12 20.04, 0.34 18.74 C0.57 17.45, 0.92 16.16, 1.37 14.92 C1.82 13.69, 2.38 12.48, 3.04 11.34 C3.7 10.2, 4.46 9.11, 5.31 8.1 C6.15 7.1, 7.1 6.15, 8.1 5.31 C9.11 4.46, 10.2 3.7, 11.34 3.04 C12.48 2.38, 13.69 1.82, 14.92 1.37 C16.16 0.92, 17.45 0.57, 18.74 0.34 C20.04 0.12, 21.37 0, 22.68 0 C24 0, 25.33 0.12, 26.62 0.34 C27.91 0.57, 29.21 0.92, 30.44 1.37 C31.67 1.82, 32.89 2.38, 34.02 3.04 C35.16 3.7, 36.26 4.46, 37.26 5.31 C38.27 6.15, 39.22 7.1, 40.06 8.1 C40.9 9.11, 41.67 10.2, 42.33 11.34 C42.98 12.48, 43.55 13.69, 44 14.92 C44.45 16.16, 44.79 17.45, 45.02 18.74 C45.25 20.04, 45.31 22.03, 45.37 22.68 C45.42 23.34, 45.42 22.03, 45.37 22.68" stroke="#1971c2" stroke-width="1" fill="none"></path></g><g stroke-linecap="round"><g transform="translate(50.112991932754824 78.92708294440604) rotate(0 20.31773785166152 10.129753045730808)" fill-rule="evenodd"><path d="M0 0 C0 0, 0 0, 0 0 M0 0 C0 0, 0 0, 0 0 M-12.73 20.74 C-3.67 10.32, 5.38 -0.09, 24.67 -22.28 M-12.73 20.74 C-1.56 7.89, 9.61 -4.96, 24.67 -22.28 M-18.89 33.93 C-4.38 17.23, 10.14 0.53, 30.31 -22.68 M-18.89 33.93 C-7.1 20.36, 4.69 6.8, 30.31 -22.68 M-19.15 40.33 C-2.61 21.29, 13.94 2.25, 33.99 -20.81 M-19.15 40.33 C-3.89 22.76, 11.38 5.2, 33.99 -20.81 M-16.14 42.95 C-0.83 25.34, 14.47 7.74, 37.01 -18.18 M-16.14 42.95 C4.43 19.29, 25 -4.37, 37.01 -18.18 M-12.46 44.82 C0.1 30.37, 12.66 15.92, 39.37 -14.8 M-12.46 44.82 C7.16 22.24, 26.79 -0.33, 39.37 -14.8 M-8.13 45.93 C8.41 26.91, 24.95 7.88, 41.73 -11.42 M-8.13 45.93 C10.72 24.25, 29.57 2.56, 41.73 -11.42 M-3.8 47.05 C13.76 26.85, 31.33 6.64, 43.44 -7.29 M-3.8 47.05 C13.13 27.57, 30.06 8.1, 43.44 -7.29 M1.19 47.41 C17.04 29.17, 32.89 10.94, 45.8 -3.91 M1.19 47.41 C15.97 30.4, 30.75 13.4, 45.8 -3.91 M6.18 47.77 C21.51 30.13, 36.84 12.49, 47.51 0.22 M6.18 47.77 C19.74 32.17, 33.3 16.57, 47.51 0.22 M11.16 48.13 C23.63 33.79, 36.1 19.44, 49.87 3.6 M11.16 48.13 C25.91 31.16, 40.67 14.19, 49.87 3.6 M16.15 48.49 C24.85 38.48, 33.54 28.48, 51.58 7.73 M16.15 48.49 C26.95 36.07, 37.75 23.65, 51.58 7.73 M21.14 48.85 C28.68 40.17, 36.22 31.49, 53.94 11.11 M21.14 48.85 C30.23 38.39, 39.32 27.93, 53.94 11.11 M26.12 49.21 C36.02 37.82, 45.92 26.43, 55.65 15.25 M26.12 49.21 C32.65 41.7, 39.18 34.19, 55.65 15.25 M31.77 48.81 C39.72 39.66, 47.68 30.51, 57.35 19.38 M31.77 48.81 C41.62 37.48, 51.47 26.14, 57.35 19.38 M36.75 49.17 C43.57 41.33, 50.39 33.49, 58.4 24.27 M36.75 49.17 C43.8 41.07, 50.84 32.97, 58.4 24.27 M42.4 48.78 C46.35 44.23, 50.31 39.68, 59.45 29.16 M42.4 48.78 C47.27 43.17, 52.15 37.56, 59.45 29.16 M49.35 46.88 C53.48 42.13, 57.6 37.39, 59.85 34.8 M49.35 46.88 C53.35 42.27, 57.36 37.67, 59.85 34.8 M-17.24 42.69 C-17.24 42.69, -17.24 42.69, -17.24 42.69 M-17.24 42.69 C-17.24 42.69, -17.24 42.69, -17.24 42.69 M-7.82 45.58 C-11.36 42.5, -14.89 39.43, -19.14 35.74 M-7.82 45.58 C-10.86 42.93, -13.9 40.29, -19.14 35.74 M-0.67 46.5 C-4.67 43.01, -8.68 39.53, -18.03 31.41 M-0.67 46.5 C-5.33 42.44, -10 38.38, -18.03 31.41 M6.49 47.41 C-1.72 40.28, -9.93 33.14, -16.91 27.07 M6.49 47.41 C-2.46 39.63, -11.41 31.85, -16.91 27.07 M12.88 47.67 C7.07 42.62, 1.25 37.57, -14.29 24.06 M12.88 47.67 C2.25 38.43, -8.38 29.19, -14.29 24.06 M20.04 48.59 C9.64 39.56, -0.75 30.52, -12.42 20.38 M20.04 48.59 C12.45 42, 4.87 35.4, -12.42 20.38 M25.68 48.2 C16.73 40.42, 7.79 32.65, -10.55 16.71 M25.68 48.2 C11.65 36, -2.38 23.81, -10.55 16.71 M32.08 48.46 C17.4 35.7, 2.72 22.94, -7.92 13.69 M32.08 48.46 C22.13 39.81, 12.18 31.17, -7.92 13.69 M37.72 48.06 C21.61 34.06, 5.5 20.06, -6.05 10.01 M37.72 48.06 C23.89 36.04, 10.05 24.01, -6.05 10.01 M43.36 47.67 C25.71 32.32, 8.06 16.98, -4.18 6.34 M43.36 47.67 C25.8 32.4, 8.23 17.13, -4.18 6.34 M48.25 46.62 C35.8 35.79, 23.35 24.97, -1.56 3.32 M48.25 46.62 C35.67 35.69, 23.1 24.75, -1.56 3.32 M53.14 45.57 C34.74 29.57, 16.33 13.57, 0.31 -0.36 M53.14 45.57 C39.74 33.92, 26.35 22.28, 0.31 -0.36 M56.52 43.21 C45.79 33.88, 35.07 24.56, 2.93 -3.37 M56.52 43.21 C41.14 29.83, 25.75 16.46, 2.93 -3.37 M59.14 40.19 C45.88 28.65, 32.61 17.12, 5.56 -6.39 M59.14 40.19 C44.43 27.4, 29.73 14.61, 5.56 -6.39 M60.26 35.86 C41.78 19.79, 23.31 3.73, 8.94 -8.76 M60.26 35.86 C43.53 21.32, 26.81 6.78, 8.94 -8.76 M59.86 30.21 C42.83 15.4, 25.79 0.6, 11.56 -11.78 M59.86 30.21 C44.36 16.73, 28.85 3.25, 11.56 -11.78 M57.96 23.26 C44.59 11.63, 31.22 0.01, 14.19 -14.79 M57.96 23.26 C45.23 12.2, 32.51 1.13, 14.19 -14.79 M56.05 16.3 C45.21 6.88, 34.37 -2.55, 17.56 -17.16 M56.05 16.3 C40.74 2.99, 25.43 -10.32, 17.56 -17.16 M52.64 8.03 C44.82 1.23, 36.99 -5.57, 20.94 -19.52 M52.64 8.03 C42.54 -0.75, 32.43 -9.53, 20.94 -19.52 M47.72 -1.54 C38.66 -9.42, 29.6 -17.3, 24.32 -21.88 M47.72 -1.54 C42.46 -6.12, 37.19 -10.69, 24.32 -21.88 M42.8 -11.12 C39.51 -13.98, 36.23 -16.83, 28.46 -23.59 M42.8 -11.12 C37.59 -15.65, 32.38 -20.18, 28.46 -23.59" stroke="#1971c2" stroke-width="0.5" fill="none"></path><path d="M0 0 C-2.92 7.07, -27.21 35.38, -17.52 42.45 C-7.82 49.52, 49.75 53.18, 58.15 42.4 C66.55 31.63, 42.57 -15.12, 32.87 -22.19 C23.18 -29.26, 5.48 -3.7, 0 0 M0 0 C-2.92 7.07, -27.21 35.38, -17.52 42.45 C-7.82 49.52, 49.75 53.18, 58.15 42.4 C66.55 31.63, 42.57 -15.12, 32.87 -22.19 C23.18 -29.26, 5.48 -3.7, 0 0" stroke="#1971c2" stroke-width="1" fill="none"></path></g></g><mask></mask><g stroke-linecap="round" transform="translate(186.73637445725717 10.000000237604581) rotate(0 22.682933552212432 22.68293355221246)"><path d="M5.07 8.38 C5.07 8.38, 5.07 8.38, 5.07 8.38 M5.07 8.38 C5.07 8.38, 5.07 8.38, 5.07 8.38 M0.87 19.31 C6.69 12.61, 12.51 5.92, 16.61 1.19 M0.87 19.31 C4.03 15.67, 7.2 12.03, 16.61 1.19 M0.61 25.7 C6.3 19.16, 11.99 12.61, 22.91 0.04 M0.61 25.7 C7.42 17.86, 14.24 10.02, 22.91 0.04 M1.66 30.59 C8.04 23.24, 14.43 15.9, 27.9 0.4 M1.66 30.59 C8.34 22.91, 15.02 15.22, 27.9 0.4 M3.36 34.73 C10.31 26.74, 17.25 18.76, 31.58 2.27 M3.36 34.73 C10.16 26.91, 16.95 19.1, 31.58 2.27 M5.73 38.1 C13.71 28.92, 21.7 19.73, 35.25 4.14 M5.73 38.1 C13.9 28.7, 22.08 19.29, 35.25 4.14 M8.75 40.73 C18.75 29.22, 28.75 17.71, 38.27 6.77 M8.75 40.73 C19.86 27.94, 30.97 15.16, 38.27 6.77 M11.76 43.35 C17.86 36.34, 23.96 29.32, 41.29 9.39 M11.76 43.35 C21.66 31.97, 31.56 20.59, 41.29 9.39 M16.1 44.47 C23.85 35.55, 31.6 26.64, 43.65 12.77 M16.1 44.47 C24.7 34.57, 33.31 24.67, 43.65 12.77 M20.43 45.58 C28.72 36.04, 37.01 26.51, 44.7 17.66 M20.43 45.58 C25.57 39.66, 30.72 33.74, 44.7 17.66 M26.07 45.19 C31.1 39.4, 36.13 33.62, 45.75 22.55 M26.07 45.19 C31.27 39.21, 36.46 33.23, 45.75 22.55 M33.03 43.28 C36.37 39.44, 39.71 35.59, 44.18 30.45 M33.03 43.28 C35.32 40.65, 37.61 38.01, 44.18 30.45 M7.8 39.8 C7.8 39.8, 7.8 39.8, 7.8 39.8 M7.8 39.8 C7.8 39.8, 7.8 39.8, 7.8 39.8 M19.48 44.65 C15.14 40.87, 10.79 37.09, 1.37 28.91 M19.48 44.65 C13.51 39.46, 7.53 34.26, 1.37 28.91 M25.88 44.91 C20.75 40.45, 15.62 35.99, 0.22 22.61 M25.88 44.91 C16.79 37.01, 7.7 29.1, 0.22 22.61 M30.77 43.86 C23.06 37.16, 15.34 30.45, 0.58 17.62 M30.77 43.86 C21.28 35.61, 11.78 27.36, 0.58 17.62 M34.15 41.5 C24.43 33.05, 14.72 24.61, 2.45 13.95 M34.15 41.5 C27.74 35.93, 21.33 30.35, 2.45 13.95 M37.53 39.14 C25.12 28.35, 12.71 17.57, 4.32 10.27 M37.53 39.14 C30.74 33.23, 23.95 27.33, 4.32 10.27 M40.91 36.78 C29.89 27.2, 18.88 17.63, 6.19 6.6 M40.91 36.78 C31.05 28.2, 21.19 19.63, 6.19 6.6 M42.78 33.1 C30.95 22.82, 19.12 12.53, 9.57 4.23 M42.78 33.1 C30.8 22.69, 18.82 12.27, 9.57 4.23 M44.65 29.43 C32.4 18.78, 20.15 8.13, 12.95 1.87 M44.65 29.43 C35.35 21.35, 26.06 13.26, 12.95 1.87 M45.76 25.09 C37.4 17.82, 29.03 10.55, 17.84 0.82 M45.76 25.09 C38.51 18.79, 31.26 12.49, 17.84 0.82 M45.37 19.45 C38.52 13.5, 31.68 7.56, 22.73 -0.23 M45.37 19.45 C37.69 12.78, 30.01 6.1, 22.73 -0.23 M43.46 12.5 C40.46 9.88, 37.45 7.27, 30.63 1.34 M43.46 12.5 C39.7 9.23, 35.94 5.96, 30.63 1.34" stroke="#099268" stroke-width="0.5" fill="none"></path><path d="M45.37 22.68 C45.37 24, 45.25 25.33, 45.02 26.62 C44.79 27.91, 44.45 29.21, 44 30.44 C43.55 31.67, 42.98 32.89, 42.33 34.02 C41.67 35.16, 40.9 36.26, 40.06 37.26 C39.22 38.27, 38.27 39.22, 37.26 40.06 C36.26 40.9, 35.16 41.67, 34.02 42.33 C32.89 42.98, 31.67 43.55, 30.44 44 C29.21 44.45, 27.91 44.79, 26.62 45.02 C25.33 45.25, 24 45.37, 22.68 45.37 C21.37 45.37, 20.04 45.25, 18.74 45.02 C17.45 44.79, 16.16 44.45, 14.92 44 C13.69 43.55, 12.48 42.98, 11.34 42.33 C10.2 41.67, 9.11 40.9, 8.1 40.06 C7.1 39.22, 6.15 38.27, 5.31 37.26 C4.46 36.26, 3.7 35.16, 3.04 34.02 C2.38 32.89, 1.82 31.67, 1.37 30.44 C0.92 29.21, 0.57 27.91, 0.34 26.62 C0.12 25.33, 0 24, 0 22.68 C0 21.37, 0.12 20.04, 0.34 18.74 C0.57 17.45, 0.92 16.16, 1.37 14.92 C1.82 13.69, 2.38 12.48, 3.04 11.34 C3.7 10.2, 4.46 9.11, 5.31 8.1 C6.15 7.1, 7.1 6.15, 8.1 5.31 C9.11 4.46, 10.2 3.7, 11.34 3.04 C12.48 2.38, 13.69 1.82, 14.92 1.37 C16.16 0.92, 17.45 0.57, 18.74 0.34 C20.04 0.12, 21.37 0, 22.68 0 C24 0, 25.33 0.12, 26.62 0.34 C27.91 0.57, 29.21 0.92, 30.44 1.37 C31.67 1.82, 32.89 2.38, 34.02 3.04 C35.16 3.7, 36.26 4.46, 37.26 5.31 C38.27 6.15, 39.22 7.1, 40.06 8.1 C40.9 9.11, 41.67 10.2, 42.33 11.34 C42.98 12.48, 43.55 13.69, 44 14.92 C44.45 16.16, 44.79 17.45, 45.02 18.74 C45.25 20.04, 45.31 22.03, 45.37 22.68 C45.42 23.34, 45.42 22.03, 45.37 22.68" stroke="#099268" stroke-width="1" fill="none"></path></g><g stroke-linecap="round"><g transform="translate(179.0517727879395 78.92708294440604) rotate(0 20.317737851661548 10.129753045730808)" fill-rule="evenodd"><path d="M0 0 C0 0, 0 0, 0 0 M0 0 C0 0, 0 0, 0 0 M-12.73 20.74 C-3.1 9.66, 6.53 -1.42, 24.67 -22.28 M-12.73 20.74 C-0.56 6.74, 11.61 -7.26, 24.67 -22.28 M-18.89 33.93 C-3.41 16.11, 12.08 -1.7, 30.31 -22.68 M-18.89 33.93 C-3.23 15.91, 12.43 -2.11, 30.31 -22.68 M-19.15 40.33 C-6.67 25.96, 5.82 11.6, 33.99 -20.81 M-19.15 40.33 C-4.6 23.59, 9.95 6.85, 33.99 -20.81 M-16.14 42.95 C-1.79 26.45, 12.55 9.95, 37.01 -18.18 M-16.14 42.95 C-0.15 24.56, 15.84 6.17, 37.01 -18.18 M-12.46 44.82 C5.93 23.67, 24.32 2.51, 39.37 -14.8 M-12.46 44.82 C5.18 24.52, 22.82 4.23, 39.37 -14.8 M-8.13 45.93 C3.18 32.92, 14.49 19.91, 41.73 -11.42 M-8.13 45.93 C9.18 26.03, 26.48 6.12, 41.73 -11.42 M-3.8 47.05 C12.47 28.33, 28.74 9.62, 43.44 -7.29 M-3.8 47.05 C8.96 32.37, 21.73 17.68, 43.44 -7.29 M1.19 47.41 C10.35 36.87, 19.5 26.34, 45.8 -3.91 M1.19 47.41 C11.67 35.35, 22.16 23.29, 45.8 -3.91 M6.18 47.77 C17.16 35.13, 28.14 22.5, 47.51 0.22 M6.18 47.77 C19.57 32.36, 32.96 16.96, 47.51 0.22 M11.16 48.13 C21.2 36.59, 31.23 25.05, 49.87 3.6 M11.16 48.13 C25.03 32.18, 38.9 16.23, 49.87 3.6 M16.15 48.49 C27.31 35.65, 38.47 22.82, 51.58 7.73 M16.15 48.49 C26.01 37.15, 35.87 25.8, 51.58 7.73 M21.14 48.85 C30.22 38.39, 39.31 27.94, 53.94 11.11 M21.14 48.85 C31.83 36.55, 42.52 24.25, 53.94 11.11 M26.12 49.21 C32.7 41.64, 39.28 34.08, 55.65 15.25 M26.12 49.21 C32.77 41.56, 39.42 33.92, 55.65 15.25 M31.77 48.81 C41.53 37.58, 51.3 26.35, 57.35 19.38 M31.77 48.81 C41.06 38.13, 50.35 27.44, 57.35 19.38 M36.75 49.17 C42.25 42.85, 47.76 36.52, 58.4 24.27 M36.75 49.17 C44.81 39.91, 52.86 30.64, 58.4 24.27 M42.4 48.78 C48.03 42.3, 53.66 35.82, 59.45 29.16 M42.4 48.78 C47.69 42.7, 52.98 36.61, 59.45 29.16 M49.35 46.88 C51.54 44.36, 53.73 41.85, 59.85 34.8 M49.35 46.88 C51.9 43.95, 54.44 41.02, 59.85 34.8 M-17.24 42.69 C-17.24 42.69, -17.24 42.69, -17.24 42.69 M-17.24 42.69 C-17.24 42.69, -17.24 42.69, -17.24 42.69 M-7.82 45.58 C-10.3 43.42, -12.78 41.26, -19.14 35.74 M-7.82 45.58 C-10.94 42.87, -14.05 40.16, -19.14 35.74 M-0.67 46.5 C-6.91 41.07, -13.15 35.65, -18.03 31.41 M-0.67 46.5 C-7.15 40.86, -13.64 35.22, -18.03 31.41 M6.49 47.41 C-1.81 40.2, -10.11 32.98, -16.91 27.07 M6.49 47.41 C1.22 42.84, -4.04 38.26, -16.91 27.07 M12.88 47.67 C4.01 39.96, -4.86 32.25, -14.29 24.06 M12.88 47.67 C6.11 41.79, -0.67 35.9, -14.29 24.06 M20.04 48.59 C12.97 42.45, 5.91 36.31, -12.42 20.38 M20.04 48.59 C8.3 38.39, -3.44 28.18, -12.42 20.38 M25.68 48.2 C14.45 38.43, 3.21 28.67, -10.55 16.71 M25.68 48.2 C12.89 37.08, 0.1 25.96, -10.55 16.71 M32.08 48.46 C18.29 36.48, 4.51 24.5, -7.92 13.69 M32.08 48.46 C21.22 39.02, 10.37 29.59, -7.92 13.69 M37.72 48.06 C27.26 38.97, 16.8 29.88, -6.05 10.01 M37.72 48.06 C28.82 40.33, 19.92 32.59, -6.05 10.01 M43.36 47.67 C33.53 39.12, 23.69 30.57, -4.18 6.34 M43.36 47.67 C31.23 37.12, 19.09 26.57, -4.18 6.34 M48.25 46.62 C34.47 34.64, 20.69 22.66, -1.56 3.32 M48.25 46.62 C31.59 32.14, 14.93 17.65, -1.56 3.32 M53.14 45.57 C42.04 35.92, 30.94 26.27, 0.31 -0.36 M53.14 45.57 C35.68 30.39, 18.22 15.21, 0.31 -0.36 M56.52 43.21 C44.67 32.91, 32.82 22.61, 2.93 -3.37 M56.52 43.21 C40.64 29.4, 24.76 15.6, 2.93 -3.37 M59.14 40.19 C43.37 26.48, 27.6 12.77, 5.56 -6.39 M59.14 40.19 C46.83 29.49, 34.52 18.78, 5.56 -6.39 M60.26 35.86 C44.64 22.28, 29.02 8.7, 8.94 -8.76 M60.26 35.86 C47.2 24.51, 34.15 13.16, 8.94 -8.76 M59.86 30.21 C43.74 16.19, 27.61 2.17, 11.56 -11.78 M59.86 30.21 C50.14 21.76, 40.42 13.31, 11.56 -11.78 M57.96 23.26 C40.76 8.3, 23.56 -6.65, 14.19 -14.79 M57.96 23.26 C40.9 8.43, 23.84 -6.4, 14.19 -14.79 M56.05 16.3 C43.07 5.01, 30.08 -6.28, 17.56 -17.16 M56.05 16.3 C48.01 9.31, 39.97 2.32, 17.56 -17.16 M52.64 8.03 C40.34 -2.65, 28.05 -13.34, 20.94 -19.52 M52.64 8.03 C43.16 -0.21, 33.68 -8.45, 20.94 -19.52 M47.72 -1.54 C41.91 -6.59, 36.1 -11.64, 24.32 -21.88 M47.72 -1.54 C39.94 -8.31, 32.16 -15.07, 24.32 -21.88 M42.8 -11.12 C39.58 -13.92, 36.36 -16.72, 28.46 -23.59 M42.8 -11.12 C37.13 -16.05, 31.47 -20.97, 28.46 -23.59" stroke="#099268" stroke-width="0.5" fill="none"></path><path d="M0 0 C-2.92 7.07, -27.21 35.38, -17.52 42.45 C-7.82 49.52, 49.75 53.18, 58.15 42.4 C66.55 31.63, 42.57 -15.12, 32.87 -22.19 C23.18 -29.26, 5.48 -3.7, 0 0 M0 0 C-2.92 7.07, -27.21 35.38, -17.52 42.45 C-7.82 49.52, 49.75 53.18, 58.15 42.4 C66.55 31.63, 42.57 -15.12, 32.87 -22.19 C23.18 -29.26, 5.48 -3.7, 0 0" stroke="#099268" stroke-width="1" fill="none"></path></g></g><mask></mask><g stroke-linecap="round" transform="translate(580.3989265806493 10.000000000000057) rotate(0 22.68293355221249 22.68293355221246)"><path d="M5.07 8.38 C5.07 8.38, 5.07 8.38, 5.07 8.38 M5.07 8.38 C5.07 8.38, 5.07 8.38, 5.07 8.38 M0.87 19.31 C5.36 14.14, 9.86 8.97, 16.61 1.19 M0.87 19.31 C4.11 15.58, 7.34 11.86, 16.61 1.19 M0.61 25.7 C6.28 19.17, 11.96 12.64, 22.91 0.04 M0.61 25.7 C6.84 18.53, 13.07 11.36, 22.91 0.04 M1.66 30.59 C7.75 23.58, 13.84 16.58, 27.9 0.4 M1.66 30.59 C11.84 18.88, 22.02 7.16, 27.9 0.4 M3.36 34.73 C9.01 28.23, 14.65 21.74, 31.58 2.27 M3.36 34.73 C12.64 24.05, 21.92 13.37, 31.58 2.27 M5.73 38.1 C14.18 28.38, 22.63 18.66, 35.25 4.14 M5.73 38.1 C13.68 28.95, 21.64 19.8, 35.25 4.14 M8.75 40.73 C17.1 31.12, 25.45 21.51, 38.27 6.77 M8.75 40.73 C18.43 29.59, 28.11 18.45, 38.27 6.77 M11.76 43.35 C22.57 30.93, 33.37 18.5, 41.29 9.39 M11.76 43.35 C22.23 31.31, 32.7 19.26, 41.29 9.39 M16.1 44.47 C21.97 37.71, 27.84 30.95, 43.65 12.77 M16.1 44.47 C24.74 34.53, 33.38 24.58, 43.65 12.77 M20.43 45.58 C28.28 36.55, 36.14 27.51, 44.7 17.66 M20.43 45.58 C26.82 38.22, 33.22 30.86, 44.7 17.66 M26.07 45.19 C32.68 37.59, 39.28 29.99, 45.75 22.55 M26.07 45.19 C32.74 37.51, 39.42 29.83, 45.75 22.55 M33.03 43.28 C36.89 38.84, 40.75 34.4, 44.18 30.45 M33.03 43.28 C36.73 39.02, 40.43 34.76, 44.18 30.45 M7.8 39.8 C7.8 39.8, 7.8 39.8, 7.8 39.8 M7.8 39.8 C7.8 39.8, 7.8 39.8, 7.8 39.8 M19.48 44.65 C13.06 39.07, 6.63 33.48, 1.37 28.91 M19.48 44.65 C15.65 41.32, 11.82 37.99, 1.37 28.91 M25.88 44.91 C17.99 38.05, 10.1 31.19, 0.22 22.61 M25.88 44.91 C15.64 36.01, 5.39 27.1, 0.22 22.61 M30.77 43.86 C24.57 38.48, 18.38 33.09, 0.58 17.62 M30.77 43.86 C22.65 36.8, 14.52 29.74, 0.58 17.62 M34.15 41.5 C27.23 35.49, 20.31 29.47, 2.45 13.95 M34.15 41.5 C27.24 35.49, 20.33 29.49, 2.45 13.95 M37.53 39.14 C27.98 30.84, 18.44 22.54, 4.32 10.27 M37.53 39.14 C24.66 27.96, 11.8 16.77, 4.32 10.27 M40.91 36.78 C32.45 29.42, 23.99 22.07, 6.19 6.6 M40.91 36.78 C32.41 29.39, 23.92 22.01, 6.19 6.6 M42.78 33.1 C31.96 23.7, 21.14 14.29, 9.57 4.23 M42.78 33.1 C30.67 22.57, 18.56 12.05, 9.57 4.23 M44.65 29.43 C35.13 21.16, 25.62 12.89, 12.95 1.87 M44.65 29.43 C37.98 23.63, 31.31 17.83, 12.95 1.87 M45.76 25.09 C35.18 15.9, 24.6 6.7, 17.84 0.82 M45.76 25.09 C36.97 17.45, 28.18 9.81, 17.84 0.82 M45.37 19.45 C37.7 12.78, 30.03 6.12, 22.73 -0.23 M45.37 19.45 C39.44 14.3, 33.51 9.15, 22.73 -0.23 M43.46 12.5 C40.38 9.82, 37.31 7.14, 30.63 1.34 M43.46 12.5 C40.03 9.51, 36.6 6.53, 30.63 1.34" stroke="#c2255c" stroke-width="0.5" fill="none"></path><path d="M45.37 22.68 C45.37 24, 45.25 25.33, 45.02 26.62 C44.79 27.91, 44.45 29.21, 44 30.44 C43.55 31.67, 42.98 32.89, 42.33 34.02 C41.67 35.16, 40.9 36.26, 40.06 37.26 C39.22 38.27, 38.27 39.22, 37.26 40.06 C36.26 40.9, 35.16 41.67, 34.02 42.33 C32.89 42.98, 31.67 43.55, 30.44 44 C29.21 44.45, 27.91 44.79, 26.62 45.02 C25.33 45.25, 24 45.37, 22.68 45.37 C21.37 45.37, 20.04 45.25, 18.74 45.02 C17.45 44.79, 16.16 44.45, 14.92 44 C13.69 43.55, 12.48 42.98, 11.34 42.33 C10.2 41.67, 9.11 40.9, 8.1 40.06 C7.1 39.22, 6.15 38.27, 5.31 37.26 C4.46 36.26, 3.7 35.16, 3.04 34.02 C2.38 32.89, 1.82 31.67, 1.37 30.44 C0.92 29.21, 0.57 27.91, 0.34 26.62 C0.12 25.33, 0 24, 0 22.68 C0 21.37, 0.12 20.04, 0.34 18.74 C0.57 17.45, 0.92 16.16, 1.37 14.92 C1.82 13.69, 2.38 12.48, 3.04 11.34 C3.7 10.2, 4.46 9.11, 5.31 8.1 C6.15 7.1, 7.1 6.15, 8.1 5.31 C9.11 4.46, 10.2 3.7, 11.34 3.04 C12.48 2.38, 13.69 1.82, 14.92 1.37 C16.16 0.92, 17.45 0.57, 18.74 0.34 C20.04 0.12, 21.37 0, 22.68 0 C24 0, 25.33 0.12, 26.62 0.34 C27.91 0.57, 29.21 0.92, 30.44 1.37 C31.67 1.82, 32.89 2.38, 34.02 3.04 C35.16 3.7, 36.26 4.46, 37.26 5.31 C38.27 6.15, 39.22 7.1, 40.06 8.1 C40.9 9.11, 41.67 10.2, 42.33 11.34 C42.98 12.48, 43.55 13.69, 44 14.92 C44.45 16.16, 44.79 17.45, 45.02 18.74 C45.25 20.04, 45.31 22.03, 45.37 22.68 C45.42 23.34, 45.42 22.03, 45.37 22.68" stroke="#c2255c" stroke-width="1" fill="none"></path></g><g stroke-linecap="round"><g transform="translate(572.7143249113318 78.92708270680106) rotate(0 20.317737851661548 10.129753045730808)" fill-rule="evenodd"><path d="M0 0 C0 0, 0 0, 0 0 M0 0 C0 0, 0 0, 0 0 M-12.73 20.74 C-3.63 10.27, 5.47 -0.2, 24.67 -22.28 M-12.73 20.74 C-3.21 9.79, 6.31 -1.16, 24.67 -22.28 M-18.89 33.93 C-6.79 20, 5.32 6.08, 30.31 -22.68 M-18.89 33.93 C-7.04 20.3, 4.8 6.67, 30.31 -22.68 M-19.15 40.33 C-4.78 23.79, 9.59 7.25, 33.99 -20.81 M-19.15 40.33 C-4.44 23.4, 10.28 6.47, 33.99 -20.81 M-16.14 42.95 C1.87 22.24, 19.88 1.52, 37.01 -18.18 M-16.14 42.95 C3.87 19.94, 23.87 -3.08, 37.01 -18.18 M-12.46 44.82 C-1.75 32.5, 8.95 20.19, 39.37 -14.8 M-12.46 44.82 C4.91 24.83, 22.28 4.85, 39.37 -14.8 M-8.13 45.93 C5.9 29.8, 19.92 13.67, 41.73 -11.42 M-8.13 45.93 C7.44 28.02, 23.02 10.1, 41.73 -11.42 M-3.8 47.05 C12.33 28.49, 28.47 9.93, 43.44 -7.29 M-3.8 47.05 C6.21 35.53, 16.23 24.01, 43.44 -7.29 M1.19 47.41 C12.59 34.29, 23.99 21.18, 45.8 -3.91 M1.19 47.41 C12.96 33.86, 24.74 20.32, 45.8 -3.91 M6.18 47.77 C18.57 33.51, 30.96 19.26, 47.51 0.22 M6.18 47.77 C14.67 38, 23.17 28.22, 47.51 0.22 M11.16 48.13 C21.93 35.74, 32.69 23.36, 49.87 3.6 M11.16 48.13 C21.32 36.44, 31.48 24.76, 49.87 3.6 M16.15 48.49 C24.66 38.7, 33.16 28.92, 51.58 7.73 M16.15 48.49 C27.84 35.04, 39.52 21.6, 51.58 7.73 M21.14 48.85 C27.7 41.3, 34.26 33.75, 53.94 11.11 M21.14 48.85 C32.76 35.48, 44.39 22.1, 53.94 11.11 M26.12 49.21 C33.67 40.53, 41.21 31.85, 55.65 15.25 M26.12 49.21 C35.41 38.53, 44.69 27.85, 55.65 15.25 M31.77 48.81 C39.61 39.79, 47.45 30.77, 57.35 19.38 M31.77 48.81 C36.94 42.86, 42.12 36.91, 57.35 19.38 M36.75 49.17 C44.84 39.87, 52.93 30.56, 58.4 24.27 M36.75 49.17 C41.18 44.08, 45.61 38.99, 58.4 24.27 M42.4 48.78 C47.81 42.55, 53.22 36.33, 59.45 29.16 M42.4 48.78 C47.24 43.21, 52.09 37.63, 59.45 29.16 M49.35 46.88 C53.09 42.57, 56.83 38.27, 59.85 34.8 M49.35 46.88 C53.14 42.52, 56.93 38.16, 59.85 34.8 M-17.24 42.69 C-17.24 42.69, -17.24 42.69, -17.24 42.69 M-17.24 42.69 C-17.24 42.69, -17.24 42.69, -17.24 42.69 M-7.82 45.58 C-11.21 42.63, -14.6 39.68, -19.14 35.74 M-7.82 45.58 C-10.76 43.02, -13.7 40.47, -19.14 35.74 M-0.67 46.5 C-5.91 41.94, -11.16 37.38, -18.03 31.41 M-0.67 46.5 C-6.56 41.38, -12.44 36.26, -18.03 31.41 M6.49 47.41 C1.01 42.65, -4.47 37.89, -16.91 27.07 M6.49 47.41 C-0.38 41.45, -7.24 35.48, -16.91 27.07 M12.88 47.67 C5.07 40.88, -2.74 34.09, -14.29 24.06 M12.88 47.67 C3.46 39.49, -5.96 31.3, -14.29 24.06 M20.04 48.59 C9.48 39.42, -1.07 30.24, -12.42 20.38 M20.04 48.59 C8.05 38.18, -3.93 27.76, -12.42 20.38 M25.68 48.2 C11.2 35.61, -3.28 23.02, -10.55 16.71 M25.68 48.2 C16.4 40.13, 7.11 32.06, -10.55 16.71 M32.08 48.46 C21.2 39, 10.32 29.55, -7.92 13.69 M32.08 48.46 C19.65 37.65, 7.22 26.85, -7.92 13.69 M37.72 48.06 C23.27 35.5, 8.82 22.94, -6.05 10.01 M37.72 48.06 C27.92 39.54, 18.11 31.02, -6.05 10.01 M43.36 47.67 C28.71 34.94, 14.06 22.2, -4.18 6.34 M43.36 47.67 C31.15 37.05, 18.93 26.43, -4.18 6.34 M48.25 46.62 C38.06 37.76, 27.86 28.89, -1.56 3.32 M48.25 46.62 C37.22 37.03, 26.18 27.43, -1.56 3.32 M53.14 45.57 C42.48 36.3, 31.81 27.03, 0.31 -0.36 M53.14 45.57 C39.29 33.53, 25.44 21.49, 0.31 -0.36 M56.52 43.21 C35.95 25.33, 15.39 7.45, 2.93 -3.37 M56.52 43.21 C43.85 32.2, 31.19 21.19, 2.93 -3.37 M59.14 40.19 C45.45 28.28, 31.75 16.37, 5.56 -6.39 M59.14 40.19 C43.25 26.37, 27.35 12.55, 5.56 -6.39 M60.26 35.86 C46.81 24.16, 33.36 12.47, 8.94 -8.76 M60.26 35.86 C46.33 23.75, 32.41 11.64, 8.94 -8.76 M59.86 30.21 C45.07 17.35, 30.27 4.49, 11.56 -11.78 M59.86 30.21 C47.97 19.88, 36.08 9.54, 11.56 -11.78 M57.96 23.26 C46.2 13.04, 34.44 2.81, 14.19 -14.79 M57.96 23.26 C42.85 10.12, 27.74 -3.01, 14.19 -14.79 M56.05 16.3 C43.54 5.42, 31.02 -5.46, 17.56 -17.16 M56.05 16.3 C44.04 5.86, 32.02 -4.59, 17.56 -17.16 M52.64 8.03 C44.18 0.68, 35.72 -6.67, 20.94 -19.52 M52.64 8.03 C43.38 -0.01, 34.13 -8.06, 20.94 -19.52 M47.72 -1.54 C42.62 -5.98, 37.52 -10.41, 24.32 -21.88 M47.72 -1.54 C42.76 -5.85, 37.81 -10.16, 24.32 -21.88 M42.8 -11.12 C37.71 -15.54, 32.63 -19.96, 28.46 -23.59 M42.8 -11.12 C37.61 -15.63, 32.42 -20.14, 28.46 -23.59" stroke="#c2255c" stroke-width="0.5" fill="none"></path><path d="M0 0 C-2.92 7.07, -27.21 35.38, -17.52 42.45 C-7.82 49.52, 49.75 53.18, 58.15 42.4 C66.55 31.63, 42.57 -15.12, 32.87 -22.19 C23.18 -29.26, 5.48 -3.7, 0 0 M0 0 C-2.92 7.07, -27.21 35.38, -17.52 42.45 C-7.82 49.52, 49.75 53.18, 58.15 42.4 C66.55 31.63, 42.57 -15.12, 32.87 -22.19 C23.18 -29.26, 5.48 -3.7, 0 0" stroke="#c2255c" stroke-width="1" fill="none"></path></g></g><mask></mask><g transform="translate(42.17187549999994 140.43422696685764) rotate(0 28 18.900000000000006)"><text x="0" y="28.112000000000002" font-family="Nunito, Segoe UI Emoji" font-size="28px" fill="#1e1e1e" text-anchor="start" style="white-space: pre;" direction="ltr" dominant-baseline="alphabetic">ここ</text></g><g transform="translate(171.11065624999998 140.4342269668577) rotate(0 28.00000000000003 18.900000000000006)"><text x="0" y="28.112000000000002" font-family="Nunito, Segoe UI Emoji" font-size="28px" fill="#1e1e1e" text-anchor="start" style="white-space: pre;" direction="ltr" dominant-baseline="alphabetic">そこ</text></g><g transform="translate(550.7732084999999 140.4342272168576) rotate(0 42 18.900000000000006)"><text x="0" y="28.112000000000002" font-family="Nunito, Segoe UI Emoji" font-size="28px" fill="#1e1e1e" text-anchor="start" style="white-space: pre;" direction="ltr" dominant-baseline="alphabetic">あそこ</text></g></svg>