<?xml version="1.0" standalone="no"?>
<!DOCTYPE svg PUBLIC "-//W3C//DTD SVG 1.1//EN" "http://www.w3.org/Graphics/SVG/1.1/DTD/svg11.dtd">
<svg version="1.1" xmlns="http://www.w3.org/2000/svg" viewBox="0 0 560.8573867923276 301.1063339534593" width="560.8573867923276" height="301.1063339534593"><!-- svg-source:excalidraw --><metadata></metadata><defs><style class="style-fonts">
      </style></defs><g stroke-linecap="round" transform="translate(85.67652864149568 44.95008949688679) rotate(0 211.4595880402403 12.42400638676179)"><path d="M1.65 1.44 C1.65 1.44, 1.65 1.44, 1.65 1.44 M1.65 1.44 C1.65 1.44, 1.65 1.44, 1.65 1.44 M0.47 14.99 C4.26 10.63, 8.05 6.28, 12.94 0.65 M0.47 14.99 C3.46 11.55, 6.45 8.11, 12.94 0.65 M3.23 24.01 C10.05 16.16, 16.87 8.32, 23.57 0.61 M3.23 24.01 C7.69 18.88, 12.15 13.74, 23.57 0.61 M13.21 24.73 C19.98 16.94, 26.75 9.15, 34.2 0.58 M13.21 24.73 C20.15 16.74, 27.1 8.74, 34.2 0.58 M23.84 24.7 C31.99 15.31, 40.15 5.93, 44.83 0.54 M23.84 24.7 C31.42 15.97, 39.01 7.24, 44.83 0.54 M34.47 24.66 C39.02 19.42, 43.58 14.18, 55.46 0.51 M34.47 24.66 C40.51 17.7, 46.56 10.75, 55.46 0.51 M45.1 24.63 C51.91 16.78, 58.73 8.94, 66.09 0.48 M45.1 24.63 C50.5 18.41, 55.9 12.2, 66.09 0.48 M55.07 25.35 C60.11 19.54, 65.16 13.74, 76.72 0.44 M55.07 25.35 C60.75 18.81, 66.44 12.27, 76.72 0.44 M65.7 25.31 C73.05 16.86, 80.39 8.41, 87.35 0.41 M65.7 25.31 C72.67 17.3, 79.64 9.28, 87.35 0.41 M76.33 25.28 C82.6 18.06, 88.87 10.85, 97.98 0.37 M76.33 25.28 C84.06 16.38, 91.79 7.49, 97.98 0.37 M86.96 25.24 C92.38 19, 97.81 12.77, 108.61 0.34 M86.96 25.24 C95 16, 103.03 6.75, 108.61 0.34 M97.59 25.21 C103.65 18.24, 109.71 11.26, 119.24 0.3 M97.59 25.21 C104.66 17.08, 111.73 8.94, 119.24 0.3 M108.22 25.17 C112.56 20.18, 116.9 15.19, 129.87 0.27 M108.22 25.17 C115.22 17.13, 122.21 9.08, 129.87 0.27 M118.85 25.14 C126.86 15.92, 134.87 6.71, 140.5 0.23 M118.85 25.14 C124.84 18.25, 130.83 11.35, 140.5 0.23 M129.48 25.11 C137.16 16.28, 144.83 7.45, 151.13 0.2 M129.48 25.11 C135.91 17.71, 142.34 10.31, 151.13 0.2 M140.11 25.07 C146.59 17.62, 153.07 10.16, 161.76 0.17 M140.11 25.07 C148.02 15.97, 155.94 6.86, 161.76 0.17 M150.74 25.04 C155.1 20.02, 159.47 15, 172.39 0.13 M150.74 25.04 C157.54 17.22, 164.33 9.4, 172.39 0.13 M161.37 25 C167.46 18, 173.54 11, 183.02 0.1 M161.37 25 C167.91 17.48, 174.44 9.96, 183.02 0.1 M172 24.97 C177.49 18.65, 182.99 12.33, 193.65 0.06 M172 24.97 C180.57 15.1, 189.15 5.24, 193.65 0.06 M182.63 24.93 C189.17 17.42, 195.7 9.9, 204.28 0.03 M182.63 24.93 C187.97 18.79, 193.32 12.64, 204.28 0.03 M193.26 24.9 C200.77 16.26, 208.28 7.62, 214.91 -0.01 M193.26 24.9 C199.05 18.23, 204.85 11.57, 214.91 -0.01 M203.89 24.86 C208.68 19.35, 213.48 13.84, 225.54 -0.04 M203.89 24.86 C210.66 17.08, 217.42 9.3, 225.54 -0.04 M214.52 24.83 C221.66 16.61, 228.81 8.4, 235.52 0.68 M214.52 24.83 C219.86 18.69, 225.19 12.55, 235.52 0.68 M225.15 24.79 C230.89 18.2, 236.62 11.6, 246.15 0.64 M225.15 24.79 C230.67 18.45, 236.18 12.1, 246.15 0.64 M235.78 24.76 C240.32 19.54, 244.86 14.32, 256.78 0.61 M235.78 24.76 C243.82 15.51, 251.86 6.26, 256.78 0.61 M246.41 24.73 C254.05 15.94, 261.69 7.15, 267.41 0.58 M246.41 24.73 C250.89 19.58, 255.36 14.43, 267.41 0.58 M257.04 24.69 C265.04 15.49, 273.04 6.29, 278.04 0.54 M257.04 24.69 C262.98 17.86, 268.92 11.03, 278.04 0.54 M267.67 24.66 C275.53 15.62, 283.38 6.59, 288.67 0.51 M267.67 24.66 C274.62 16.67, 281.56 8.68, 288.67 0.51 M278.3 24.62 C285.94 15.83, 293.58 7.04, 299.3 0.47 M278.3 24.62 C284.26 17.77, 290.22 10.91, 299.3 0.47 M288.28 25.34 C293.84 18.94, 299.41 12.53, 309.93 0.44 M288.28 25.34 C295.51 17.02, 302.74 8.7, 309.93 0.44 M298.91 25.31 C305.79 17.39, 312.67 9.47, 320.56 0.4 M298.91 25.31 C305.79 17.39, 312.67 9.47, 320.56 0.4 M309.54 25.27 C316.9 16.8, 324.27 8.32, 331.19 0.37 M309.54 25.27 C318.05 15.48, 326.57 5.68, 331.19 0.37 M320.17 25.24 C327.08 17.28, 334 9.33, 341.82 0.33 M320.17 25.24 C324.9 19.8, 329.63 14.35, 341.82 0.33 M330.8 25.2 C335.65 19.62, 340.5 14.04, 352.45 0.3 M330.8 25.2 C335.78 19.47, 340.76 13.74, 352.45 0.3 M341.43 25.17 C347.23 18.49, 353.04 11.81, 363.08 0.26 M341.43 25.17 C346.2 19.67, 350.98 14.18, 363.08 0.26 M352.06 25.14 C358.18 18.1, 364.29 11.06, 373.71 0.23 M352.06 25.14 C356.77 19.71, 361.48 14.29, 373.71 0.23 M362.69 25.1 C371.07 15.45, 379.46 5.81, 384.34 0.2 M362.69 25.1 C368.33 18.6, 373.98 12.11, 384.34 0.2 M373.32 25.07 C381.18 16.02, 389.04 6.98, 394.97 0.16 M373.32 25.07 C379.4 18.07, 385.48 11.07, 394.97 0.16 M383.95 25.03 C390.95 16.97, 397.96 8.91, 405.6 0.13 M383.95 25.03 C389.95 18.13, 395.95 11.22, 405.6 0.13 M394.58 25 C400.79 17.86, 406.99 10.71, 416.23 0.09 M394.58 25 C403.16 15.13, 411.73 5.26, 416.23 0.09 M405.21 24.96 C409.42 20.11, 413.64 15.27, 422.26 5.34 M405.21 24.96 C410.49 18.89, 415.76 12.82, 422.26 5.34 M415.84 24.93 C418.35 22.04, 420.85 19.16, 423.05 16.63 M415.84 24.93 C417.94 22.51, 420.05 20.09, 423.05 16.63" stroke="#1971c2" stroke-width="1" fill="none"></path><path d="M6.21 0 C107.68 0, 209.14 0, 416.71 0 M6.21 0 C153.15 0, 300.08 0, 416.71 0 M416.71 0 C420.85 0, 422.92 2.07, 422.92 6.21 M416.71 0 C420.85 0, 422.92 2.07, 422.92 6.21 M422.92 6.21 C422.92 9.23, 422.92 12.24, 422.92 18.64 M422.92 6.21 C422.92 10.94, 422.92 15.68, 422.92 18.64 M422.92 18.64 C422.92 22.78, 420.85 24.85, 416.71 24.85 M422.92 18.64 C422.92 22.78, 420.85 24.85, 416.71 24.85 M416.71 24.85 C333.55 24.85, 250.38 24.85, 6.21 24.85 M416.71 24.85 C333.56 24.85, 250.41 24.85, 6.21 24.85 M6.21 24.85 C2.07 24.85, 0 22.78, 0 18.64 M6.21 24.85 C2.07 24.85, 0 22.78, 0 18.64 M0 18.64 C0 14.2, 0 9.76, 0 6.21 M0 18.64 C0 14.61, 0 10.58, 0 6.21 M0 6.21 C0 2.07, 2.07 0, 6.21 0 M0 6.21 C0 2.07, 2.07 0, 6.21 0" stroke="#1971c2" stroke-width="2" fill="none"></path></g><g stroke-linecap="round"><g transform="translate(10 238.80901816344283) rotate(0 270.4286933961638 5.684341886080802e-14)"><path d="M0 0 C208.95 0, 417.9 0, 540.86 0 M0 0 C169.42 0, 338.83 0, 540.86 0" stroke="#343a40" stroke-width="2" fill="none"></path></g><g transform="translate(10 238.80901816344283) rotate(0 270.4286933961638 5.684341886080802e-14)"><path d="M540.86 0 L527.26 6.34 L527.26 -6.34 L540.86 0" stroke="none" stroke-width="0" fill="#343a40" fill-rule="evenodd"></path><path d="M540.86 0 C535.61 2.45, 530.35 4.9, 527.26 6.34 M540.86 0 C536.6 1.99, 532.34 3.97, 527.26 6.34 M527.26 6.34 C527.26 3.52, 527.26 0.71, 527.26 -6.34 M527.26 6.34 C527.26 2.52, 527.26 -1.29, 527.26 -6.34 M527.26 -6.34 C530.1 -5.02, 532.93 -3.7, 540.86 0 M527.26 -6.34 C530.77 -4.71, 534.27 -3.07, 540.86 0 M540.86 0 C540.86 0, 540.86 0, 540.86 0 M540.86 0 C540.86 0, 540.86 0, 540.86 0" stroke="#343a40" stroke-width="2" fill="none"></path></g></g><mask></mask><g transform="translate(110.42260389376179 266.1063339534593) rotate(0 20 12.5)"><text x="20" y="19.08" font-family="Nunito, sans-serif, Segoe UI Emoji" font-size="20px" fill="#343a40" text-anchor="middle" style="white-space: pre;" direction="ltr" dominant-baseline="alphabetic">除阻</text></g><g stroke-linecap="round" transform="translate(212.9021603483352 189.6621140844362) rotate(0 147.84677218682054 12.42400638676179)"><path d="M1.65 1.44 C1.65 1.44, 1.65 1.44, 1.65 1.44 M1.65 1.44 C1.65 1.44, 1.65 1.44, 1.65 1.44 M0.47 14.99 C4.42 10.44, 8.38 5.9, 12.94 0.65 M0.47 14.99 C3.85 11.1, 7.23 7.21, 12.94 0.65 M3.23 24.01 C8.17 18.33, 13.1 12.65, 23.57 0.61 M3.23 24.01 C9.03 17.34, 14.83 10.66, 23.57 0.61 M13.21 24.73 C19.31 17.71, 25.41 10.7, 34.2 0.58 M13.21 24.73 C17.78 19.47, 22.35 14.22, 34.2 0.58 M23.84 24.7 C31.62 15.74, 39.41 6.78, 44.83 0.54 M23.84 24.7 C32.12 15.17, 40.39 5.65, 44.83 0.54 M34.47 24.66 C40.28 17.97, 46.1 11.27, 55.46 0.51 M34.47 24.66 C39.93 18.38, 45.39 12.1, 55.46 0.51 M45.1 24.63 C50.49 18.42, 55.88 12.22, 66.09 0.48 M45.1 24.63 C50.48 18.43, 55.87 12.23, 66.09 0.48 M55.07 25.35 C61.23 18.26, 67.38 11.18, 76.72 0.44 M55.07 25.35 C59.41 20.35, 63.76 15.36, 76.72 0.44 M65.7 25.31 C70.73 19.53, 75.76 13.74, 87.35 0.41 M65.7 25.31 C73.54 16.29, 81.38 7.27, 87.35 0.41 M76.33 25.28 C83.76 16.73, 91.19 8.18, 97.98 0.37 M76.33 25.28 C81.59 19.23, 86.85 13.18, 97.98 0.37 M86.96 25.24 C91.34 20.21, 95.72 15.17, 108.61 0.34 M86.96 25.24 C92.45 18.93, 97.93 12.62, 108.61 0.34 M97.59 25.21 C102.1 20.02, 106.6 14.84, 119.24 0.3 M97.59 25.21 C103.92 17.93, 110.25 10.65, 119.24 0.3 M108.22 25.17 C115.7 16.57, 123.19 7.96, 129.87 0.27 M108.22 25.17 C113.06 19.6, 117.91 14.03, 129.87 0.27 M118.85 25.14 C124.42 18.74, 129.98 12.33, 140.5 0.23 M118.85 25.14 C124.38 18.77, 129.92 12.41, 140.5 0.23 M129.48 25.11 C134.12 19.76, 138.77 14.42, 151.13 0.2 M129.48 25.11 C134.2 19.67, 138.93 14.24, 151.13 0.2 M140.11 25.07 C148.58 15.32, 157.06 5.58, 161.76 0.17 M140.11 25.07 C147.5 16.57, 154.89 8.07, 161.76 0.17 M150.74 25.04 C155.82 19.2, 160.89 13.36, 172.39 0.13 M150.74 25.04 C157.96 16.73, 165.18 8.42, 172.39 0.13 M161.37 25 C168.64 16.64, 175.91 8.28, 183.02 0.1 M161.37 25 C169.15 16.05, 176.94 7.1, 183.02 0.1 M172 24.97 C176.43 19.88, 180.85 14.79, 193.65 0.06 M172 24.97 C178.89 17.04, 185.78 9.12, 193.65 0.06 M182.63 24.93 C189.96 16.5, 197.29 8.07, 204.28 0.03 M182.63 24.93 C187.43 19.42, 192.22 13.9, 204.28 0.03 M193.26 24.9 C201.85 15.02, 210.44 5.13, 214.91 -0.01 M193.26 24.9 C199.15 18.13, 205.03 11.36, 214.91 -0.01 M203.89 24.86 C209.76 18.11, 215.63 11.36, 225.54 -0.04 M203.89 24.86 C209.1 18.87, 214.31 12.88, 225.54 -0.04 M214.52 24.83 C219.93 18.61, 225.34 12.39, 235.52 0.68 M214.52 24.83 C221.78 16.48, 229.04 8.12, 235.52 0.68 M225.15 24.79 C232.06 16.85, 238.96 8.91, 246.15 0.64 M225.15 24.79 C230.01 19.21, 234.86 13.63, 246.15 0.64 M235.78 24.76 C242.21 17.37, 248.63 9.97, 256.78 0.61 M235.78 24.76 C240.89 18.88, 246 13.01, 256.78 0.61 M246.41 24.73 C253.35 16.75, 260.28 8.77, 267.41 0.58 M246.41 24.73 C250.82 19.66, 255.23 14.59, 267.41 0.58 M257.04 24.69 C261.98 19.02, 266.91 13.34, 278.04 0.54 M257.04 24.69 C263.73 17, 270.42 9.3, 278.04 0.54 M267.67 24.66 C272.24 19.41, 276.8 14.16, 288.67 0.51 M267.67 24.66 C273.85 17.55, 280.03 10.44, 288.67 0.51 M278.3 24.62 C281.89 20.49, 285.48 16.36, 295.36 5 M278.3 24.62 C283.04 19.17, 287.78 13.72, 295.36 5 M288.28 25.34 C290.84 22.39, 293.4 19.44, 295.49 17.04 M288.28 25.34 C289.75 23.65, 291.22 21.96, 295.49 17.04" stroke="#1971c2" stroke-width="1" fill="none"></path><path d="M6.21 0 C88.44 0, 170.68 0, 289.48 0 M6.21 0 C79.63 0, 153.04 0, 289.48 0 M289.48 0 C293.62 0, 295.69 2.07, 295.69 6.21 M289.48 0 C293.62 0, 295.69 2.07, 295.69 6.21 M295.69 6.21 C295.69 9.17, 295.69 12.12, 295.69 18.64 M295.69 6.21 C295.69 9.13, 295.69 12.05, 295.69 18.64 M295.69 18.64 C295.69 22.78, 293.62 24.85, 289.48 24.85 M295.69 18.64 C295.69 22.78, 293.62 24.85, 289.48 24.85 M289.48 24.85 C194.64 24.85, 99.79 24.85, 6.21 24.85 M289.48 24.85 C223.71 24.85, 157.94 24.85, 6.21 24.85 M6.21 24.85 C2.07 24.85, 0 22.78, 0 18.64 M6.21 24.85 C2.07 24.85, 0 22.78, 0 18.64 M0 18.64 C0 14.8, 0 10.97, 0 6.21 M0 18.64 C0 14.43, 0 10.23, 0 6.21 M0 6.21 C0 2.07, 2.07 0, 6.21 0 M0 6.21 C0 2.07, 2.07 0, 6.21 0" stroke="#1971c2" stroke-width="2" fill="none"></path></g><g stroke-linecap="round" transform="translate(123.63552706221526 10) rotate(0 6.787076545981108 123.73335391928237)"><path d="M3.39 0 C5.67 0, 7.95 0, 10.18 0 C12.44 0, 13.57 1.13, 13.57 3.39 C13.57 68.04, 13.57 132.7, 13.57 244.07 C13.57 246.34, 12.44 247.47, 10.18 247.47 C8.79 247.47, 7.4 247.47, 3.39 247.47 C1.13 247.47, 0 246.34, 0 244.07 C0 148.32, 0 52.56, 0 3.39 C0 1.13, 1.13 0, 3.39 0" stroke="none" stroke-width="0" fill="#f783ac"></path><path d="M3.39 0 C6.05 0, 8.7 0, 10.18 0 M3.39 0 C5.83 0, 8.27 0, 10.18 0 M10.18 0 C12.44 0, 13.57 1.13, 13.57 3.39 M10.18 0 C12.44 0, 13.57 1.13, 13.57 3.39 M13.57 3.39 C13.57 68.86, 13.57 134.33, 13.57 244.07 M13.57 3.39 C13.57 54.54, 13.57 105.7, 13.57 244.07 M13.57 244.07 C13.57 246.34, 12.44 247.47, 10.18 247.47 M13.57 244.07 C13.57 246.34, 12.44 247.47, 10.18 247.47 M10.18 247.47 C7.61 247.47, 5.04 247.47, 3.39 247.47 M10.18 247.47 C8.67 247.47, 7.17 247.47, 3.39 247.47 M3.39 247.47 C1.13 247.47, 0 246.34, 0 244.07 M3.39 247.47 C1.13 247.47, 0 246.34, 0 244.07 M0 244.07 C0 171.28, 0 98.49, 0 3.39 M0 244.07 C0 149.33, 0 54.59, 0 3.39 M0 3.39 C0 1.13, 1.13 0, 3.39 0 M0 3.39 C0 1.13, 1.13 0, 3.39 0" stroke="#c2255c" stroke-width="2" fill="none"></path></g><g stroke-linecap="round" transform="translate(141.84258561554998 141.42477255525307) rotate(0 183.37655955321316 12.42400638676179)"><path d="M1.65 1.44 C1.65 1.44, 1.65 1.44, 1.65 1.44 M1.65 1.44 C1.65 1.44, 1.65 1.44, 1.65 1.44 M0.47 14.99 C3.5 11.51, 6.52 8.03, 12.94 0.65 M0.47 14.99 C5.22 9.53, 9.97 4.06, 12.94 0.65 M3.23 24.01 C8.59 17.85, 13.94 11.69, 23.57 0.61 M3.23 24.01 C10.17 16.03, 17.11 8.04, 23.57 0.61 M13.21 24.73 C18.6 18.53, 23.99 12.33, 34.2 0.58 M13.21 24.73 C18.31 18.86, 23.41 12.99, 34.2 0.58 M23.84 24.7 C31.42 15.97, 39.01 7.24, 44.83 0.54 M23.84 24.7 C28.48 19.36, 33.11 14.02, 44.83 0.54 M34.47 24.66 C41.83 16.19, 49.19 7.72, 55.46 0.51 M34.47 24.66 C41.29 16.81, 48.11 8.97, 55.46 0.51 M45.1 24.63 C51.53 17.23, 57.96 9.83, 66.09 0.48 M45.1 24.63 C51.37 17.41, 57.64 10.19, 66.09 0.48 M55.07 25.35 C63.5 15.65, 71.92 5.96, 76.72 0.44 M55.07 25.35 C60.67 18.9, 66.28 12.46, 76.72 0.44 M65.7 25.31 C72.45 17.55, 79.2 9.78, 87.35 0.41 M65.7 25.31 C71.56 18.57, 77.43 11.82, 87.35 0.41 M76.33 25.28 C83.04 17.56, 89.75 9.84, 97.98 0.37 M76.33 25.28 C81.29 19.57, 86.25 13.87, 97.98 0.37 M86.96 25.24 C91.62 19.89, 96.27 14.53, 108.61 0.34 M86.96 25.24 C92.03 19.41, 97.1 13.57, 108.61 0.34 M97.59 25.21 C102.46 19.61, 107.33 14.01, 119.24 0.3 M97.59 25.21 C103.47 18.45, 109.34 11.69, 119.24 0.3 M108.22 25.17 C116.38 15.79, 124.54 6.41, 129.87 0.27 M108.22 25.17 C116.63 15.5, 125.04 5.83, 129.87 0.27 M118.85 25.14 C125.75 17.2, 132.65 9.27, 140.5 0.23 M118.85 25.14 C126.93 15.84, 135.01 6.54, 140.5 0.23 M129.48 25.11 C137.73 15.61, 145.99 6.11, 151.13 0.2 M129.48 25.11 C136.7 16.8, 143.93 8.49, 151.13 0.2 M140.11 25.07 C147.68 16.36, 155.26 7.65, 161.76 0.17 M140.11 25.07 C148.2 15.77, 156.28 6.47, 161.76 0.17 M150.74 25.04 C158.02 16.67, 165.29 8.3, 172.39 0.13 M150.74 25.04 C158.8 15.76, 166.86 6.49, 172.39 0.13 M161.37 25 C168.95 16.28, 176.53 7.57, 183.02 0.1 M161.37 25 C167.05 18.46, 172.74 11.93, 183.02 0.1 M172 24.97 C180.06 15.7, 188.11 6.43, 193.65 0.06 M172 24.97 C176.51 19.79, 181.01 14.6, 193.65 0.06 M182.63 24.93 C189.66 16.85, 196.69 8.77, 204.28 0.03 M182.63 24.93 C188.74 17.9, 194.86 10.87, 204.28 0.03 M193.26 24.9 C200.71 16.33, 208.15 7.77, 214.91 -0.01 M193.26 24.9 C198.59 18.77, 203.92 12.63, 214.91 -0.01 M203.89 24.86 C211.52 16.09, 219.14 7.32, 225.54 -0.04 M203.89 24.86 C208.8 19.22, 213.7 13.58, 225.54 -0.04 M214.52 24.83 C221.44 16.87, 228.35 8.92, 235.52 0.68 M214.52 24.83 C220.69 17.74, 226.85 10.64, 235.52 0.68 M225.15 24.79 C231.14 17.91, 237.12 11.03, 246.15 0.64 M225.15 24.79 C232.3 16.58, 239.44 8.36, 246.15 0.64 M235.78 24.76 C242.71 16.79, 249.64 8.82, 256.78 0.61 M235.78 24.76 C241.22 18.51, 246.65 12.26, 256.78 0.61 M246.41 24.73 C251.63 18.72, 256.85 12.72, 267.41 0.58 M246.41 24.73 C251.04 19.41, 255.66 14.09, 267.41 0.58 M257.04 24.69 C264.82 15.75, 272.59 6.8, 278.04 0.54 M257.04 24.69 C262.33 18.61, 267.61 12.53, 278.04 0.54 M267.67 24.66 C274.85 16.4, 282.03 8.14, 288.67 0.51 M267.67 24.66 C274.28 17.06, 280.89 9.45, 288.67 0.51 M278.3 24.62 C286.67 14.99, 295.04 5.36, 299.3 0.47 M278.3 24.62 C284.26 17.77, 290.22 10.92, 299.3 0.47 M288.28 25.34 C295.58 16.94, 302.88 8.54, 309.93 0.44 M288.28 25.34 C293.12 19.77, 297.96 14.21, 309.93 0.44 M298.91 25.31 C307.28 15.68, 315.65 6.04, 320.56 0.4 M298.91 25.31 C306.88 16.14, 314.85 6.97, 320.56 0.4 M309.54 25.27 C317.78 15.79, 326.03 6.31, 331.19 0.37 M309.54 25.27 C318.16 15.36, 326.78 5.44, 331.19 0.37 M320.17 25.24 C325.14 19.52, 330.11 13.8, 341.82 0.33 M320.17 25.24 C324.92 19.77, 329.67 14.3, 341.82 0.33 M330.8 25.2 C337.11 17.94, 343.43 10.68, 352.45 0.3 M330.8 25.2 C336.02 19.19, 341.25 13.18, 352.45 0.3 M341.43 25.17 C346.59 19.24, 351.74 13.3, 362.42 1.02 M341.43 25.17 C348.86 16.62, 356.3 8.06, 362.42 1.02 M352.06 25.14 C355.85 20.77, 359.64 16.41, 366.49 8.53 M352.06 25.14 C355.06 21.68, 358.06 18.23, 366.49 8.53 M362.69 25.1 C363.6 24.06, 364.5 23.01, 365.97 21.33 M362.69 25.1 C363.97 23.63, 365.24 22.16, 365.97 21.33" stroke="#1971c2" stroke-width="1" fill="none"></path><path d="M6.21 0 C85.79 0, 165.38 0, 360.54 0 M6.21 0 C87.67 0, 169.12 0, 360.54 0 M360.54 0 C364.68 0, 366.75 2.07, 366.75 6.21 M360.54 0 C364.68 0, 366.75 2.07, 366.75 6.21 M366.75 6.21 C366.75 8.92, 366.75 11.62, 366.75 18.64 M366.75 6.21 C366.75 10.45, 366.75 14.7, 366.75 18.64 M366.75 18.64 C366.75 22.78, 364.68 24.85, 360.54 24.85 M366.75 18.64 C366.75 22.78, 364.68 24.85, 360.54 24.85 M360.54 24.85 C287.36 24.85, 214.18 24.85, 6.21 24.85 M360.54 24.85 C262.91 24.85, 165.28 24.85, 6.21 24.85 M6.21 24.85 C2.07 24.85, 0 22.78, 0 18.64 M6.21 24.85 C2.07 24.85, 0 22.78, 0 18.64 M0 18.64 C0 15.27, 0 11.91, 0 6.21 M0 18.64 C0 14.95, 0 11.26, 0 6.21 M0 6.21 C0 2.07, 2.07 0, 6.21 0 M0 6.21 C0 2.07, 2.07 0, 6.21 0" stroke="#1971c2" stroke-width="2" fill="none"></path></g><g stroke-linecap="round" transform="translate(172.73805289067423 93.18743102606993) rotate(0 167.92882591565103 12.42400638676179)"><path d="M1.65 1.44 C1.65 1.44, 1.65 1.44, 1.65 1.44 M1.65 1.44 C1.65 1.44, 1.65 1.44, 1.65 1.44 M0.47 14.99 C4.07 10.86, 7.66 6.73, 12.94 0.65 M0.47 14.99 C4.4 10.48, 8.32 5.96, 12.94 0.65 M3.23 24.01 C9.2 17.14, 15.18 10.27, 23.57 0.61 M3.23 24.01 C9.7 16.57, 16.17 9.12, 23.57 0.61 M13.21 24.73 C19.58 17.39, 25.96 10.06, 34.2 0.58 M13.21 24.73 C18.24 18.94, 23.27 13.15, 34.2 0.58 M23.84 24.7 C30.88 16.6, 37.92 8.5, 44.83 0.54 M23.84 24.7 C28.44 19.4, 33.05 14.1, 44.83 0.54 M34.47 24.66 C41.24 16.87, 48.01 9.08, 55.46 0.51 M34.47 24.66 C41.42 16.67, 48.36 8.67, 55.46 0.51 M45.1 24.63 C53.25 15.24, 61.41 5.86, 66.09 0.48 M45.1 24.63 C52.68 15.9, 60.27 7.17, 66.09 0.48 M55.07 25.35 C59.77 19.94, 64.47 14.54, 76.72 0.44 M55.07 25.35 C61.31 18.17, 67.54 11, 76.72 0.44 M65.7 25.31 C72.73 17.22, 79.76 9.13, 87.35 0.41 M65.7 25.31 C71.27 18.9, 76.84 12.49, 87.35 0.41 M76.33 25.28 C81.37 19.48, 86.42 13.67, 97.98 0.37 M76.33 25.28 C82.01 18.74, 87.7 12.2, 97.98 0.37 M86.96 25.24 C94.31 16.79, 101.65 8.34, 108.61 0.34 M86.96 25.24 C93.93 17.23, 100.9 9.21, 108.61 0.34 M97.59 25.21 C103.86 17.99, 110.13 10.78, 119.24 0.3 M97.59 25.21 C105.32 16.31, 113.05 7.42, 119.24 0.3 M108.22 25.17 C113.64 18.94, 119.07 12.7, 129.87 0.27 M108.22 25.17 C116.26 15.93, 124.29 6.68, 129.87 0.27 M118.85 25.14 C124.91 18.17, 130.97 11.19, 140.5 0.23 M118.85 25.14 C125.92 17.01, 132.99 8.87, 140.5 0.23 M129.48 25.11 C133.82 20.11, 138.16 15.12, 151.13 0.2 M129.48 25.11 C136.48 17.06, 143.47 9.01, 151.13 0.2 M140.11 25.07 C148.12 15.86, 156.13 6.64, 161.76 0.17 M140.11 25.07 C146.1 18.18, 152.1 11.28, 161.76 0.17 M150.74 25.04 C158.42 16.21, 166.09 7.38, 172.39 0.13 M150.74 25.04 C157.17 17.64, 163.6 10.24, 172.39 0.13 M161.37 25 C167.85 17.55, 174.33 10.09, 183.02 0.1 M161.37 25 C169.28 15.9, 177.2 6.8, 183.02 0.1 M172 24.97 C176.36 19.95, 180.73 14.93, 193.65 0.06 M172 24.97 C178.8 17.15, 185.59 9.34, 193.65 0.06 M182.63 24.93 C188.72 17.93, 194.8 10.93, 204.28 0.03 M182.63 24.93 C189.17 17.41, 195.7 9.89, 204.28 0.03 M193.26 24.9 C198.75 18.58, 204.25 12.26, 214.91 -0.01 M193.26 24.9 C201.83 15.04, 210.41 5.17, 214.91 -0.01 M203.89 24.86 C210.43 17.35, 216.96 9.83, 225.54 -0.04 M203.89 24.86 C209.23 18.72, 214.58 12.57, 225.54 -0.04 M214.52 24.83 C221.81 16.45, 229.09 8.07, 235.52 0.68 M214.52 24.83 C220.14 18.37, 225.76 11.9, 235.52 0.68 M225.15 24.79 C229.8 19.45, 234.45 14.1, 246.15 0.64 M225.15 24.79 C231.71 17.25, 238.27 9.7, 246.15 0.64 M235.78 24.76 C242.92 16.54, 250.07 8.33, 256.78 0.61 M235.78 24.76 C241.12 18.62, 246.46 12.48, 256.78 0.61 M246.41 24.73 C252.15 18.13, 257.88 11.53, 267.41 0.58 M246.41 24.73 C251.93 18.38, 257.44 12.03, 267.41 0.58 M257.04 24.69 C261.58 19.47, 266.12 14.25, 278.04 0.54 M257.04 24.69 C265.08 15.44, 273.12 6.19, 278.04 0.54 M267.67 24.66 C275.31 15.87, 282.95 7.08, 288.67 0.51 M267.67 24.66 C272.15 19.51, 276.62 14.36, 288.67 0.51 M278.3 24.62 C286.3 15.42, 294.3 6.22, 299.3 0.47 M278.3 24.62 C284.24 17.79, 290.18 10.96, 299.3 0.47 M288.28 25.34 C296.37 16.03, 304.47 6.71, 309.93 0.44 M288.28 25.34 C295.44 17.1, 302.6 8.87, 309.93 0.44 M298.91 25.31 C306.79 16.24, 314.66 7.18, 320.56 0.4 M298.91 25.31 C305.05 18.24, 311.19 11.17, 320.56 0.4 M309.54 25.27 C315.1 18.87, 320.67 12.47, 331.19 0.37 M309.54 25.27 C316.77 16.95, 324 8.63, 331.19 0.37 M320.17 25.24 C325.17 19.48, 330.18 13.72, 335.91 7.13 M320.17 25.24 C325.17 19.48, 330.18 13.72, 335.91 7.13 M331.45 24.45 C333.02 22.65, 334.58 20.85, 336.05 19.17 M331.45 24.45 C333.26 22.37, 335.07 20.29, 336.05 19.17" stroke="#1971c2" stroke-width="1" fill="none"></path><path d="M6.21 0 C96.36 0, 186.5 0, 329.65 0 M6.21 0 C132.28 0, 258.35 0, 329.65 0 M329.65 0 C333.79 0, 335.86 2.07, 335.86 6.21 M329.65 0 C333.79 0, 335.86 2.07, 335.86 6.21 M335.86 6.21 C335.86 8.91, 335.86 11.61, 335.86 18.64 M335.86 6.21 C335.86 10.65, 335.86 15.08, 335.86 18.64 M335.86 18.64 C335.86 22.78, 333.79 24.85, 329.65 24.85 M335.86 18.64 C335.86 22.78, 333.79 24.85, 329.65 24.85 M329.65 24.85 C223.01 24.85, 116.37 24.85, 6.21 24.85 M329.65 24.85 C244.47 24.85, 159.3 24.85, 6.21 24.85 M6.21 24.85 C2.07 24.85, 0 22.78, 0 18.64 M6.21 24.85 C2.07 24.85, 0 22.78, 0 18.64 M0 18.64 C0 13.69, 0 8.75, 0 6.21 M0 18.64 C0 13.75, 0 8.86, 0 6.21 M0 6.21 C0 2.07, 2.07 0, 6.21 0 M0 6.21 C0 2.07, 2.07 0, 6.21 0" stroke="#1971c2" stroke-width="2" fill="none"></path></g><g transform="translate(23.999999537002623 39.874095580503194) rotate(0 14 17.5)"><text x="14" y="26.712" font-family="Nunito, sans-serif, Segoe UI Emoji" font-size="28px" fill="#343a40" text-anchor="middle" style="white-space: pre;" direction="ltr" dominant-baseline="alphabetic">だ</text></g><g transform="translate(23.99999993073334 88.11143800919035) rotate(0 14 17.5)"><text x="14" y="26.712" font-family="Nunito, sans-serif, Segoe UI Emoji" font-size="28px" fill="#343a40" text-anchor="middle" style="white-space: pre;" direction="ltr" dominant-baseline="alphabetic">た</text></g><g transform="translate(23.999999868719442 187.5788985617994) rotate(0 14 17.5)"><text x="14" y="26.712" font-family="Nunito, sans-serif, Segoe UI Emoji" font-size="28px" fill="#343a40" text-anchor="middle" style="white-space: pre;" direction="ltr" dominant-baseline="alphabetic">他</text></g><g transform="translate(24.00000008179768 136.34877910313253) rotate(0 14 17.5)"><text x="14" y="26.712" font-family="Nunito, sans-serif, Segoe UI Emoji" font-size="28px" fill="#343a40" text-anchor="middle" style="white-space: pre;" direction="ltr" dominant-baseline="alphabetic">搭</text></g><g transform="translate(428.5957043834246 14.874095387542184) rotate(0 40 12.5)"><text x="40" y="19.08" font-family="Nunito, sans-serif, Segoe UI Emoji" font-size="20px" fill="#343a40" text-anchor="middle" style="white-space: pre;" direction="ltr" dominant-baseline="alphabetic">声带震动</text></g></svg>