<?xml version="1.0" standalone="no"?>
<!DOCTYPE svg PUBLIC "-//W3C//DTD SVG 1.1//EN" "http://www.w3.org/Graphics/SVG/1.1/DTD/svg11.dtd">
<svg version="1.1" xmlns="http://www.w3.org/2000/svg" viewBox="0 0 679.1898961002676 171.68043111077452" width="679.1898961002676" height="171.68043111077452"><!-- svg-source:excalidraw --><metadata></metadata><defs><style class="style-fonts">
      </style></defs><g stroke-linecap="round" transform="translate(37.47197895234001 43.56939806961418) rotate(0 22.68293355221246 22.68293355221246)"><path d="M5.07 8.38 C5.07 8.38, 5.07 8.38, 5.07 8.38 M5.07 8.38 C5.07 8.38, 5.07 8.38, 5.07 8.38 M0.87 19.31 C6.52 12.81, 12.17 6.31, 16.61 1.19 M0.87 19.31 C6.63 12.67, 12.4 6.04, 16.61 1.19 M0.61 25.7 C9.32 15.68, 18.03 5.66, 22.91 0.04 M0.61 25.7 C5.67 19.87, 10.74 14.05, 22.91 0.04 M1.66 30.59 C8.59 22.62, 15.52 14.65, 27.9 0.4 M1.66 30.59 C7.59 23.77, 13.51 16.95, 27.9 0.4 M3.36 34.73 C10.71 26.27, 18.06 17.82, 31.58 2.27 M3.36 34.73 C13.71 22.83, 24.05 10.93, 31.58 2.27 M5.73 38.1 C14.43 28.09, 23.14 18.07, 35.25 4.14 M5.73 38.1 C15.64 26.7, 25.56 15.29, 35.25 4.14 M8.75 40.73 C15.66 32.77, 22.58 24.81, 38.27 6.77 M8.75 40.73 C17.11 31.1, 25.48 21.48, 38.27 6.77 M11.76 43.35 C18.16 36, 24.55 28.64, 41.29 9.39 M11.76 43.35 C17.78 36.43, 23.8 29.5, 41.29 9.39 M16.1 44.47 C26.27 32.76, 36.44 21.06, 43.65 12.77 M16.1 44.47 C24.85 34.39, 33.61 24.32, 43.65 12.77 M20.43 45.58 C28.4 36.42, 36.36 27.25, 44.7 17.66 M20.43 45.58 C26.57 38.51, 32.72 31.45, 44.7 17.66 M26.07 45.19 C33.09 37.11, 40.11 29.03, 45.75 22.55 M26.07 45.19 C30.52 40.07, 34.97 34.95, 45.75 22.55 M33.03 43.28 C35.97 39.9, 38.91 36.51, 44.18 30.45 M33.03 43.28 C35.51 40.43, 37.99 37.57, 44.18 30.45 M7.8 39.8 C7.8 39.8, 7.8 39.8, 7.8 39.8 M7.8 39.8 C7.8 39.8, 7.8 39.8, 7.8 39.8 M19.48 44.65 C12.4 38.49, 5.31 32.33, 1.37 28.91 M19.48 44.65 C12.84 38.88, 6.2 33.11, 1.37 28.91 M25.88 44.91 C20.03 39.83, 14.18 34.74, 0.22 22.61 M25.88 44.91 C16.48 36.75, 7.09 28.58, 0.22 22.61 M30.77 43.86 C24.33 38.27, 17.9 32.67, 0.58 17.62 M30.77 43.86 C23.05 37.15, 15.33 30.44, 0.58 17.62 M34.15 41.5 C25.7 34.15, 17.25 26.81, 2.45 13.95 M34.15 41.5 C21.83 30.79, 9.52 20.09, 2.45 13.95 M37.53 39.14 C25.36 28.56, 13.2 17.99, 4.32 10.27 M37.53 39.14 C25.06 28.3, 12.59 17.46, 4.32 10.27 M40.91 36.78 C31.61 28.69, 22.31 20.61, 6.19 6.6 M40.91 36.78 C31.69 28.77, 22.48 20.76, 6.19 6.6 M42.78 33.1 C35.4 26.69, 28.02 20.28, 9.57 4.23 M42.78 33.1 C31.91 23.65, 21.04 14.21, 9.57 4.23 M44.65 29.43 C35.29 21.29, 25.94 13.16, 12.95 1.87 M44.65 29.43 C37.33 23.06, 30.01 16.7, 12.95 1.87 M45.76 25.09 C37.77 18.15, 29.79 11.21, 17.84 0.82 M45.76 25.09 C39.39 19.56, 33.02 14.02, 17.84 0.82 M45.37 19.45 C39.79 14.61, 34.22 9.76, 22.73 -0.23 M45.37 19.45 C37.79 12.86, 30.21 6.27, 22.73 -0.23 M43.46 12.5 C38.36 8.06, 33.25 3.62, 30.63 1.34 M43.46 12.5 C39.47 9.03, 35.48 5.56, 30.63 1.34" stroke="#1971c2" stroke-width="0.5" fill="none"></path><path d="M45.37 22.68 C45.37 24, 45.25 25.33, 45.02 26.62 C44.79 27.91, 44.45 29.21, 44 30.44 C43.55 31.67, 42.98 32.89, 42.33 34.02 C41.67 35.16, 40.9 36.26, 40.06 37.26 C39.22 38.27, 38.27 39.22, 37.26 40.06 C36.26 40.9, 35.16 41.67, 34.02 42.33 C32.89 42.98, 31.67 43.55, 30.44 44 C29.21 44.45, 27.91 44.79, 26.62 45.02 C25.33 45.25, 24 45.37, 22.68 45.37 C21.37 45.37, 20.04 45.25, 18.74 45.02 C17.45 44.79, 16.16 44.45, 14.92 44 C13.69 43.55, 12.48 42.98, 11.34 42.33 C10.2 41.67, 9.11 40.9, 8.1 40.06 C7.1 39.22, 6.15 38.27, 5.31 37.26 C4.46 36.26, 3.7 35.16, 3.04 34.02 C2.38 32.89, 1.82 31.67, 1.37 30.44 C0.92 29.21, 0.57 27.91, 0.34 26.62 C0.12 25.33, 0 24, 0 22.68 C0 21.37, 0.12 20.04, 0.34 18.74 C0.57 17.45, 0.92 16.16, 1.37 14.92 C1.82 13.69, 2.38 12.48, 3.04 11.34 C3.7 10.2, 4.46 9.11, 5.31 8.1 C6.15 7.1, 7.1 6.15, 8.1 5.31 C9.11 4.46, 10.2 3.7, 11.34 3.04 C12.48 2.38, 13.69 1.82, 14.92 1.37 C16.16 0.92, 17.45 0.57, 18.74 0.34 C20.04 0.12, 21.37 0, 22.68 0 C24 0, 25.33 0.12, 26.62 0.34 C27.91 0.57, 29.21 0.92, 30.44 1.37 C31.67 1.82, 32.89 2.38, 34.02 3.04 C35.16 3.7, 36.26 4.46, 37.26 5.31 C38.27 6.15, 39.22 7.1, 40.06 8.1 C40.9 9.11, 41.67 10.2, 42.33 11.34 C42.98 12.48, 43.55 13.69, 44 14.92 C44.45 16.16, 44.79 17.45, 45.02 18.74 C45.25 20.04, 45.31 22.03, 45.37 22.68 C45.42 23.34, 45.42 22.03, 45.37 22.68" stroke="#1971c2" stroke-width="1" fill="none"></path></g><g stroke-linecap="round"><g transform="translate(29.78737728302241 112.49648077641564) rotate(0 20.31773785166152 10.129753045730808)" fill-rule="evenodd"><path d="M0 0 C0 0, 0 0, 0 0 M0 0 C0 0, 0 0, 0 0 M-12.73 20.74 C-3.67 10.32, 5.38 -0.09, 24.67 -22.28 M-12.73 20.74 C-1.56 7.89, 9.61 -4.96, 24.67 -22.28 M-18.89 33.93 C-4.38 17.23, 10.14 0.53, 30.31 -22.68 M-18.89 33.93 C-7.1 20.36, 4.69 6.8, 30.31 -22.68 M-19.15 40.33 C-2.61 21.29, 13.94 2.25, 33.99 -20.81 M-19.15 40.33 C-3.89 22.76, 11.38 5.2, 33.99 -20.81 M-16.14 42.95 C-0.83 25.34, 14.47 7.74, 37.01 -18.18 M-16.14 42.95 C4.43 19.29, 25 -4.37, 37.01 -18.18 M-12.46 44.82 C0.1 30.37, 12.66 15.92, 39.37 -14.8 M-12.46 44.82 C7.16 22.24, 26.79 -0.33, 39.37 -14.8 M-8.13 45.93 C8.41 26.91, 24.95 7.88, 41.73 -11.42 M-8.13 45.93 C10.72 24.25, 29.57 2.56, 41.73 -11.42 M-3.8 47.05 C13.76 26.85, 31.33 6.64, 43.44 -7.29 M-3.8 47.05 C13.13 27.57, 30.06 8.1, 43.44 -7.29 M1.19 47.41 C17.04 29.17, 32.89 10.94, 45.8 -3.91 M1.19 47.41 C15.97 30.4, 30.75 13.4, 45.8 -3.91 M6.18 47.77 C21.51 30.13, 36.84 12.49, 47.51 0.22 M6.18 47.77 C19.74 32.17, 33.3 16.57, 47.51 0.22 M11.16 48.13 C23.63 33.79, 36.1 19.44, 49.87 3.6 M11.16 48.13 C25.91 31.16, 40.67 14.19, 49.87 3.6 M16.15 48.49 C24.85 38.48, 33.54 28.48, 51.58 7.73 M16.15 48.49 C26.95 36.07, 37.75 23.65, 51.58 7.73 M21.14 48.85 C28.68 40.17, 36.22 31.49, 53.94 11.11 M21.14 48.85 C30.23 38.39, 39.32 27.93, 53.94 11.11 M26.12 49.21 C36.02 37.82, 45.92 26.43, 55.65 15.25 M26.12 49.21 C32.65 41.7, 39.18 34.19, 55.65 15.25 M31.77 48.81 C39.72 39.66, 47.68 30.51, 57.35 19.38 M31.77 48.81 C41.62 37.48, 51.47 26.14, 57.35 19.38 M36.75 49.17 C43.57 41.33, 50.39 33.49, 58.4 24.27 M36.75 49.17 C43.8 41.07, 50.84 32.97, 58.4 24.27 M42.4 48.78 C46.35 44.23, 50.31 39.68, 59.45 29.16 M42.4 48.78 C47.27 43.17, 52.15 37.56, 59.45 29.16 M49.35 46.88 C53.48 42.13, 57.6 37.39, 59.85 34.8 M49.35 46.88 C53.35 42.27, 57.36 37.67, 59.85 34.8 M-17.24 42.69 C-17.24 42.69, -17.24 42.69, -17.24 42.69 M-17.24 42.69 C-17.24 42.69, -17.24 42.69, -17.24 42.69 M-7.82 45.58 C-11.36 42.5, -14.89 39.43, -19.14 35.74 M-7.82 45.58 C-10.86 42.93, -13.9 40.29, -19.14 35.74 M-0.67 46.5 C-4.67 43.01, -8.68 39.53, -18.03 31.41 M-0.67 46.5 C-5.33 42.44, -10 38.38, -18.03 31.41 M6.49 47.41 C-1.72 40.28, -9.93 33.14, -16.91 27.07 M6.49 47.41 C-2.46 39.63, -11.41 31.85, -16.91 27.07 M12.88 47.67 C7.07 42.62, 1.25 37.57, -14.29 24.06 M12.88 47.67 C2.25 38.43, -8.38 29.19, -14.29 24.06 M20.04 48.59 C9.64 39.56, -0.75 30.52, -12.42 20.38 M20.04 48.59 C12.45 42, 4.87 35.4, -12.42 20.38 M25.68 48.2 C16.73 40.42, 7.79 32.65, -10.55 16.71 M25.68 48.2 C11.65 36, -2.38 23.81, -10.55 16.71 M32.08 48.46 C17.4 35.7, 2.72 22.94, -7.92 13.69 M32.08 48.46 C22.13 39.81, 12.18 31.17, -7.92 13.69 M37.72 48.06 C21.61 34.06, 5.5 20.06, -6.05 10.01 M37.72 48.06 C23.89 36.04, 10.05 24.01, -6.05 10.01 M43.36 47.67 C25.71 32.32, 8.06 16.98, -4.18 6.34 M43.36 47.67 C25.8 32.4, 8.23 17.13, -4.18 6.34 M48.25 46.62 C35.8 35.79, 23.35 24.97, -1.56 3.32 M48.25 46.62 C35.67 35.69, 23.1 24.75, -1.56 3.32 M53.14 45.57 C34.74 29.57, 16.33 13.57, 0.31 -0.36 M53.14 45.57 C39.74 33.92, 26.35 22.28, 0.31 -0.36 M56.52 43.21 C45.79 33.88, 35.07 24.56, 2.93 -3.37 M56.52 43.21 C41.14 29.83, 25.75 16.46, 2.93 -3.37 M59.14 40.19 C45.88 28.65, 32.61 17.12, 5.56 -6.39 M59.14 40.19 C44.43 27.4, 29.73 14.61, 5.56 -6.39 M60.26 35.86 C41.78 19.79, 23.31 3.73, 8.94 -8.76 M60.26 35.86 C43.53 21.32, 26.81 6.78, 8.94 -8.76 M59.86 30.21 C42.83 15.4, 25.79 0.6, 11.56 -11.78 M59.86 30.21 C44.36 16.73, 28.85 3.25, 11.56 -11.78 M57.96 23.26 C44.59 11.63, 31.22 0.01, 14.19 -14.79 M57.96 23.26 C45.23 12.2, 32.51 1.13, 14.19 -14.79 M56.05 16.3 C45.21 6.88, 34.37 -2.55, 17.56 -17.16 M56.05 16.3 C40.74 2.99, 25.43 -10.32, 17.56 -17.16 M52.64 8.03 C44.82 1.23, 36.99 -5.57, 20.94 -19.52 M52.64 8.03 C42.54 -0.75, 32.43 -9.53, 20.94 -19.52 M47.72 -1.54 C38.66 -9.42, 29.6 -17.3, 24.32 -21.88 M47.72 -1.54 C42.46 -6.12, 37.19 -10.69, 24.32 -21.88 M42.8 -11.12 C39.51 -13.98, 36.23 -16.83, 28.46 -23.59 M42.8 -11.12 C37.59 -15.65, 32.38 -20.18, 28.46 -23.59" stroke="#1971c2" stroke-width="0.5" fill="none"></path><path d="M0 0 C-2.92 7.07, -27.21 35.38, -17.52 42.45 C-7.82 49.52, 49.75 53.18, 58.15 42.4 C66.55 31.63, 42.57 -15.12, 32.87 -22.19 C23.18 -29.26, 5.48 -3.7, 0 0 M0 0 C-2.92 7.07, -27.21 35.38, -17.52 42.45 C-7.82 49.52, 49.75 53.18, 58.15 42.4 C66.55 31.63, 42.57 -15.12, 32.87 -22.19 C23.18 -29.26, 5.48 -3.7, 0 0" stroke="#1971c2" stroke-width="1" fill="none"></path></g></g><mask></mask><g stroke-linecap="round"><g transform="translate(85.45049836207943 68.28289013296336) rotate(0 259.27282802574956 36.75547288019112)"><path d="M0 0 C174.18 24.69, 348.36 49.38, 518.55 73.51" stroke="#1971c2" stroke-width="2.5" fill="none" stroke-dasharray="8 10"></path></g><g transform="translate(85.45049836207943 68.28289013296336) rotate(0 259.27282802574956 36.75547288019112)"><path d="M518.55 73.51 L504.2 77.88 L505.98 65.33 L518.55 73.51" stroke="none" stroke-width="0" fill="#1971c2" fill-rule="evenodd"></path><path d="M518.55 73.51 C513.73 74.98, 508.91 76.45, 504.2 77.88 M504.2 77.88 C504.62 74.9, 505.04 71.92, 505.98 65.33 M505.98 65.33 C508.53 66.99, 511.09 68.66, 518.55 73.51 M518.55 73.51 C518.55 73.51, 518.55 73.51, 518.55 73.51" stroke="#1971c2" stroke-width="2.5" fill="none"></path></g></g><mask></mask><g transform="translate(298.26813560026756 108.72496154886716) rotate(8.886147437979238 40 13.5)"><text x="0" y="20.08" font-family="Nunito, Segoe UI Emoji" font-size="20px" fill="#343a40" text-anchor="start" style="white-space: pre;" direction="ltr" dominant-baseline="alphabetic">見えない</text></g><g transform="translate(619.4535687252675 132.50777429886716) rotate(0 11.5 14.586328124999994)"><text x="0" y="21.695812499999995" font-family="Nunito, Segoe UI Emoji" font-size="21.609374999999993px" fill="#c2255c" text-anchor="start" style="white-space: pre;" direction="ltr" dominant-baseline="alphabetic">🐜</text></g><g transform="translate(592.7172398502676 10) rotate(0 38.236328125 51.55278439943359)"><text x="0" y="76.67999338819455" font-family="Nunito, Segoe UI Emoji" font-size="76.37449540656827px" fill="#c2255c" text-anchor="start" style="white-space: pre;" direction="ltr" dominant-baseline="alphabetic">🐈</text></g><g stroke-linecap="round"><g transform="translate(85.8360349458203 61.557454295854825) rotate(0 247.60661807722363 0.055085914404031655)"><path d="M0 0 C114.28 0.03, 228.57 0.05, 495.21 0.11" stroke="#1971c2" stroke-width="2.5" fill="none" stroke-dasharray="8 10"></path></g><g transform="translate(85.8360349458203 61.557454295854825) rotate(0 247.60661807722363 0.055085914404031655)"><path d="M495.21 0.11 L481.62 6.45 L481.62 -6.23 L495.21 0.11" stroke="none" stroke-width="0" fill="#1971c2" fill-rule="evenodd"></path><path d="M495.21 0.11 C492.08 1.57, 488.94 3.03, 481.62 6.45 M481.62 6.45 C481.62 1.92, 481.62 -2.61, 481.62 -6.23 M481.62 -6.23 C486.03 -4.17, 490.45 -2.11, 495.21 0.11 M495.21 0.11 C495.21 0.11, 495.21 0.11, 495.21 0.11" stroke="#1971c2" stroke-width="2.5" fill="none"></path></g></g><mask></mask><g stroke-linecap="round"><g transform="translate(458.0618120797923 81.26233471458636) rotate(0 26.66027280477374 -24.29359666571918)" fill-rule="evenodd"><path d="M0 0 L38.77 22.05 L52.89 13.62 L53.37 -47.72 L14.07 -70.64 L-0.05 -61.62 L0 0" stroke="none" stroke-width="0" fill="#ced4da" fill-rule="evenodd"></path><path d="M0 0 C12.78 7.27, 25.55 14.53, 38.77 22.05 M0 0 C12.92 7.35, 25.85 14.7, 38.77 22.05 M38.77 22.05 C43.74 19.09, 48.7 16.13, 52.89 13.62 M38.77 22.05 C42.48 19.84, 46.18 17.63, 52.89 13.62 M52.89 13.62 C53.01 -1.53, 53.13 -16.69, 53.37 -47.72 M52.89 13.62 C53.07 -9.07, 53.25 -31.76, 53.37 -47.72 M53.37 -47.72 C40.76 -55.07, 28.16 -62.42, 14.07 -70.64 M53.37 -47.72 C39.22 -55.97, 25.08 -64.22, 14.07 -70.64 M14.07 -70.64 C8.48 -67.07, 2.9 -63.5, -0.05 -61.62 M14.07 -70.64 C8.83 -67.29, 3.59 -63.95, -0.05 -61.62 M-0.05 -61.62 C-0.04 -45.75, -0.02 -29.89, 0 0 M-0.05 -61.62 C-0.04 -47.27, -0.03 -32.92, 0 0 M0 0 C0 0, 0 0, 0 0 M0 0 C0 0, 0 0, 0 0" stroke="#495057" stroke-width="2" fill="none"></path></g></g><mask></mask><g stroke-linecap="round"><g transform="translate(458.1121014742904 19.73712766420249) rotate(0 19.765625 41.58288043478251)"><path d="M0 0 C11.14 6.56, 22.27 13.12, 39.53 23.28 M0 0 C11.76 6.93, 23.52 13.85, 39.53 23.28 M39.53 23.28 C39.4 41.77, 39.26 60.26, 39.1 83.17 M39.53 23.28 C39.36 47.21, 39.18 71.13, 39.1 83.17" stroke="#495057" stroke-width="2" fill="none"></path></g></g><mask></mask><g stroke-linecap="round"><g transform="translate(497.8607427786384 42.767018968550474) rotate(0 6.689967105263349 -4.255756578947285)"><path d="M0 0 C4.47 -2.84, 8.94 -5.69, 13.38 -8.51 M0 0 C3.71 -2.36, 7.42 -4.72, 13.38 -8.51" stroke="#495057" stroke-width="2" fill="none"></path></g></g><mask></mask><g stroke-linecap="round"><g transform="translate(457.8546644033519 71.87171004406537) rotate(0 26.294518525839635 11.509046052631675)"><path d="M0 0 C10.76 6.33, 21.53 12.66, 39.14 23.02 M0 0 C13.74 8.08, 27.47 16.16, 39.14 23.02 M39.14 23.02 C43.38 20.3, 47.61 17.58, 52.59 14.39 M39.14 23.02 C43.49 20.23, 47.84 17.44, 52.59 14.39" stroke="#495057" stroke-width="2" fill="none"></path></g></g><mask></mask><g stroke-linecap="round"><g transform="translate(458.59265067337503 52.23784276717652) rotate(0 26.34886635192663 11.509046052631675)"><path d="M0 0 C8.02 4.72, 16.05 9.44, 39.14 23.02 M0 0 C13.26 7.8, 26.51 15.59, 39.14 23.02 M39.14 23.02 C43.63 20.16, 48.13 17.3, 52.7 14.39 M39.14 23.02 C44.21 19.79, 49.29 16.56, 52.7 14.39" stroke="#495057" stroke-width="2" fill="none"></path></g></g><mask></mask><g stroke-linecap="round"><g transform="translate(458.07205570769986 41.37971919738311) rotate(0 26.185822873665643 11.509046052631675)"><path d="M0 0 C13.44 7.9, 26.87 15.81, 39.14 23.02 M0 0 C11.53 6.78, 23.05 13.56, 39.14 23.02 M39.14 23.02 C43.57 20.2, 48 17.39, 52.37 14.61 M39.14 23.02 C41.99 21.21, 44.84 19.4, 52.37 14.61" stroke="#495057" stroke-width="2" fill="none"></path></g></g><mask></mask><g stroke-linecap="round"><g transform="translate(458.07205570769986 31.086813018893736) rotate(0 26.24017069975264 11.509046052631675)"><path d="M0 0 C9.15 5.38, 18.3 10.76, 39.14 23.02 M0 0 C7.86 4.62, 15.72 9.25, 39.14 23.02 M39.14 23.02 C43.37 20.31, 47.61 17.61, 52.48 14.5 M39.14 23.02 C43.84 20.02, 48.54 17.01, 52.48 14.5" stroke="#495057" stroke-width="2" fill="none"></path></g></g><mask></mask><g stroke-linecap="round"><g transform="translate(470.77744041481094 37.34189682233318) rotate(0 6.827560795873296 -9.279661016949149)"><path d="M0 0 C-0.04 -3.72, -0.09 -7.45, -0.12 -10.59 M0 0 C-0.03 -2.78, -0.06 -5.56, -0.12 -10.59 M-0.12 -10.59 C3.31 -12.56, 6.75 -14.53, 13.78 -18.56 M-0.12 -10.59 C5.02 -13.54, 10.16 -16.49, 13.78 -18.56" stroke="#495057" stroke-width="2" fill="none"></path></g></g><mask></mask><g stroke-linecap="round"><g transform="translate(487.8629230971993 47.60350330722622) rotate(0 6.962048636698228 -9.666543846721197)"><path d="M0 0 C-0.05 -3.32, -0.1 -6.63, -0.17 -10.74 M0 0 C-0.07 -4.29, -0.14 -8.58, -0.17 -10.74 M-0.17 -10.74 C3.71 -13.07, 7.58 -15.41, 14.09 -19.33 M-0.17 -10.74 C3.02 -12.66, 6.21 -14.58, 14.09 -19.33" stroke="#495057" stroke-width="2" fill="none"></path></g></g><mask></mask><g stroke-linecap="round"><g transform="translate(465.35371160125135 35.93806484001834) rotate(0 0.02394988946207377 4.39941046425929)"><path d="M0 0 C0.01 2.3, 0.03 4.6, 0.05 8.8 M0 0 C0.02 3.01, 0.03 6.02, 0.05 8.8" stroke="#495057" stroke-width="2" fill="none"></path></g></g><mask></mask><g stroke-linecap="round"><g transform="translate(482.74501594907827 46.15545614436678) rotate(0 0.02394988946207377 4.39941046425929)"><path d="M0 0 C0.02 2.77, 0.03 5.55, 0.05 8.8 M0 0 C0.02 2.85, 0.03 5.69, 0.05 8.8" stroke="#495057" stroke-width="2" fill="none"></path></g></g><mask></mask><g stroke-linecap="round"><g transform="translate(458.37525936902705 62.67262537587294) rotate(0 26.34886635192663 11.509046052631675)"><path d="M0 0 C12.98 7.63, 25.95 15.26, 39.14 23.02 M0 0 C14.65 8.62, 29.3 17.23, 39.14 23.02 M39.14 23.02 C42.51 20.87, 45.89 18.73, 52.7 14.39 M39.14 23.02 C43.4 20.31, 47.67 17.59, 52.7 14.39" stroke="#495057" stroke-width="2" fill="none"></path></g></g><mask></mask><g stroke-linecap="round"><g transform="translate(487.0928420360343 58.98154310088876) rotate(0 0.02394988946207377 4.39941046425929)"><path d="M0 0 C0.02 2.95, 0.03 5.89, 0.05 8.8 M0 0 C0.01 1.89, 0.02 3.79, 0.05 8.8" stroke="#495057" stroke-width="2" fill="none"></path></g></g><mask></mask><g stroke-linecap="round"><g transform="translate(470.1363202969043 50.28589092697575) rotate(0 0.02394988946207377 3.8559322033897843)"><path d="M0 0 C0.02 2.45, 0.03 4.9, 0.05 7.71 M0 0 C0.02 2.72, 0.03 5.44, 0.05 7.71" stroke="#495057" stroke-width="2" fill="none"></path></g></g><mask></mask><g stroke-linecap="round"><g transform="translate(481.44066812299127 65.50328223132328) rotate(0 0.02394988946207377 4.39941046425929)"><path d="M0 0 C0.01 2.17, 0.02 4.35, 0.05 8.8 M0 0 C0.02 3.25, 0.04 6.51, 0.05 8.8" stroke="#495057" stroke-width="2" fill="none"></path></g></g><mask></mask><g stroke-linecap="round"><g transform="translate(464.26675507951325 56.37284744871522) rotate(0 0.02394988946207377 4.39941046425929)"><path d="M0 0 C0.01 2.39, 0.03 4.78, 0.05 8.8 M0 0 C0.01 1.97, 0.02 3.94, 0.05 8.8" stroke="#495057" stroke-width="2" fill="none"></path></g></g><mask></mask><g stroke-linecap="round"><g transform="translate(470.57110290560024 70.72067353567127) rotate(0 0.02394988946207377 4.39941046425929)"><path d="M0 0 C0.02 2.88, 0.03 5.76, 0.05 8.8 M0 0 C0.02 2.95, 0.03 5.91, 0.05 8.8" stroke="#495057" stroke-width="2" fill="none"></path></g></g><mask></mask><g stroke-linecap="round"><g transform="translate(486.0058855142953 79.19893440523629) rotate(0 0.02394988946207377 4.0733235077377685)"><path d="M0 0 C0.02 2.8, 0.03 5.6, 0.05 8.15 M0 0 C0.01 2.34, 0.03 4.69, 0.05 8.15" stroke="#495057" stroke-width="2" fill="none"></path></g></g><mask></mask><g stroke-linecap="round"><g transform="translate(481.0058855142953 85.50328223132374) rotate(0 0.02394988946207377 3.8559322033897843)"><path d="M0 0 C0.01 1.92, 0.02 3.84, 0.05 7.71 M0 0 C0.02 2.42, 0.03 4.85, 0.05 7.71" stroke="#495057" stroke-width="2" fill="none"></path></g></g><mask></mask><g stroke-linecap="round"><g transform="translate(464.9189289925563 77.02502136175872) rotate(0 0.02394988946207377 3.8559322033897843)"><path d="M0 0 C0.02 2.92, 0.04 5.84, 0.05 7.71 M0 0 C0.02 3.07, 0.04 6.14, 0.05 7.71" stroke="#495057" stroke-width="2" fill="none"></path></g></g><mask></mask><g transform="translate(282.8343282668659 30.069397748268727) rotate(0 50 13.5)"><text x="0" y="20.08" font-family="Nunito, Segoe UI Emoji" font-size="20px" fill="#343a40" text-anchor="start" style="white-space: pre;" direction="ltr" dominant-baseline="alphabetic">見られない</text></g></svg>