<?xml version="1.0" standalone="no"?>
<!DOCTYPE svg PUBLIC "-//W3C//DTD SVG 1.1//EN" "http://www.w3.org/Graphics/SVG/1.1/DTD/svg11.dtd">
<svg version="1.1" xmlns="http://www.w3.org/2000/svg" viewBox="0 0 627.8266230387103 351.3111628239508" width="627.8266230387103" height="351.3111628239508"><!-- svg-source:excalidraw --><metadata></metadata><defs><style class="style-fonts">
      </style></defs><g stroke-linecap="round" transform="translate(130.9387632579319 172.20427423415867) rotate(0 213.8214431849002 22.5)"><path d="M2.99 2.6 C2.99 2.6, 2.99 2.6, 2.99 2.6 M2.99 2.6 C2.99 2.6, 2.99 2.6, 2.99 2.6 M0.5 17.66 C5.76 11.62, 11.01 5.58, 15.59 0.3 M0.5 17.66 C6.46 10.81, 12.42 3.96, 15.59 0.3 M0.64 29.7 C9.06 20.02, 17.47 10.33, 26.22 0.27 M0.64 29.7 C7.74 21.53, 14.84 13.36, 26.22 0.27 M2.08 40.24 C12.85 27.85, 23.62 15.46, 36.85 0.24 M2.08 40.24 C14.11 26.4, 26.14 12.56, 36.85 0.24 M8.78 44.73 C22.28 29.19, 35.79 13.65, 47.48 0.2 M8.78 44.73 C20.92 30.76, 33.07 16.78, 47.48 0.2 M18.75 45.45 C34.4 27.45, 50.05 9.44, 58.11 0.17 M18.75 45.45 C31.65 30.61, 44.55 15.77, 58.11 0.17 M29.38 45.41 C39.17 34.15, 48.97 22.88, 68.74 0.13 M29.38 45.41 C37.94 35.57, 46.5 25.72, 68.74 0.13 M40.01 45.38 C51.34 32.35, 62.67 19.31, 79.37 0.1 M40.01 45.38 C53.59 29.75, 67.18 14.12, 79.37 0.1 M50.64 45.35 C60.18 34.38, 69.71 23.41, 90 0.06 M50.64 45.35 C60.72 33.75, 70.8 22.16, 90 0.06 M61.27 45.31 C74.33 30.29, 87.38 15.27, 100.63 0.03 M61.27 45.31 C74.19 30.45, 87.1 15.59, 100.63 0.03 M71.9 45.28 C80.48 35.4, 89.06 25.53, 111.26 -0.01 M71.9 45.28 C80.65 35.21, 89.39 25.15, 111.26 -0.01 M81.87 46 C96.09 29.64, 110.31 13.28, 121.89 -0.04 M81.87 46 C95.16 30.72, 108.44 15.44, 121.89 -0.04 M92.5 45.96 C105.88 30.58, 119.25 15.19, 131.87 0.68 M92.5 45.96 C101.7 35.39, 110.89 24.81, 131.87 0.68 M103.13 45.93 C113.36 34.16, 123.59 22.4, 142.5 0.65 M103.13 45.93 C116.38 30.69, 129.62 15.46, 142.5 0.65 M113.76 45.89 C123.45 34.75, 133.14 23.6, 153.13 0.61 M113.76 45.89 C126.86 30.83, 139.95 15.77, 153.13 0.61 M124.39 45.86 C133.11 35.83, 141.83 25.8, 163.76 0.58 M124.39 45.86 C134.11 34.68, 143.83 23.5, 163.76 0.58 M135.02 45.82 C144.9 34.47, 154.77 23.11, 174.39 0.54 M135.02 45.82 C146.32 32.83, 157.61 19.84, 174.39 0.54 M145.65 45.79 C157.12 32.6, 168.59 19.41, 185.02 0.51 M145.65 45.79 C157.2 32.51, 168.74 19.23, 185.02 0.51 M156.28 45.76 C169.76 30.25, 183.24 14.74, 195.65 0.47 M156.28 45.76 C171.6 28.13, 186.92 10.51, 195.65 0.47 M166.91 45.72 C182.49 27.8, 198.06 9.89, 206.28 0.44 M166.91 45.72 C176 35.27, 185.08 24.83, 206.28 0.44 M177.54 45.69 C192.69 28.26, 207.84 10.84, 216.91 0.4 M177.54 45.69 C187.66 34.05, 197.77 22.42, 216.91 0.4 M188.17 45.65 C201.39 30.45, 214.6 15.26, 227.54 0.37 M188.17 45.65 C201.53 30.29, 214.89 14.92, 227.54 0.37 M198.81 45.62 C211.26 31.29, 223.71 16.96, 238.17 0.33 M198.81 45.62 C207.96 35.08, 217.12 24.55, 238.17 0.33 M209.44 45.58 C224.68 28.04, 239.93 10.5, 248.8 0.3 M209.44 45.58 C218.26 35.44, 227.08 25.29, 248.8 0.3 M220.07 45.55 C233.88 29.65, 247.7 13.76, 259.43 0.27 M220.07 45.55 C235.18 28.16, 250.29 10.78, 259.43 0.27 M230.7 45.51 C242.58 31.84, 254.47 18.16, 270.06 0.23 M230.7 45.51 C239.16 35.77, 247.63 26.03, 270.06 0.23 M241.33 45.48 C256.18 28.39, 271.03 11.31, 280.69 0.2 M241.33 45.48 C253.27 31.74, 265.22 17.99, 280.69 0.2 M251.96 45.44 C264 31.59, 276.04 17.74, 291.32 0.16 M251.96 45.44 C266.42 28.8, 280.89 12.16, 291.32 0.16 M262.59 45.41 C276.72 29.16, 290.84 12.9, 301.95 0.13 M262.59 45.41 C274.74 31.43, 286.9 17.44, 301.95 0.13 M273.22 45.38 C285.02 31.79, 296.83 18.21, 312.58 0.09 M273.22 45.38 C283.51 33.54, 293.8 21.7, 312.58 0.09 M283.85 45.34 C297.02 30.19, 310.19 15.04, 323.21 0.06 M283.85 45.34 C293.39 34.36, 302.94 23.38, 323.21 0.06 M294.48 45.31 C304.73 33.51, 314.99 21.71, 333.84 0.02 M294.48 45.31 C302.42 36.17, 310.36 27.03, 333.84 0.02 M305.11 45.27 C313.68 35.4, 322.26 25.53, 344.47 -0.01 M305.11 45.27 C315.82 32.95, 326.53 20.63, 344.47 -0.01 M315.08 45.99 C324.64 35, 334.2 24, 355.1 -0.04 M315.08 45.99 C323.84 35.92, 332.59 25.85, 355.1 -0.04 M325.71 45.96 C341.36 27.95, 357.01 9.95, 365.07 0.68 M325.71 45.96 C337.13 32.82, 348.56 19.68, 365.07 0.68 M336.34 45.92 C350.55 29.58, 364.75 13.24, 375.7 0.64 M336.34 45.92 C346.87 33.81, 357.39 21.7, 375.7 0.64 M346.97 45.89 C360.25 30.61, 373.53 15.34, 386.33 0.61 M346.97 45.89 C359.35 31.65, 371.72 17.42, 386.33 0.61 M357.6 45.85 C366.57 35.53, 375.55 25.21, 396.96 0.57 M357.6 45.85 C366.57 35.54, 375.53 25.22, 396.96 0.57 M368.23 45.82 C383.02 28.8, 397.81 11.79, 407.59 0.54 M368.23 45.82 C379.54 32.81, 390.84 19.81, 407.59 0.54 M378.86 45.79 C391.31 31.47, 403.75 17.15, 418.22 0.5 M378.86 45.79 C390.87 31.97, 402.87 18.16, 418.22 0.5 M389.49 45.75 C401.27 32.2, 413.06 18.64, 425.57 4.24 M389.49 45.75 C399.46 34.28, 409.43 22.81, 425.57 4.24 M400.12 45.72 C410.75 33.49, 421.37 21.27, 428.33 13.26 M400.12 45.72 C406.58 38.28, 413.05 30.84, 428.33 13.26 M410.75 45.68 C415.68 40.01, 420.61 34.34, 428.46 25.31 M410.75 45.68 C415.61 40.09, 420.47 34.51, 428.46 25.31 M422.04 44.89 C423.27 43.47, 424.51 42.05, 427.29 38.86 M422.04 44.89 C423.38 43.35, 424.72 41.81, 427.29 38.86" stroke="#fff0f6" stroke-width="1" fill="none"></path><path d="M11.25 0 C141.72 0, 272.19 0, 416.39 0 M11.25 0 C157.55 0, 303.84 0, 416.39 0 M416.39 0 C423.89 0, 427.64 3.75, 427.64 11.25 M416.39 0 C423.89 0, 427.64 3.75, 427.64 11.25 M427.64 11.25 C427.64 20.14, 427.64 29.03, 427.64 33.75 M427.64 11.25 C427.64 18.13, 427.64 25, 427.64 33.75 M427.64 33.75 C427.64 41.25, 423.89 45, 416.39 45 M427.64 33.75 C427.64 41.25, 423.89 45, 416.39 45 M416.39 45 C321.16 45, 225.93 45, 11.25 45 M416.39 45 C329.61 45, 242.82 45, 11.25 45 M11.25 45 C3.75 45, 0 41.25, 0 33.75 M11.25 45 C3.75 45, 0 41.25, 0 33.75 M0 33.75 C0 27.65, 0 21.55, 0 11.25 M0 33.75 C0 25.97, 0 18.2, 0 11.25 M0 11.25 C0 3.75, 3.75 0, 11.25 0 M0 11.25 C0 3.75, 3.75 0, 11.25 0" stroke="#c2255c" stroke-width="2" fill="none"></path></g><g transform="translate(274.760206442832 177.20427423415867) rotate(0 70 17.5)"><text x="70" y="26.712" font-family="Nunito, sans-serif, Segoe UI Emoji" font-size="28px" fill="#c2255c" text-anchor="middle" style="white-space: pre;" direction="ltr" dominant-baseline="alphabetic">割れている</text></g><g stroke-linecap="round" transform="translate(130.93876271381168 227.37428912957523) rotate(0 133.4067959209508 22.499999999999943)"><path d="M2.99 2.6 C2.99 2.6, 2.99 2.6, 2.99 2.6 M2.99 2.6 C2.99 2.6, 2.99 2.6, 2.99 2.6 M0.5 17.66 C5.69 11.69, 10.88 5.73, 15.59 0.3 M0.5 17.66 C4.25 13.35, 8 9.04, 15.59 0.3 M0.64 29.7 C8.98 20.11, 17.32 10.51, 26.22 0.27 M0.64 29.7 C6.48 22.98, 12.33 16.25, 26.22 0.27 M2.08 40.24 C10.63 30.4, 19.18 20.57, 36.85 0.24 M2.08 40.24 C9.85 31.3, 17.62 22.36, 36.85 0.24 M8.78 44.73 C22.44 29.02, 36.09 13.3, 47.48 0.2 M8.78 44.73 C20.64 31.08, 32.5 17.44, 47.48 0.2 M18.75 45.45 C30.11 32.38, 41.47 19.31, 58.11 0.17 M18.75 45.45 C29.91 32.61, 41.07 19.78, 58.11 0.17 M29.38 45.41 C38.7 34.7, 48.01 23.98, 68.74 0.13 M29.38 45.41 C42.9 29.86, 56.43 14.3, 68.74 0.13 M40.01 45.38 C50.76 33.01, 61.52 20.64, 79.37 0.1 M40.01 45.38 C52.15 31.42, 64.29 17.45, 79.37 0.1 M50.64 45.35 C63.08 31.03, 75.52 16.72, 90 0.06 M50.64 45.35 C61.76 32.55, 72.88 19.76, 90 0.06 M61.27 45.31 C72.13 32.82, 82.98 20.34, 100.63 0.03 M61.27 45.31 C73.21 31.58, 85.14 17.85, 100.63 0.03 M71.9 45.28 C79.96 36.01, 88.02 26.74, 111.26 -0.01 M71.9 45.28 C87.28 27.58, 102.66 9.89, 111.26 -0.01 M81.87 46 C91.78 34.6, 101.69 23.2, 121.89 -0.04 M81.87 46 C97.81 27.67, 113.74 9.34, 121.89 -0.04 M92.5 45.96 C107.91 28.24, 123.31 10.53, 131.87 0.68 M92.5 45.96 C102.78 34.14, 113.05 22.33, 131.87 0.68 M103.13 45.93 C111.59 36.2, 120.05 26.47, 142.5 0.65 M103.13 45.93 C112.9 34.69, 122.66 23.46, 142.5 0.65 M113.76 45.89 C123.19 35.05, 132.61 24.21, 153.13 0.61 M113.76 45.89 C122.06 36.35, 130.36 26.81, 153.13 0.61 M124.39 45.86 C135.36 33.25, 146.32 20.63, 163.76 0.58 M124.39 45.86 C133.58 35.3, 142.76 24.74, 163.76 0.58 M135.02 45.82 C150.29 28.26, 165.56 10.7, 174.39 0.54 M135.02 45.82 C146.15 33.03, 157.27 20.23, 174.39 0.54 M145.65 45.79 C154.12 36.05, 162.58 26.32, 185.02 0.51 M145.65 45.79 C155.84 34.08, 166.02 22.36, 185.02 0.51 M156.28 45.76 C170.07 29.9, 183.85 14.04, 195.65 0.47 M156.28 45.76 C165.89 34.7, 175.5 23.65, 195.65 0.47 M166.91 45.72 C177.76 33.25, 188.6 20.78, 206.28 0.44 M166.91 45.72 C180.87 29.67, 194.82 13.62, 206.28 0.44 M177.54 45.69 C189.95 31.42, 202.35 17.15, 216.91 0.4 M177.54 45.69 C192.81 28.12, 208.08 10.55, 216.91 0.4 M188.17 45.65 C203.36 28.18, 218.55 10.71, 227.54 0.37 M188.17 45.65 C199.03 33.17, 209.88 20.69, 227.54 0.37 M198.81 45.62 C212.44 29.93, 226.07 14.25, 238.17 0.33 M198.81 45.62 C211.86 30.6, 224.91 15.59, 238.17 0.33 M209.44 45.58 C223.11 29.85, 236.79 14.11, 248.8 0.3 M209.44 45.58 C221.34 31.89, 233.24 18.2, 248.8 0.3 M220.07 45.55 C235.12 28.23, 250.18 10.91, 259.43 0.27 M220.07 45.55 C228.63 35.7, 237.19 25.84, 259.43 0.27 M230.7 45.51 C238.92 36.05, 247.15 26.59, 265.47 5.51 M230.7 45.51 C239.03 35.93, 247.36 26.34, 265.47 5.51 M241.33 45.48 C247.4 38.49, 253.47 31.51, 266.91 16.05 M241.33 45.48 C249.35 36.25, 257.37 27.02, 266.91 16.05 M251.96 45.44 C255.04 41.9, 258.12 38.35, 267.04 28.09 M251.96 45.44 C255.24 41.67, 258.52 37.89, 267.04 28.09" stroke="#e7f5ff" stroke-width="1" fill="none"></path><path d="M11.25 0 C60.24 0, 109.23 0, 255.56 0 M11.25 0 C67.53 0, 123.81 0, 255.56 0 M255.56 0 C263.06 0, 266.81 3.75, 266.81 11.25 M255.56 0 C263.06 0, 266.81 3.75, 266.81 11.25 M266.81 11.25 C266.81 20.11, 266.81 28.98, 266.81 33.75 M266.81 11.25 C266.81 17.5, 266.81 23.74, 266.81 33.75 M266.81 33.75 C266.81 41.25, 263.06 45, 255.56 45 M266.81 33.75 C266.81 41.25, 263.06 45, 255.56 45 M255.56 45 C170.31 45, 85.06 45, 11.25 45 M255.56 45 C170.36 45, 85.16 45, 11.25 45 M11.25 45 C3.75 45, 0 41.25, 0 33.75 M11.25 45 C3.75 45, 0 41.25, 0 33.75 M0 33.75 C0 25.91, 0 18.07, 0 11.25 M0 33.75 C0 24.77, 0 15.79, 0 11.25 M0 11.25 C0 3.75, 3.75 0, 11.25 0 M0 11.25 C0 3.75, 3.75 0, 11.25 0" stroke="#1971c2" stroke-width="2" fill="none"></path></g><g transform="translate(194.34555863476226 232.37428912957523) rotate(0 70 17.5)"><text x="70" y="26.712" font-family="Nunito, sans-serif, Segoe UI Emoji" font-size="28px" fill="#1971c2" text-anchor="middle" style="white-space: pre;" direction="ltr" dominant-baseline="alphabetic">割れていた</text></g><g stroke-linecap="round"><g transform="translate(10 289.3427261551567) rotate(0 303.9133111621122 1.1368683772161603e-13)"><path d="M0 0 C194.68 0, 389.35 0, 607.83 0 M0 0 C206.07 0, 412.15 0, 607.83 0" stroke="#343a40" stroke-width="2" fill="none"></path></g><g transform="translate(10 289.3427261551567) rotate(0 303.9133111621122 1.1368683772161603e-13)"><path d="M607.83 0 L594.23 6.34 L594.23 -6.34 L607.83 0" stroke="none" stroke-width="0" fill="#343a40" fill-rule="evenodd"></path><path d="M607.83 0 C603.47 2.03, 599.12 4.06, 594.23 6.34 M607.83 0 C603.22 2.15, 598.61 4.3, 594.23 6.34 M594.23 6.34 C594.23 2.33, 594.23 -1.68, 594.23 -6.34 M594.23 6.34 C594.23 3.68, 594.23 1.02, 594.23 -6.34 M594.23 -6.34 C598.05 -4.56, 601.87 -2.78, 607.83 0 M594.23 -6.34 C597.68 -4.73, 601.13 -3.12, 607.83 0 M607.83 0 C607.83 0, 607.83 0, 607.83 0 M607.83 0 C607.83 0, 607.83 0, 607.83 0" stroke="#343a40" stroke-width="2" fill="none"></path></g></g><mask></mask><g transform="translate(476.2281762991515 306.3111627483747) rotate(0 14 17.5)"><text x="14" y="26.712" font-family="Nunito, sans-serif, Segoe UI Emoji" font-size="28px" fill="#343a40" text-anchor="middle" style="white-space: pre;" direction="ltr" dominant-baseline="alphabetic">今</text></g><g transform="translate(95.59844672392 306.3111628239508) rotate(0 42 17.5)"><text x="42" y="26.712" font-family="Nunito, sans-serif, Segoe UI Emoji" font-size="28px" fill="#343a40" text-anchor="middle" style="white-space: pre;" direction="ltr" dominant-baseline="alphabetic">割れた</text></g><g transform="translate(243.91331144580636 306.3111627114813) rotate(0 70 17.5)"><text x="70" y="26.712" font-family="Nunito, sans-serif, Segoe UI Emoji" font-size="28px" fill="#343a40" text-anchor="middle" style="white-space: pre;" direction="ltr" dominant-baseline="alphabetic">入ったとき</text></g><g stroke-linecap="round" transform="translate(130.93876306701713 282.5443045755003) rotate(0 6.6596837900256105 6.798421480934962)"><path d="M13.32 6.8 C13.32 7.19, 13.29 7.59, 13.22 7.98 C13.15 8.37, 13.05 8.75, 12.92 9.12 C12.79 9.49, 12.62 9.86, 12.43 10.2 C12.23 10.54, 12.01 10.87, 11.76 11.17 C11.51 11.47, 11.24 11.75, 10.94 12.01 C10.65 12.26, 10.32 12.49, 9.99 12.69 C9.66 12.88, 9.3 13.05, 8.94 13.19 C8.58 13.32, 8.2 13.43, 7.82 13.49 C7.44 13.56, 7.05 13.6, 6.66 13.6 C6.27 13.6, 5.88 13.56, 5.5 13.49 C5.12 13.43, 4.74 13.32, 4.38 13.19 C4.02 13.05, 3.66 12.88, 3.33 12.69 C3 12.49, 2.67 12.26, 2.38 12.01 C2.08 11.75, 1.81 11.47, 1.56 11.17 C1.31 10.87, 1.08 10.54, 0.89 10.2 C0.7 9.86, 0.53 9.49, 0.4 9.12 C0.27 8.75, 0.17 8.37, 0.1 7.98 C0.03 7.59, 0 7.19, 0 6.8 C0 6.4, 0.03 6.01, 0.1 5.62 C0.17 5.23, 0.27 4.84, 0.4 4.47 C0.53 4.1, 0.7 3.74, 0.89 3.4 C1.08 3.06, 1.31 2.73, 1.56 2.43 C1.81 2.13, 2.08 1.84, 2.38 1.59 C2.67 1.34, 3 1.11, 3.33 0.91 C3.66 0.71, 4.02 0.54, 4.38 0.41 C4.74 0.28, 5.12 0.17, 5.5 0.1 C5.88 0.03, 6.27 0, 6.66 0 C7.05 0, 7.44 0.03, 7.82 0.1 C8.2 0.17, 8.58 0.28, 8.94 0.41 C9.3 0.54, 9.66 0.71, 9.99 0.91 C10.32 1.11, 10.65 1.34, 10.94 1.59 C11.24 1.84, 11.51 2.13, 11.76 2.43 C12.01 2.73, 12.23 3.06, 12.43 3.4 C12.62 3.74, 12.79 4.1, 12.92 4.47 C13.05 4.84, 13.15 5.23, 13.22 5.62 C13.29 6.01, 13.3 6.6, 13.32 6.8 C13.34 7, 13.34 6.6, 13.32 6.8" stroke="none" stroke-width="0" fill="#343a40"></path><path d="M13.32 6.8 C13.32 7.19, 13.29 7.59, 13.22 7.98 C13.15 8.37, 13.05 8.75, 12.92 9.12 C12.79 9.49, 12.62 9.86, 12.43 10.2 C12.23 10.54, 12.01 10.87, 11.76 11.17 C11.51 11.47, 11.24 11.75, 10.94 12.01 C10.65 12.26, 10.32 12.49, 9.99 12.69 C9.66 12.88, 9.3 13.05, 8.94 13.19 C8.58 13.32, 8.2 13.43, 7.82 13.49 C7.44 13.56, 7.05 13.6, 6.66 13.6 C6.27 13.6, 5.88 13.56, 5.5 13.49 C5.12 13.43, 4.74 13.32, 4.38 13.19 C4.02 13.05, 3.66 12.88, 3.33 12.69 C3 12.49, 2.67 12.26, 2.38 12.01 C2.08 11.75, 1.81 11.47, 1.56 11.17 C1.31 10.87, 1.08 10.54, 0.89 10.2 C0.7 9.86, 0.53 9.49, 0.4 9.12 C0.27 8.75, 0.17 8.37, 0.1 7.98 C0.03 7.59, 0 7.19, 0 6.8 C0 6.4, 0.03 6.01, 0.1 5.62 C0.17 5.23, 0.27 4.84, 0.4 4.47 C0.53 4.1, 0.7 3.74, 0.89 3.4 C1.08 3.06, 1.31 2.73, 1.56 2.43 C1.81 2.13, 2.08 1.84, 2.38 1.59 C2.67 1.34, 3 1.11, 3.33 0.91 C3.66 0.71, 4.02 0.54, 4.38 0.41 C4.74 0.28, 5.12 0.17, 5.5 0.1 C5.88 0.03, 6.27 0, 6.66 0 C7.05 0, 7.44 0.03, 7.82 0.1 C8.2 0.17, 8.58 0.28, 8.94 0.41 C9.3 0.54, 9.66 0.71, 9.99 0.91 C10.32 1.11, 10.65 1.34, 10.94 1.59 C11.24 1.84, 11.51 2.13, 11.76 2.43 C12.01 2.73, 12.23 3.06, 12.43 3.4 C12.62 3.74, 12.79 4.1, 12.92 4.47 C13.05 4.84, 13.15 5.23, 13.22 5.62 C13.29 6.01, 13.3 6.6, 13.32 6.8 C13.34 7, 13.34 6.6, 13.32 6.8" stroke="#343a40" stroke-width="1" fill="none"></path></g><g stroke-linecap="round" transform="translate(483.56849193705466 282.5443045755003) rotate(0 6.6596837900256105 6.798421480934962)"><path d="M13.32 6.8 C13.32 7.19, 13.29 7.59, 13.22 7.98 C13.15 8.37, 13.05 8.75, 12.92 9.12 C12.79 9.49, 12.62 9.86, 12.43 10.2 C12.23 10.54, 12.01 10.87, 11.76 11.17 C11.51 11.47, 11.24 11.75, 10.94 12.01 C10.65 12.26, 10.32 12.49, 9.99 12.69 C9.66 12.88, 9.3 13.05, 8.94 13.19 C8.58 13.32, 8.2 13.43, 7.82 13.49 C7.44 13.56, 7.05 13.6, 6.66 13.6 C6.27 13.6, 5.88 13.56, 5.5 13.49 C5.12 13.43, 4.74 13.32, 4.38 13.19 C4.02 13.05, 3.66 12.88, 3.33 12.69 C3 12.49, 2.67 12.26, 2.38 12.01 C2.08 11.75, 1.81 11.47, 1.56 11.17 C1.31 10.87, 1.08 10.54, 0.89 10.2 C0.7 9.86, 0.53 9.49, 0.4 9.12 C0.27 8.75, 0.17 8.37, 0.1 7.98 C0.03 7.59, 0 7.19, 0 6.8 C0 6.4, 0.03 6.01, 0.1 5.62 C0.17 5.23, 0.27 4.84, 0.4 4.47 C0.53 4.1, 0.7 3.74, 0.89 3.4 C1.08 3.06, 1.31 2.73, 1.56 2.43 C1.81 2.13, 2.08 1.84, 2.38 1.59 C2.67 1.34, 3 1.11, 3.33 0.91 C3.66 0.71, 4.02 0.54, 4.38 0.41 C4.74 0.28, 5.12 0.17, 5.5 0.1 C5.88 0.03, 6.27 0, 6.66 0 C7.05 0, 7.44 0.03, 7.82 0.1 C8.2 0.17, 8.58 0.28, 8.94 0.41 C9.3 0.54, 9.66 0.71, 9.99 0.91 C10.32 1.11, 10.65 1.34, 10.94 1.59 C11.24 1.84, 11.51 2.13, 11.76 2.43 C12.01 2.73, 12.23 3.06, 12.43 3.4 C12.62 3.74, 12.79 4.1, 12.92 4.47 C13.05 4.84, 13.15 5.23, 13.22 5.62 C13.29 6.01, 13.3 6.6, 13.32 6.8 C13.34 7, 13.34 6.6, 13.32 6.8" stroke="none" stroke-width="0" fill="#343a40"></path><path d="M13.32 6.8 C13.32 7.19, 13.29 7.59, 13.22 7.98 C13.15 8.37, 13.05 8.75, 12.92 9.12 C12.79 9.49, 12.62 9.86, 12.43 10.2 C12.23 10.54, 12.01 10.87, 11.76 11.17 C11.51 11.47, 11.24 11.75, 10.94 12.01 C10.65 12.26, 10.32 12.49, 9.99 12.69 C9.66 12.88, 9.3 13.05, 8.94 13.19 C8.58 13.32, 8.2 13.43, 7.82 13.49 C7.44 13.56, 7.05 13.6, 6.66 13.6 C6.27 13.6, 5.88 13.56, 5.5 13.49 C5.12 13.43, 4.74 13.32, 4.38 13.19 C4.02 13.05, 3.66 12.88, 3.33 12.69 C3 12.49, 2.67 12.26, 2.38 12.01 C2.08 11.75, 1.81 11.47, 1.56 11.17 C1.31 10.87, 1.08 10.54, 0.89 10.2 C0.7 9.86, 0.53 9.49, 0.4 9.12 C0.27 8.75, 0.17 8.37, 0.1 7.98 C0.03 7.59, 0 7.19, 0 6.8 C0 6.4, 0.03 6.01, 0.1 5.62 C0.17 5.23, 0.27 4.84, 0.4 4.47 C0.53 4.1, 0.7 3.74, 0.89 3.4 C1.08 3.06, 1.31 2.73, 1.56 2.43 C1.81 2.13, 2.08 1.84, 2.38 1.59 C2.67 1.34, 3 1.11, 3.33 0.91 C3.66 0.71, 4.02 0.54, 4.38 0.41 C4.74 0.28, 5.12 0.17, 5.5 0.1 C5.88 0.03, 6.27 0, 6.66 0 C7.05 0, 7.44 0.03, 7.82 0.1 C8.2 0.17, 8.58 0.28, 8.94 0.41 C9.3 0.54, 9.66 0.71, 9.99 0.91 C10.32 1.11, 10.65 1.34, 10.94 1.59 C11.24 1.84, 11.51 2.13, 11.76 2.43 C12.01 2.73, 12.23 3.06, 12.43 3.4 C12.62 3.74, 12.79 4.1, 12.92 4.47 C13.05 4.84, 13.15 5.23, 13.22 5.62 C13.29 6.01, 13.3 6.6, 13.32 6.8 C13.34 7, 13.34 6.6, 13.32 6.8" stroke="#343a40" stroke-width="1" fill="none"></path></g><g stroke-linecap="round" transform="translate(307.2536275020361 282.5443045755003) rotate(0 6.6596837900256105 6.798421480934962)"><path d="M13.32 6.8 C13.32 7.19, 13.29 7.59, 13.22 7.98 C13.15 8.37, 13.05 8.75, 12.92 9.12 C12.79 9.49, 12.62 9.86, 12.43 10.2 C12.23 10.54, 12.01 10.87, 11.76 11.17 C11.51 11.47, 11.24 11.75, 10.94 12.01 C10.65 12.26, 10.32 12.49, 9.99 12.69 C9.66 12.88, 9.3 13.05, 8.94 13.19 C8.58 13.32, 8.2 13.43, 7.82 13.49 C7.44 13.56, 7.05 13.6, 6.66 13.6 C6.27 13.6, 5.88 13.56, 5.5 13.49 C5.12 13.43, 4.74 13.32, 4.38 13.19 C4.02 13.05, 3.66 12.88, 3.33 12.69 C3 12.49, 2.67 12.26, 2.38 12.01 C2.08 11.75, 1.81 11.47, 1.56 11.17 C1.31 10.87, 1.08 10.54, 0.89 10.2 C0.7 9.86, 0.53 9.49, 0.4 9.12 C0.27 8.75, 0.17 8.37, 0.1 7.98 C0.03 7.59, 0 7.19, 0 6.8 C0 6.4, 0.03 6.01, 0.1 5.62 C0.17 5.23, 0.27 4.84, 0.4 4.47 C0.53 4.1, 0.7 3.74, 0.89 3.4 C1.08 3.06, 1.31 2.73, 1.56 2.43 C1.81 2.13, 2.08 1.84, 2.38 1.59 C2.67 1.34, 3 1.11, 3.33 0.91 C3.66 0.71, 4.02 0.54, 4.38 0.41 C4.74 0.28, 5.12 0.17, 5.5 0.1 C5.88 0.03, 6.27 0, 6.66 0 C7.05 0, 7.44 0.03, 7.82 0.1 C8.2 0.17, 8.58 0.28, 8.94 0.41 C9.3 0.54, 9.66 0.71, 9.99 0.91 C10.32 1.11, 10.65 1.34, 10.94 1.59 C11.24 1.84, 11.51 2.13, 11.76 2.43 C12.01 2.73, 12.23 3.06, 12.43 3.4 C12.62 3.74, 12.79 4.1, 12.92 4.47 C13.05 4.84, 13.15 5.23, 13.22 5.62 C13.29 6.01, 13.3 6.6, 13.32 6.8 C13.34 7, 13.34 6.6, 13.32 6.8" stroke="none" stroke-width="0" fill="#343a40"></path><path d="M13.32 6.8 C13.32 7.19, 13.29 7.59, 13.22 7.98 C13.15 8.37, 13.05 8.75, 12.92 9.12 C12.79 9.49, 12.62 9.86, 12.43 10.2 C12.23 10.54, 12.01 10.87, 11.76 11.17 C11.51 11.47, 11.24 11.75, 10.94 12.01 C10.65 12.26, 10.32 12.49, 9.99 12.69 C9.66 12.88, 9.3 13.05, 8.94 13.19 C8.58 13.32, 8.2 13.43, 7.82 13.49 C7.44 13.56, 7.05 13.6, 6.66 13.6 C6.27 13.6, 5.88 13.56, 5.5 13.49 C5.12 13.43, 4.74 13.32, 4.38 13.19 C4.02 13.05, 3.66 12.88, 3.33 12.69 C3 12.49, 2.67 12.26, 2.38 12.01 C2.08 11.75, 1.81 11.47, 1.56 11.17 C1.31 10.87, 1.08 10.54, 0.89 10.2 C0.7 9.86, 0.53 9.49, 0.4 9.12 C0.27 8.75, 0.17 8.37, 0.1 7.98 C0.03 7.59, 0 7.19, 0 6.8 C0 6.4, 0.03 6.01, 0.1 5.62 C0.17 5.23, 0.27 4.84, 0.4 4.47 C0.53 4.1, 0.7 3.74, 0.89 3.4 C1.08 3.06, 1.31 2.73, 1.56 2.43 C1.81 2.13, 2.08 1.84, 2.38 1.59 C2.67 1.34, 3 1.11, 3.33 0.91 C3.66 0.71, 4.02 0.54, 4.38 0.41 C4.74 0.28, 5.12 0.17, 5.5 0.1 C5.88 0.03, 6.27 0, 6.66 0 C7.05 0, 7.44 0.03, 7.82 0.1 C8.2 0.17, 8.58 0.28, 8.94 0.41 C9.3 0.54, 9.66 0.71, 9.99 0.91 C10.32 1.11, 10.65 1.34, 10.94 1.59 C11.24 1.84, 11.51 2.13, 11.76 2.43 C12.01 2.73, 12.23 3.06, 12.43 3.4 C12.62 3.74, 12.79 4.1, 12.92 4.47 C13.05 4.84, 13.15 5.23, 13.22 5.62 C13.29 6.01, 13.3 6.6, 13.32 6.8 C13.34 7, 13.34 6.6, 13.32 6.8" stroke="#343a40" stroke-width="1" fill="none"></path></g><g stroke-linecap="round" transform="translate(385.978176613688 10.000000047916615) rotate(0 104.25 22.5)"><path d="M2.99 2.6 C2.99 2.6, 2.99 2.6, 2.99 2.6 M2.99 2.6 C2.99 2.6, 2.99 2.6, 2.99 2.6 M0.5 17.66 C6.35 10.93, 12.21 4.2, 15.59 0.3 M0.5 17.66 C3.58 14.13, 6.65 10.59, 15.59 0.3 M0.64 29.7 C6.42 23.05, 12.2 16.4, 26.22 0.27 M0.64 29.7 C9.21 19.85, 17.78 9.99, 26.22 0.27 M2.08 40.24 C15.48 24.82, 28.88 9.4, 36.85 0.24 M2.08 40.24 C13.9 26.64, 25.71 13.05, 36.85 0.24 M8.78 44.73 C22.55 28.89, 36.32 13.04, 47.48 0.2 M8.78 44.73 C16.55 35.78, 24.33 26.83, 47.48 0.2 M18.75 45.45 C31.32 30.99, 43.9 16.52, 58.11 0.17 M18.75 45.45 C31.89 30.33, 45.03 15.21, 58.11 0.17 M29.38 45.41 C41.21 31.8, 53.05 18.19, 68.74 0.13 M29.38 45.41 C38.7 34.69, 48.02 23.97, 68.74 0.13 M40.01 45.38 C52.45 31.07, 64.89 16.76, 79.37 0.1 M40.01 45.38 C53.42 29.95, 66.84 14.52, 79.37 0.1 M50.64 45.35 C63.4 30.66, 76.16 15.98, 90 0.06 M50.64 45.35 C60.87 33.58, 71.1 21.81, 90 0.06 M61.27 45.31 C76.08 28.27, 90.89 11.23, 100.63 0.03 M61.27 45.31 C70.75 34.41, 80.22 23.51, 100.63 0.03 M71.9 45.28 C86.28 28.74, 100.66 12.2, 111.26 -0.01 M71.9 45.28 C80.28 35.64, 88.66 26, 111.26 -0.01 M81.87 46 C96.94 28.66, 112.01 11.33, 121.89 -0.04 M81.87 46 C91.43 35.01, 100.98 24.02, 121.89 -0.04 M92.5 45.96 C101.85 35.21, 111.2 24.46, 131.87 0.68 M92.5 45.96 C106.81 29.51, 121.11 13.05, 131.87 0.68 M103.13 45.93 C113.68 33.8, 124.22 21.67, 142.5 0.65 M103.13 45.93 C113.56 33.93, 123.99 21.94, 142.5 0.65 M113.76 45.89 C122.8 35.5, 131.83 25.12, 153.13 0.61 M113.76 45.89 C125.73 32.13, 137.7 18.36, 153.13 0.61 M124.39 45.86 C135.27 33.34, 146.15 20.83, 163.76 0.58 M124.39 45.86 C139.13 28.91, 153.86 11.96, 163.76 0.58 M135.02 45.82 C147.03 32.02, 159.03 18.21, 174.39 0.54 M135.02 45.82 C148.89 29.87, 162.76 13.92, 174.39 0.54 M145.65 45.79 C157.6 32.05, 169.54 18.32, 185.02 0.51 M145.65 45.79 C159.31 30.08, 172.98 14.36, 185.02 0.51 M156.28 45.76 C168.19 32.06, 180.1 18.36, 195.65 0.47 M156.28 45.76 C170.09 29.87, 183.89 13.99, 195.65 0.47 M166.91 45.72 C179.07 31.74, 191.22 17.76, 204.31 2.7 M166.91 45.72 C177.69 33.33, 188.46 20.93, 204.31 2.7 M177.54 45.69 C188.12 33.52, 198.7 21.35, 209.04 9.46 M177.54 45.69 C185.95 36.01, 194.36 26.34, 209.04 9.46 M188.17 45.65 C196.15 36.47, 204.13 27.3, 208.51 22.26 M188.17 45.65 C192.81 40.32, 197.44 35, 208.51 22.26 M199.46 44.86 C203.08 40.7, 206.69 36.54, 208.65 34.3 M199.46 44.86 C203.08 40.7, 206.69 36.54, 208.65 34.3" stroke="#fff0f6" stroke-width="1" fill="none"></path><path d="M11.25 0 C58.66 0, 106.08 0, 197.25 0 M11.25 0 C65.81 0, 120.37 0, 197.25 0 M197.25 0 C204.75 0, 208.5 3.75, 208.5 11.25 M197.25 0 C204.75 0, 208.5 3.75, 208.5 11.25 M208.5 11.25 C208.5 18.79, 208.5 26.32, 208.5 33.75 M208.5 11.25 C208.5 16.9, 208.5 22.55, 208.5 33.75 M208.5 33.75 C208.5 41.25, 204.75 45, 197.25 45 M208.5 33.75 C208.5 41.25, 204.75 45, 197.25 45 M197.25 45 C154.57 45, 111.89 45, 11.25 45 M197.25 45 C139.64 45, 82.04 45, 11.25 45 M11.25 45 C3.75 45, 0 41.25, 0 33.75 M11.25 45 C3.75 45, 0 41.25, 0 33.75 M0 33.75 C0 26.45, 0 19.15, 0 11.25 M0 33.75 C0 27.65, 0 21.54, 0 11.25 M0 11.25 C0 3.75, 3.75 0, 11.25 0 M0 11.25 C0 3.75, 3.75 0, 11.25 0" stroke="#c2255c" stroke-width="2" fill="none"></path></g><g transform="translate(420.228176613688 15.000000047916615) rotate(0 70 17.5)"><text x="70" y="26.712" font-family="Nunito, sans-serif, Segoe UI Emoji" font-size="28px" fill="#c2255c" text-anchor="middle" style="white-space: pre;" direction="ltr" dominant-baseline="alphabetic">食べている</text></g><g stroke-linecap="round"><g transform="translate(10.00000071448585 71.83103892601935) rotate(0 303.9133111621122 5.684341886080802e-14)"><path d="M0 0 C234.82 0, 469.64 0, 607.83 0 M0 0 C190.39 0, 380.79 0, 607.83 0" stroke="#343a40" stroke-width="2" fill="none"></path></g><g transform="translate(10.00000071448585 71.83103892601935) rotate(0 303.9133111621122 5.684341886080802e-14)"><path d="M607.83 0 L594.23 6.34 L594.23 -6.34 L607.83 0" stroke="none" stroke-width="0" fill="#343a40" fill-rule="evenodd"></path><path d="M607.83 0 C602.57 2.45, 597.32 4.9, 594.23 6.34 M607.83 0 C603.57 1.99, 599.31 3.97, 594.23 6.34 M594.23 6.34 C594.23 3.52, 594.23 0.71, 594.23 -6.34 M594.23 6.34 C594.23 2.52, 594.23 -1.29, 594.23 -6.34 M594.23 -6.34 C597.07 -5.02, 599.9 -3.7, 607.83 0 M594.23 -6.34 C597.74 -4.71, 601.24 -3.07, 607.83 0 M607.83 0 C607.83 0, 607.83 0, 607.83 0 M607.83 0 C607.83 0, 607.83 0, 607.83 0" stroke="#343a40" stroke-width="2" fill="none"></path></g></g><mask></mask><g transform="translate(476.2281770136374 88.79947551923738) rotate(0 14 17.5)"><text x="14" y="26.712" font-family="Nunito, sans-serif, Segoe UI Emoji" font-size="28px" fill="#343a40" text-anchor="middle" style="white-space: pre;" direction="ltr" dominant-baseline="alphabetic">今</text></g><g transform="translate(109.74042660824762 88.79947559481366) rotate(0 28 17.5)"><text x="28" y="26.712" font-family="Nunito, sans-serif, Segoe UI Emoji" font-size="28px" fill="#343a40" text-anchor="middle" style="white-space: pre;" direction="ltr" dominant-baseline="alphabetic">昨夜</text></g><g stroke-linecap="round" transform="translate(130.93876378150298 65.03261734636294) rotate(0 6.6596837900256105 6.798421480935019)"><path d="M13.32 6.8 C13.32 7.19, 13.29 7.59, 13.22 7.98 C13.15 8.37, 13.05 8.75, 12.92 9.12 C12.79 9.49, 12.62 9.86, 12.43 10.2 C12.23 10.54, 12.01 10.87, 11.76 11.17 C11.51 11.47, 11.24 11.75, 10.94 12.01 C10.65 12.26, 10.32 12.49, 9.99 12.69 C9.66 12.88, 9.3 13.05, 8.94 13.19 C8.58 13.32, 8.2 13.43, 7.82 13.49 C7.44 13.56, 7.05 13.6, 6.66 13.6 C6.27 13.6, 5.88 13.56, 5.5 13.49 C5.12 13.43, 4.74 13.32, 4.38 13.19 C4.02 13.05, 3.66 12.88, 3.33 12.69 C3 12.49, 2.67 12.26, 2.38 12.01 C2.08 11.75, 1.81 11.47, 1.56 11.17 C1.31 10.87, 1.08 10.54, 0.89 10.2 C0.7 9.86, 0.53 9.49, 0.4 9.12 C0.27 8.75, 0.17 8.37, 0.1 7.98 C0.03 7.59, 0 7.19, 0 6.8 C0 6.4, 0.03 6.01, 0.1 5.62 C0.17 5.23, 0.27 4.84, 0.4 4.47 C0.53 4.1, 0.7 3.74, 0.89 3.4 C1.08 3.06, 1.31 2.73, 1.56 2.43 C1.81 2.13, 2.08 1.84, 2.38 1.59 C2.67 1.34, 3 1.11, 3.33 0.91 C3.66 0.71, 4.02 0.54, 4.38 0.41 C4.74 0.28, 5.12 0.17, 5.5 0.1 C5.88 0.03, 6.27 0, 6.66 0 C7.05 0, 7.44 0.03, 7.82 0.1 C8.2 0.17, 8.58 0.28, 8.94 0.41 C9.3 0.54, 9.66 0.71, 9.99 0.91 C10.32 1.11, 10.65 1.34, 10.94 1.59 C11.24 1.84, 11.51 2.13, 11.76 2.43 C12.01 2.73, 12.23 3.06, 12.43 3.4 C12.62 3.74, 12.79 4.1, 12.92 4.47 C13.05 4.84, 13.15 5.23, 13.22 5.62 C13.29 6.01, 13.3 6.6, 13.32 6.8 C13.34 7, 13.34 6.6, 13.32 6.8" stroke="none" stroke-width="0" fill="#343a40"></path><path d="M13.32 6.8 C13.32 7.19, 13.29 7.59, 13.22 7.98 C13.15 8.37, 13.05 8.75, 12.92 9.12 C12.79 9.49, 12.62 9.86, 12.43 10.2 C12.23 10.54, 12.01 10.87, 11.76 11.17 C11.51 11.47, 11.24 11.75, 10.94 12.01 C10.65 12.26, 10.32 12.49, 9.99 12.69 C9.66 12.88, 9.3 13.05, 8.94 13.19 C8.58 13.32, 8.2 13.43, 7.82 13.49 C7.44 13.56, 7.05 13.6, 6.66 13.6 C6.27 13.6, 5.88 13.56, 5.5 13.49 C5.12 13.43, 4.74 13.32, 4.38 13.19 C4.02 13.05, 3.66 12.88, 3.33 12.69 C3 12.49, 2.67 12.26, 2.38 12.01 C2.08 11.75, 1.81 11.47, 1.56 11.17 C1.31 10.87, 1.08 10.54, 0.89 10.2 C0.7 9.86, 0.53 9.49, 0.4 9.12 C0.27 8.75, 0.17 8.37, 0.1 7.98 C0.03 7.59, 0 7.19, 0 6.8 C0 6.4, 0.03 6.01, 0.1 5.62 C0.17 5.23, 0.27 4.84, 0.4 4.47 C0.53 4.1, 0.7 3.74, 0.89 3.4 C1.08 3.06, 1.31 2.73, 1.56 2.43 C1.81 2.13, 2.08 1.84, 2.38 1.59 C2.67 1.34, 3 1.11, 3.33 0.91 C3.66 0.71, 4.02 0.54, 4.38 0.41 C4.74 0.28, 5.12 0.17, 5.5 0.1 C5.88 0.03, 6.27 0, 6.66 0 C7.05 0, 7.44 0.03, 7.82 0.1 C8.2 0.17, 8.58 0.28, 8.94 0.41 C9.3 0.54, 9.66 0.71, 9.99 0.91 C10.32 1.11, 10.65 1.34, 10.94 1.59 C11.24 1.84, 11.51 2.13, 11.76 2.43 C12.01 2.73, 12.23 3.06, 12.43 3.4 C12.62 3.74, 12.79 4.1, 12.92 4.47 C13.05 4.84, 13.15 5.23, 13.22 5.62 C13.29 6.01, 13.3 6.6, 13.32 6.8 C13.34 7, 13.34 6.6, 13.32 6.8" stroke="#343a40" stroke-width="1" fill="none"></path></g><g stroke-linecap="round" transform="translate(483.56849265154005 65.03261734636294) rotate(0 6.6596837900256105 6.798421480935019)"><path d="M13.32 6.8 C13.32 7.19, 13.29 7.59, 13.22 7.98 C13.15 8.37, 13.05 8.75, 12.92 9.12 C12.79 9.49, 12.62 9.86, 12.43 10.2 C12.23 10.54, 12.01 10.87, 11.76 11.17 C11.51 11.47, 11.24 11.75, 10.94 12.01 C10.65 12.26, 10.32 12.49, 9.99 12.69 C9.66 12.88, 9.3 13.05, 8.94 13.19 C8.58 13.32, 8.2 13.43, 7.82 13.49 C7.44 13.56, 7.05 13.6, 6.66 13.6 C6.27 13.6, 5.88 13.56, 5.5 13.49 C5.12 13.43, 4.74 13.32, 4.38 13.19 C4.02 13.05, 3.66 12.88, 3.33 12.69 C3 12.49, 2.67 12.26, 2.38 12.01 C2.08 11.75, 1.81 11.47, 1.56 11.17 C1.31 10.87, 1.08 10.54, 0.89 10.2 C0.7 9.86, 0.53 9.49, 0.4 9.12 C0.27 8.75, 0.17 8.37, 0.1 7.98 C0.03 7.59, 0 7.19, 0 6.8 C0 6.4, 0.03 6.01, 0.1 5.62 C0.17 5.23, 0.27 4.84, 0.4 4.47 C0.53 4.1, 0.7 3.74, 0.89 3.4 C1.08 3.06, 1.31 2.73, 1.56 2.43 C1.81 2.13, 2.08 1.84, 2.38 1.59 C2.67 1.34, 3 1.11, 3.33 0.91 C3.66 0.71, 4.02 0.54, 4.38 0.41 C4.74 0.28, 5.12 0.17, 5.5 0.1 C5.88 0.03, 6.27 0, 6.66 0 C7.05 0, 7.44 0.03, 7.82 0.1 C8.2 0.17, 8.58 0.28, 8.94 0.41 C9.3 0.54, 9.66 0.71, 9.99 0.91 C10.32 1.11, 10.65 1.34, 10.94 1.59 C11.24 1.84, 11.51 2.13, 11.76 2.43 C12.01 2.73, 12.23 3.06, 12.43 3.4 C12.62 3.74, 12.79 4.1, 12.92 4.47 C13.05 4.84, 13.15 5.23, 13.22 5.62 C13.29 6.01, 13.3 6.6, 13.32 6.8 C13.34 7, 13.34 6.6, 13.32 6.8" stroke="none" stroke-width="0" fill="#343a40"></path><path d="M13.32 6.8 C13.32 7.19, 13.29 7.59, 13.22 7.98 C13.15 8.37, 13.05 8.75, 12.92 9.12 C12.79 9.49, 12.62 9.86, 12.43 10.2 C12.23 10.54, 12.01 10.87, 11.76 11.17 C11.51 11.47, 11.24 11.75, 10.94 12.01 C10.65 12.26, 10.32 12.49, 9.99 12.69 C9.66 12.88, 9.3 13.05, 8.94 13.19 C8.58 13.32, 8.2 13.43, 7.82 13.49 C7.44 13.56, 7.05 13.6, 6.66 13.6 C6.27 13.6, 5.88 13.56, 5.5 13.49 C5.12 13.43, 4.74 13.32, 4.38 13.19 C4.02 13.05, 3.66 12.88, 3.33 12.69 C3 12.49, 2.67 12.26, 2.38 12.01 C2.08 11.75, 1.81 11.47, 1.56 11.17 C1.31 10.87, 1.08 10.54, 0.89 10.2 C0.7 9.86, 0.53 9.49, 0.4 9.12 C0.27 8.75, 0.17 8.37, 0.1 7.98 C0.03 7.59, 0 7.19, 0 6.8 C0 6.4, 0.03 6.01, 0.1 5.62 C0.17 5.23, 0.27 4.84, 0.4 4.47 C0.53 4.1, 0.7 3.74, 0.89 3.4 C1.08 3.06, 1.31 2.73, 1.56 2.43 C1.81 2.13, 2.08 1.84, 2.38 1.59 C2.67 1.34, 3 1.11, 3.33 0.91 C3.66 0.71, 4.02 0.54, 4.38 0.41 C4.74 0.28, 5.12 0.17, 5.5 0.1 C5.88 0.03, 6.27 0, 6.66 0 C7.05 0, 7.44 0.03, 7.82 0.1 C8.2 0.17, 8.58 0.28, 8.94 0.41 C9.3 0.54, 9.66 0.71, 9.99 0.91 C10.32 1.11, 10.65 1.34, 10.94 1.59 C11.24 1.84, 11.51 2.13, 11.76 2.43 C12.01 2.73, 12.23 3.06, 12.43 3.4 C12.62 3.74, 12.79 4.1, 12.92 4.47 C13.05 4.84, 13.15 5.23, 13.22 5.62 C13.29 6.01, 13.3 6.6, 13.32 6.8 C13.34 7, 13.34 6.6, 13.32 6.8" stroke="#343a40" stroke-width="1" fill="none"></path></g><g stroke-linecap="round" transform="translate(33.348447723252775 10) rotate(0 104.25 22.5)"><path d="M2.99 2.6 C2.99 2.6, 2.99 2.6, 2.99 2.6 M2.99 2.6 C2.99 2.6, 2.99 2.6, 2.99 2.6 M0.5 17.66 C3.57 14.14, 6.63 10.61, 15.59 0.3 M0.5 17.66 C5.56 11.84, 10.62 6.02, 15.59 0.3 M0.64 29.7 C8.57 20.58, 16.5 11.46, 26.22 0.27 M0.64 29.7 C8.66 20.47, 16.69 11.23, 26.22 0.27 M2.08 40.24 C13.26 27.37, 24.44 14.51, 36.85 0.24 M2.08 40.24 C9.32 31.91, 16.55 23.59, 36.85 0.24 M8.78 44.73 C18.98 32.99, 29.18 21.25, 47.48 0.2 M8.78 44.73 C20 31.82, 31.22 18.91, 47.48 0.2 M18.75 45.45 C26.79 36.2, 34.84 26.94, 58.11 0.17 M18.75 45.45 C31.11 31.24, 43.46 17.02, 58.11 0.17 M29.38 45.41 C37.41 36.18, 45.44 26.94, 68.74 0.13 M29.38 45.41 C43.84 28.78, 58.3 12.15, 68.74 0.13 M40.01 45.38 C50.45 33.37, 60.88 21.37, 79.37 0.1 M40.01 45.38 C52.62 30.88, 65.23 16.37, 79.37 0.1 M50.64 45.35 C61.76 32.56, 72.87 19.77, 90 0.06 M50.64 45.35 C61.5 32.85, 72.36 20.36, 90 0.06 M61.27 45.31 C76.72 27.53, 92.18 9.75, 100.63 0.03 M61.27 45.31 C69.93 35.35, 78.58 25.39, 100.63 0.03 M71.9 45.28 C84.69 30.57, 97.48 15.85, 111.26 -0.01 M71.9 45.28 C82.56 33.01, 93.23 20.74, 111.26 -0.01 M81.87 46 C95.9 29.86, 109.92 13.73, 121.89 -0.04 M81.87 46 C95.09 30.79, 108.31 15.58, 121.89 -0.04 M92.5 45.96 C101.66 35.43, 110.82 24.89, 131.87 0.68 M92.5 45.96 C105.59 30.91, 118.67 15.86, 131.87 0.68 M103.13 45.93 C117.98 28.85, 132.83 11.76, 142.5 0.65 M103.13 45.93 C114.71 32.61, 126.29 19.29, 142.5 0.65 M113.76 45.89 C128.8 28.6, 143.83 11.3, 153.13 0.61 M113.76 45.89 C128.14 29.35, 142.52 12.81, 153.13 0.61 M124.39 45.86 C139.62 28.35, 154.84 10.83, 163.76 0.58 M124.39 45.86 C135.37 33.24, 146.34 20.61, 163.76 0.58 M135.02 45.82 C143.84 35.69, 152.65 25.55, 174.39 0.54 M135.02 45.82 C150.76 27.72, 166.5 9.61, 174.39 0.54 M145.65 45.79 C160.13 29.14, 174.6 12.5, 185.02 0.51 M145.65 45.79 C160.49 28.72, 175.33 11.65, 185.02 0.51 M156.28 45.76 C167.49 32.87, 178.69 19.98, 195.65 0.47 M156.28 45.76 C171.68 28.05, 187.07 10.34, 195.65 0.47 M166.91 45.72 C181.26 29.22, 195.6 12.72, 204.31 2.7 M166.91 45.72 C174.63 36.85, 182.34 27.98, 204.31 2.7 M177.54 45.69 C189.05 32.45, 200.55 19.22, 209.04 9.46 M177.54 45.69 C184.44 37.75, 191.34 29.82, 209.04 9.46 M188.17 45.65 C195.76 36.92, 203.35 28.19, 208.51 22.26 M188.17 45.65 C194.46 38.42, 200.75 31.19, 208.51 22.26 M199.46 44.86 C202.6 41.25, 205.75 37.63, 208.65 34.3 M199.46 44.86 C202.11 41.81, 204.77 38.76, 208.65 34.3" stroke="#e7f5ff" stroke-width="1" fill="none"></path><path d="M11.25 0 C85.06 0, 158.86 0, 197.25 0 M11.25 0 C51.93 0, 92.62 0, 197.25 0 M197.25 0 C204.75 0, 208.5 3.75, 208.5 11.25 M197.25 0 C204.75 0, 208.5 3.75, 208.5 11.25 M208.5 11.25 C208.5 18.29, 208.5 25.33, 208.5 33.75 M208.5 11.25 C208.5 19.6, 208.5 27.95, 208.5 33.75 M208.5 33.75 C208.5 41.25, 204.75 45, 197.25 45 M208.5 33.75 C208.5 41.25, 204.75 45, 197.25 45 M197.25 45 C127.51 45, 57.77 45, 11.25 45 M197.25 45 C150.8 45, 104.35 45, 11.25 45 M11.25 45 C3.75 45, 0 41.25, 0 33.75 M11.25 45 C3.75 45, 0 41.25, 0 33.75 M0 33.75 C0 24.78, 0 15.81, 0 11.25 M0 33.75 C0 25.83, 0 17.91, 0 11.25 M0 11.25 C0 3.75, 3.75 0, 11.25 0 M0 11.25 C0 3.75, 3.75 0, 11.25 0" stroke="#1971c2" stroke-width="2" fill="none"></path></g><g transform="translate(67.59844772325278 15) rotate(0 70 17.5)"><text x="70" y="26.712" font-family="Nunito, sans-serif, Segoe UI Emoji" font-size="28px" fill="#1971c2" text-anchor="middle" style="white-space: pre;" direction="ltr" dominant-baseline="alphabetic">食べていた</text></g></svg>