<?xml version="1.0" standalone="no"?>
<!DOCTYPE svg PUBLIC "-//W3C//DTD SVG 1.1//EN" "http://www.w3.org/Graphics/SVG/1.1/DTD/svg11.dtd">
<svg version="1.1" xmlns="http://www.w3.org/2000/svg" viewBox="0 0 378.32305752325306 125.94475287208525" width="378.32305752325306" height="125.94475287208525"><!-- svg-source:excalidraw --><metadata></metadata><defs><style class="style-fonts">
      </style></defs><g stroke-linecap="round" transform="translate(7.675265174403819 63.39990892172136) rotate(344.54485708743124 108.13376842277552 5.949513330487662)"><path d="M2.97 0 C48.39 0, 93.8 0, 213.29 0 C215.28 0, 216.27 0.99, 216.27 2.97 C216.27 4.68, 216.27 6.39, 216.27 8.92 C216.27 10.91, 215.28 11.9, 213.29 11.9 C164.69 11.9, 116.08 11.9, 2.97 11.9 C0.99 11.9, 0 10.91, 0 8.92 C0 7.51, 0 6.1, 0 2.97 C0 0.99, 0.99 0, 2.97 0" stroke="none" stroke-width="0" fill="#eaddd7"></path><path d="M2.97 0 C84.17 0, 165.36 0, 213.29 0 M2.97 0 C51.11 0, 99.26 0, 213.29 0 M213.29 0 C215.28 0, 216.27 0.99, 216.27 2.97 M213.29 0 C215.28 0, 216.27 0.99, 216.27 2.97 M216.27 2.97 C216.27 5.21, 216.27 7.44, 216.27 8.92 M216.27 2.97 C216.27 4.55, 216.27 6.13, 216.27 8.92 M216.27 8.92 C216.27 10.91, 215.28 11.9, 213.29 11.9 M216.27 8.92 C216.27 10.91, 215.28 11.9, 213.29 11.9 M213.29 11.9 C159.23 11.9, 105.16 11.9, 2.97 11.9 M213.29 11.9 C166.48 11.9, 119.68 11.9, 2.97 11.9 M2.97 11.9 C0.99 11.9, 0 10.91, 0 8.92 M2.97 11.9 C0.99 11.9, 0 10.91, 0 8.92 M0 8.92 C0 6.83, 0 4.73, 0 2.97 M0 8.92 C0 6.69, 0 4.46, 0 2.97 M0 2.97 C0 0.99, 0.99 0, 2.97 0 M0 2.97 C0 0.99, 0.99 0, 2.97 0" stroke="#846358" stroke-width="2" fill="none"></path></g><g transform="translate(328.32305752325306 88.94475287208525) rotate(0 20 13.5)"><text x="20" y="20.08" font-family="Nunito, Segoe UI Emoji" font-size="20px" fill="#343a40" text-anchor="middle" style="white-space: pre;" direction="ltr" dominant-baseline="alphabetic">舌头</text></g><g transform="translate(227.19340415965416 25.42222899300168) rotate(0 20 13.5)"><text x="20" y="20.08" font-family="Nunito, Segoe UI Emoji" font-size="20px" fill="#343a40" text-anchor="middle" style="white-space: pre;" direction="ltr" dominant-baseline="alphabetic">上颚</text></g><g transform="translate(27.961486488568767 23.871729859877405) rotate(344.51913552733953 10 13.5)"><text x="10" y="20.08" font-family="Nunito, Segoe UI Emoji" font-size="20px" fill="#343a40" text-anchor="middle" style="white-space: pre;" direction="ltr" dominant-baseline="alphabetic">拉</text></g><g transform="translate(70.17748100438126 12.179380589592029) rotate(344.51913552733953 10 13.5)"><text x="10" y="20.08" font-family="Nunito, Segoe UI Emoji" font-size="20px" fill="#343a40" text-anchor="middle" style="white-space: pre;" direction="ltr" dominant-baseline="alphabetic">ら</text></g><g stroke-linecap="round"><g transform="translate(87.56326001049678 38.175476165520195) rotate(344.51913552733953 0 14.170744164136863)"><path d="M0 0 C0 4.72, 0 23.62, 0 28.34 M0 0 C0 4.72, 0 23.62, 0 28.34" stroke="#343a40" stroke-width="2" fill="none"></path></g><g transform="translate(87.56326001049678 38.175476165520195) rotate(344.51913552733953 0 14.170744164136863)"><path d="M0 28.34 L-5.99 15.5 L5.99 15.5 L0 28.34" stroke="none" stroke-width="0" fill="#343a40" fill-rule="evenodd"></path><path d="M0 28.34 C-1.72 24.66, -3.44 20.97, -5.99 15.5 M0 28.34 C-1.96 24.13, -3.92 19.93, -5.99 15.5 M-5.99 15.5 C-2.81 15.5, 0.37 15.5, 5.99 15.5 M-5.99 15.5 C-1.6 15.5, 2.78 15.5, 5.99 15.5 M5.99 15.5 C4 19.76, 2.01 24.02, 0 28.34 M5.99 15.5 C4.6 18.49, 3.2 21.47, 0 28.34 M0 28.34 C0 28.34, 0 28.34, 0 28.34 M0 28.34 C0 28.34, 0 28.34, 0 28.34" stroke="#343a40" stroke-width="2" fill="none"></path></g></g><mask></mask><g stroke-linecap="round"><g transform="translate(45.34726621483105 49.86782601083064) rotate(344.51913552733953 0 14.170744164136863)"><path d="M0 0 C0 4.72, 0 23.62, 0 28.34 M0 0 C0 4.72, 0 23.62, 0 28.34" stroke="#343a40" stroke-width="2" fill="none"></path></g><g transform="translate(45.34726621483105 49.86782601083064) rotate(344.51913552733953 0 14.170744164136863)"><path d="M0 28.34 L-5.99 15.5 L5.99 15.5 L0 28.34" stroke="none" stroke-width="0" fill="#343a40" fill-rule="evenodd"></path><path d="M0 28.34 C-1.61 24.89, -3.22 21.44, -5.99 15.5 M0 28.34 C-2.14 23.75, -4.28 19.16, -5.99 15.5 M-5.99 15.5 C-2.99 15.5, 0.02 15.5, 5.99 15.5 M-5.99 15.5 C-1.99 15.5, 2.01 15.5, 5.99 15.5 M5.99 15.5 C4.06 19.64, 2.13 23.78, 0 28.34 M5.99 15.5 C4.68 18.3, 3.38 21.1, 0 28.34 M0 28.34 C0 28.34, 0 28.34, 0 28.34 M0 28.34 C0 28.34, 0 28.34, 0 28.34" stroke="#343a40" stroke-width="2" fill="none"></path></g></g><mask></mask><g stroke-linecap="round" transform="translate(54.854180750073 95.89248268880624) rotate(0 133.05296655293492 6.552270897824542)"><path d="M3.28 0 C88.89 0, 174.51 0, 262.83 0 C265.01 0, 266.11 1.09, 266.11 3.28 C266.11 5.28, 266.11 7.27, 266.11 9.83 C266.11 12.01, 265.01 13.1, 262.83 13.1 C176.13 13.1, 89.43 13.1, 3.28 13.1 C1.09 13.1, 0 12.01, 0 9.83 C0 8.05, 0 6.27, 0 3.28 C0 1.09, 1.09 0, 3.28 0" stroke="none" stroke-width="0" fill="#fcc2d7"></path><path d="M3.28 0 C60.35 0, 117.41 0, 262.83 0 M3.28 0 C78.49 0, 153.7 0, 262.83 0 M262.83 0 C265.01 0, 266.11 1.09, 266.11 3.28 M262.83 0 C265.01 0, 266.11 1.09, 266.11 3.28 M266.11 3.28 C266.11 5.59, 266.11 7.9, 266.11 9.83 M266.11 3.28 C266.11 5.69, 266.11 8.1, 266.11 9.83 M266.11 9.83 C266.11 12.01, 265.01 13.1, 262.83 13.1 M266.11 9.83 C266.11 12.01, 265.01 13.1, 262.83 13.1 M262.83 13.1 C205.52 13.1, 148.21 13.1, 3.28 13.1 M262.83 13.1 C173.61 13.1, 84.38 13.1, 3.28 13.1 M3.28 13.1 C1.09 13.1, 0 12.01, 0 9.83 M3.28 13.1 C1.09 13.1, 0 12.01, 0 9.83 M0 9.83 C0 7.48, 0 5.14, 0 3.28 M0 9.83 C0 8, 0 6.18, 0 3.28 M0 3.28 C0 1.09, 1.09 0, 3.28 0 M0 3.28 C0 1.09, 1.09 0, 3.28 0" stroke="#c2255c" stroke-width="2" fill="none"></path></g></svg>