<?xml version="1.0" standalone="no"?>
<!DOCTYPE svg PUBLIC "-//W3C//DTD SVG 1.1//EN" "http://www.w3.org/Graphics/SVG/1.1/DTD/svg11.dtd">
<svg version="1.1" xmlns="http://www.w3.org/2000/svg" viewBox="0 0 627.8266223242244 189.10688858979233" width="627.8266223242244" height="189.10688858979233"><!-- svg-source:excalidraw --><metadata></metadata><defs><style class="style-fonts">
      </style></defs><g stroke-linecap="round" transform="translate(130.9387632579328 10) rotate(0 213.8214431849002 22.5)"><path d="M2.99 2.6 C2.99 2.6, 2.99 2.6, 2.99 2.6 M2.99 2.6 C2.99 2.6, 2.99 2.6, 2.99 2.6 M0.5 17.66 C5.36 12.08, 10.21 6.49, 15.59 0.3 M0.5 17.66 C5.5 11.91, 10.5 6.16, 15.59 0.3 M0.64 29.7 C5.89 23.66, 11.15 17.61, 26.22 0.27 M0.64 29.7 C7.86 21.39, 15.09 13.07, 26.22 0.27 M2.08 40.24 C12.19 28.61, 22.3 16.98, 36.85 0.24 M2.08 40.24 C13.3 27.32, 24.53 14.41, 36.85 0.24 M8.78 44.73 C21.86 29.67, 34.95 14.61, 47.48 0.2 M8.78 44.73 C18.04 34.07, 27.31 23.41, 47.48 0.2 M18.75 45.45 C28.6 34.12, 38.44 22.79, 58.11 0.17 M18.75 45.45 C26.72 36.28, 34.69 27.12, 58.11 0.17 M29.38 45.41 C38.09 35.39, 46.81 25.36, 68.74 0.13 M29.38 45.41 C37.84 35.68, 46.31 25.94, 68.74 0.13 M40.01 45.38 C51.38 32.3, 62.74 19.23, 79.37 0.1 M40.01 45.38 C54.29 28.95, 68.57 12.52, 79.37 0.1 M50.64 45.35 C61.71 32.61, 72.78 19.87, 90 0.06 M50.64 45.35 C61.05 33.37, 71.46 21.39, 90 0.06 M61.27 45.31 C75.84 28.55, 90.41 11.78, 100.63 0.03 M61.27 45.31 C73.92 30.76, 86.58 16.2, 100.63 0.03 M71.9 45.28 C80.52 35.36, 89.14 25.45, 111.26 -0.01 M71.9 45.28 C86.38 28.62, 100.86 11.96, 111.26 -0.01 M81.87 46 C95.21 30.66, 108.54 15.32, 121.89 -0.04 M81.87 46 C94.72 31.22, 107.56 16.45, 121.89 -0.04 M92.5 45.96 C100.79 36.43, 109.08 26.89, 131.87 0.68 M92.5 45.96 C101.57 35.53, 110.64 25.1, 131.87 0.68 M103.13 45.93 C114.6 32.74, 126.07 19.55, 142.5 0.65 M103.13 45.93 C116.08 31.04, 129.02 16.15, 142.5 0.65 M113.76 45.89 C125.86 31.97, 137.97 18.05, 153.13 0.61 M113.76 45.89 C124.86 33.13, 135.96 20.36, 153.13 0.61 M124.39 45.86 C133.58 35.29, 142.76 24.73, 163.76 0.58 M124.39 45.86 C133.75 35.09, 143.11 24.32, 163.76 0.58 M135.02 45.82 C144.3 35.16, 153.57 24.49, 174.39 0.54 M135.02 45.82 C145.95 33.25, 156.88 20.68, 174.39 0.54 M145.65 45.79 C154.43 35.7, 163.2 25.61, 185.02 0.51 M145.65 45.79 C156.1 33.78, 166.54 21.76, 185.02 0.51 M156.28 45.76 C171.88 27.82, 187.47 9.88, 195.65 0.47 M156.28 45.76 C168 32.28, 179.71 18.81, 195.65 0.47 M166.91 45.72 C182.6 27.67, 198.29 9.63, 206.28 0.44 M166.91 45.72 C180.85 29.69, 194.78 13.66, 206.28 0.44 M177.54 45.69 C187.99 33.67, 198.44 21.65, 216.91 0.4 M177.54 45.69 C191.2 29.98, 204.85 14.27, 216.91 0.4 M188.17 45.65 C202.9 28.71, 217.63 11.77, 227.54 0.37 M188.17 45.65 C202.79 28.83, 217.41 12.02, 227.54 0.37 M198.81 45.62 C214.33 27.75, 229.86 9.89, 238.17 0.33 M198.81 45.62 C212.8 29.52, 226.8 13.42, 238.17 0.33 M209.44 45.58 C218.81 34.79, 228.19 24, 248.8 0.3 M209.44 45.58 C221.64 31.54, 233.85 17.5, 248.8 0.3 M220.07 45.55 C228.32 36.06, 236.57 26.57, 259.43 0.27 M220.07 45.55 C234.97 28.4, 249.88 11.25, 259.43 0.27 M230.7 45.51 C244.66 29.45, 258.62 13.4, 270.06 0.23 M230.7 45.51 C242.02 32.48, 253.35 19.45, 270.06 0.23 M241.33 45.48 C249.67 35.89, 258.01 26.29, 280.69 0.2 M241.33 45.48 C256.93 27.53, 272.54 9.57, 280.69 0.2 M251.96 45.44 C266.2 29.06, 280.45 12.67, 291.32 0.16 M251.96 45.44 C265.61 29.74, 279.26 14.03, 291.32 0.16 M262.59 45.41 C277.45 28.32, 292.3 11.22, 301.95 0.13 M262.59 45.41 C274.94 31.2, 287.29 16.99, 301.95 0.13 M273.22 45.38 C287.93 28.45, 302.63 11.53, 312.58 0.09 M273.22 45.38 C283.25 33.83, 293.29 22.28, 312.58 0.09 M283.85 45.34 C297.92 29.15, 312 12.95, 323.21 0.06 M283.85 45.34 C298.05 29, 312.26 12.65, 323.21 0.06 M294.48 45.31 C309.38 28.16, 324.29 11.01, 333.84 0.02 M294.48 45.31 C306.47 31.5, 318.47 17.7, 333.84 0.02 M305.11 45.27 C316.07 32.66, 327.03 20.05, 344.47 -0.01 M305.11 45.27 C316.63 32.01, 328.16 18.75, 344.47 -0.01 M315.08 45.99 C324.71 34.91, 334.34 23.83, 355.1 -0.04 M315.08 45.99 C327.64 31.55, 340.2 17.1, 355.1 -0.04 M325.71 45.96 C339.14 30.51, 352.57 15.06, 365.07 0.68 M325.71 45.96 C341.05 28.32, 356.38 10.68, 365.07 0.68 M336.34 45.92 C348.08 32.42, 359.81 18.92, 375.7 0.64 M336.34 45.92 C345.18 35.75, 354.02 25.58, 375.7 0.64 M346.97 45.89 C355.71 35.84, 364.44 25.79, 386.33 0.61 M346.97 45.89 C357.06 34.28, 367.15 22.68, 386.33 0.61 M357.6 45.85 C371.97 29.33, 386.33 12.8, 396.96 0.57 M357.6 45.85 C369.6 32.05, 381.59 18.25, 396.96 0.57 M368.23 45.82 C378.93 33.51, 389.63 21.2, 407.59 0.54 M368.23 45.82 C377.01 35.72, 385.79 25.62, 407.59 0.54 M378.86 45.79 C391.84 30.86, 404.81 15.93, 418.22 0.5 M378.86 45.79 C392.51 30.08, 406.17 14.37, 418.22 0.5 M389.49 45.75 C400.94 32.58, 412.38 19.42, 425.57 4.24 M389.49 45.75 C401.94 31.43, 414.38 17.12, 425.57 4.24 M400.12 45.72 C410.16 34.17, 420.2 22.62, 428.33 13.26 M400.12 45.72 C407.7 37, 415.27 28.29, 428.33 13.26 M410.75 45.68 C415.34 40.4, 419.93 35.12, 428.46 25.31 M410.75 45.68 C414.33 41.57, 417.9 37.45, 428.46 25.31 M422.04 44.89 C423.52 43.19, 425 41.48, 427.29 38.86 M422.04 44.89 C423.68 43.01, 425.31 41.12, 427.29 38.86" stroke="#fff0f6" stroke-width="1" fill="none"></path><path d="M11.25 0 C128.1 0, 244.94 0, 416.39 0 M11.25 0 C126.43 0, 241.61 0, 416.39 0 M416.39 0 C423.89 0, 427.64 3.75, 427.64 11.25 M416.39 0 C423.89 0, 427.64 3.75, 427.64 11.25 M427.64 11.25 C427.64 17.24, 427.64 23.23, 427.64 33.75 M427.64 11.25 C427.64 19.3, 427.64 27.35, 427.64 33.75 M427.64 33.75 C427.64 41.25, 423.89 45, 416.39 45 M427.64 33.75 C427.64 41.25, 423.89 45, 416.39 45 M416.39 45 C279.99 45, 143.6 45, 11.25 45 M416.39 45 C297.4 45, 178.4 45, 11.25 45 M11.25 45 C3.75 45, 0 41.25, 0 33.75 M11.25 45 C3.75 45, 0 41.25, 0 33.75 M0 33.75 C0 27.29, 0 20.84, 0 11.25 M0 33.75 C0 27.72, 0 21.69, 0 11.25 M0 11.25 C0 3.75, 3.75 0, 11.25 0 M0 11.25 C0 3.75, 3.75 0, 11.25 0" stroke="#c2255c" stroke-width="2" fill="none"></path></g><g transform="translate(274.7602064428329 15) rotate(0 70 17.5)"><text x="70" y="26.712" font-family="Nunito, sans-serif, Segoe UI Emoji" font-size="28px" fill="#c2255c" text-anchor="middle" style="white-space: pre;" direction="ltr" dominant-baseline="alphabetic">割れている</text></g><g stroke-linecap="round" transform="translate(130.93876271381214 65.17001489541667) rotate(0 133.4067959209508 22.5)"><path d="M2.99 2.6 C2.99 2.6, 2.99 2.6, 2.99 2.6 M2.99 2.6 C2.99 2.6, 2.99 2.6, 2.99 2.6 M0.5 17.66 C6.03 11.3, 11.56 4.94, 15.59 0.3 M0.5 17.66 C4.58 12.98, 8.65 8.29, 15.59 0.3 M0.64 29.7 C10.26 18.63, 19.88 7.56, 26.22 0.27 M0.64 29.7 C8.83 20.28, 17.02 10.85, 26.22 0.27 M2.08 40.24 C10.69 30.34, 19.29 20.44, 36.85 0.24 M2.08 40.24 C9.62 31.56, 17.16 22.89, 36.85 0.24 M8.78 44.73 C17.73 34.43, 26.68 24.13, 47.48 0.2 M8.78 44.73 C16.77 35.54, 24.76 26.34, 47.48 0.2 M18.75 45.45 C27.45 35.45, 36.14 25.44, 58.11 0.17 M18.75 45.45 C27.36 35.55, 35.97 25.64, 58.11 0.17 M29.38 45.41 C41.25 31.76, 53.11 18.11, 68.74 0.13 M29.38 45.41 C41.81 31.11, 54.24 16.81, 68.74 0.13 M40.01 45.38 C51.84 31.77, 63.67 18.16, 79.37 0.1 M40.01 45.38 C53.51 29.85, 67.02 14.31, 79.37 0.1 M50.64 45.35 C63.93 30.05, 77.23 14.76, 90 0.06 M50.64 45.35 C65.53 28.21, 80.42 11.08, 90 0.06 M61.27 45.31 C76.03 28.33, 90.79 11.36, 100.63 0.03 M61.27 45.31 C76.32 27.99, 91.38 10.67, 100.63 0.03 M71.9 45.28 C86.31 28.69, 100.73 12.11, 111.26 -0.01 M71.9 45.28 C81.7 34, 91.51 22.72, 111.26 -0.01 M81.87 46 C90.19 36.43, 98.5 26.87, 121.89 -0.04 M81.87 46 C92.06 34.28, 102.25 22.56, 121.89 -0.04 M92.5 45.96 C103.84 32.92, 115.18 19.87, 131.87 0.68 M92.5 45.96 C104.63 32.01, 116.76 18.06, 131.87 0.68 M103.13 45.93 C112.49 35.16, 121.85 24.39, 142.5 0.65 M103.13 45.93 C111.08 36.79, 119.02 27.65, 142.5 0.65 M113.76 45.89 C124.77 33.23, 135.78 20.57, 153.13 0.61 M113.76 45.89 C124.02 34.1, 134.27 22.3, 153.13 0.61 M124.39 45.86 C139.3 28.72, 154.2 11.57, 163.76 0.58 M124.39 45.86 C139.82 28.11, 155.25 10.37, 163.76 0.58 M135.02 45.82 C150.45 28.08, 165.88 10.33, 174.39 0.54 M135.02 45.82 C148.27 30.59, 161.51 15.36, 174.39 0.54 M145.65 45.79 C154.27 35.88, 162.88 25.97, 185.02 0.51 M145.65 45.79 C158.15 31.42, 170.64 17.05, 185.02 0.51 M156.28 45.76 C170.1 29.86, 183.92 13.96, 195.65 0.47 M156.28 45.76 C167.73 32.58, 179.18 19.41, 195.65 0.47 M166.91 45.72 C175.67 35.65, 184.42 25.59, 206.28 0.44 M166.91 45.72 C182.5 27.8, 198.08 9.87, 206.28 0.44 M177.54 45.69 C191.65 29.46, 205.76 13.23, 216.91 0.4 M177.54 45.69 C185.57 36.45, 193.6 27.22, 216.91 0.4 M188.17 45.65 C201.07 30.82, 213.96 15.99, 227.54 0.37 M188.17 45.65 C202.73 28.91, 217.29 12.16, 227.54 0.37 M198.81 45.62 C210.22 32.48, 221.64 19.35, 238.17 0.33 M198.81 45.62 C209.86 32.91, 220.91 20.19, 238.17 0.33 M209.44 45.58 C223.15 29.81, 236.86 14.04, 248.8 0.3 M209.44 45.58 C221.52 31.69, 233.6 17.79, 248.8 0.3 M220.07 45.55 C231.76 32.09, 243.46 18.64, 259.43 0.27 M220.07 45.55 C229.96 34.17, 239.85 22.79, 259.43 0.27 M230.7 45.51 C243.67 30.58, 256.65 15.65, 265.47 5.51 M230.7 45.51 C244.59 29.53, 258.49 13.54, 265.47 5.51 M241.33 45.48 C246.59 39.42, 251.86 33.36, 266.91 16.05 M241.33 45.48 C250.81 34.57, 260.3 23.66, 266.91 16.05 M251.96 45.44 C257.48 39.09, 263 32.74, 267.04 28.09 M251.96 45.44 C257.47 39.1, 262.99 32.75, 267.04 28.09" stroke="#e7f5ff" stroke-width="1" fill="none"></path><path d="M11.25 0 C79.74 0, 148.23 0, 255.56 0 M11.25 0 C88.53 0, 165.82 0, 255.56 0 M255.56 0 C263.06 0, 266.81 3.75, 266.81 11.25 M255.56 0 C263.06 0, 266.81 3.75, 266.81 11.25 M266.81 11.25 C266.81 20.05, 266.81 28.85, 266.81 33.75 M266.81 11.25 C266.81 18, 266.81 24.75, 266.81 33.75 M266.81 33.75 C266.81 41.25, 263.06 45, 255.56 45 M266.81 33.75 C266.81 41.25, 263.06 45, 255.56 45 M255.56 45 C161.14 45, 66.72 45, 11.25 45 M255.56 45 C192.24 45, 128.92 45, 11.25 45 M11.25 45 C3.75 45, 0 41.25, 0 33.75 M11.25 45 C3.75 45, 0 41.25, 0 33.75 M0 33.75 C0 29.1, 0 24.45, 0 11.25 M0 33.75 C0 25.51, 0 17.27, 0 11.25 M0 11.25 C0 3.75, 3.75 0, 11.25 0 M0 11.25 C0 3.75, 3.75 0, 11.25 0" stroke="#1971c2" stroke-width="2" fill="none"></path></g><g transform="translate(194.3455586347627 70.17001489541667) rotate(0 70 17.5)"><text x="70" y="26.712" font-family="Nunito, sans-serif, Segoe UI Emoji" font-size="28px" fill="#1971c2" text-anchor="middle" style="white-space: pre;" direction="ltr" dominant-baseline="alphabetic">割れていた</text></g><g stroke-linecap="round"><g transform="translate(10 127.13845192099802) rotate(0 303.9133111621122 0)"><path d="M0 0 C185.9 0, 371.8 0, 607.83 0 M0 0 C230.58 0, 461.16 0, 607.83 0" stroke="#343a40" stroke-width="2" fill="none"></path></g><g transform="translate(10 127.13845192099802) rotate(0 303.9133111621122 0)"><path d="M607.83 0 L594.23 6.34 L594.23 -6.34 L607.83 0" stroke="none" stroke-width="0" fill="#343a40" fill-rule="evenodd"></path><path d="M607.83 0 C603.67 1.94, 599.51 3.88, 594.23 6.34 M607.83 0 C602.67 2.4, 597.51 4.81, 594.23 6.34 M594.23 6.34 C594.23 2.96, 594.23 -0.41, 594.23 -6.34 M594.23 6.34 C594.23 1.8, 594.23 -2.73, 594.23 -6.34 M594.23 -6.34 C598.49 -4.35, 602.75 -2.37, 607.83 0 M594.23 -6.34 C599.32 -3.97, 604.4 -1.6, 607.83 0 M607.83 0 C607.83 0, 607.83 0, 607.83 0 M607.83 0 C607.83 0, 607.83 0, 607.83 0" stroke="#343a40" stroke-width="2" fill="none"></path></g></g><mask></mask><g transform="translate(476.2281762991515 144.10688851421605) rotate(0 14 17.5)"><text x="14" y="26.712" font-family="Nunito, sans-serif, Segoe UI Emoji" font-size="28px" fill="#343a40" text-anchor="middle" style="white-space: pre;" direction="ltr" dominant-baseline="alphabetic">今</text></g><g transform="translate(95.59844672392046 144.10688858979233) rotate(0 42 17.5)"><text x="42" y="26.712" font-family="Nunito, sans-serif, Segoe UI Emoji" font-size="28px" fill="#343a40" text-anchor="middle" style="white-space: pre;" direction="ltr" dominant-baseline="alphabetic">割れた</text></g><g transform="translate(243.91331144580727 144.1068884773224) rotate(0 70 17.5)"><text x="70" y="26.712" font-family="Nunito, sans-serif, Segoe UI Emoji" font-size="28px" fill="#343a40" text-anchor="middle" style="white-space: pre;" direction="ltr" dominant-baseline="alphabetic">入ったとき</text></g><g stroke-linecap="round" transform="translate(130.93876306701713 120.34003034134162) rotate(0 6.6596837900256105 6.798421480934962)"><path d="M13.32 6.8 C13.32 7.19, 13.29 7.59, 13.22 7.98 C13.15 8.37, 13.05 8.75, 12.92 9.12 C12.79 9.49, 12.62 9.86, 12.43 10.2 C12.23 10.54, 12.01 10.87, 11.76 11.17 C11.51 11.47, 11.24 11.75, 10.94 12.01 C10.65 12.26, 10.32 12.49, 9.99 12.69 C9.66 12.88, 9.3 13.05, 8.94 13.19 C8.58 13.32, 8.2 13.43, 7.82 13.49 C7.44 13.56, 7.05 13.6, 6.66 13.6 C6.27 13.6, 5.88 13.56, 5.5 13.49 C5.12 13.43, 4.74 13.32, 4.38 13.19 C4.02 13.05, 3.66 12.88, 3.33 12.69 C3 12.49, 2.67 12.26, 2.38 12.01 C2.08 11.75, 1.81 11.47, 1.56 11.17 C1.31 10.87, 1.08 10.54, 0.89 10.2 C0.7 9.86, 0.53 9.49, 0.4 9.12 C0.27 8.75, 0.17 8.37, 0.1 7.98 C0.03 7.59, 0 7.19, 0 6.8 C0 6.4, 0.03 6.01, 0.1 5.62 C0.17 5.23, 0.27 4.84, 0.4 4.47 C0.53 4.1, 0.7 3.74, 0.89 3.4 C1.08 3.06, 1.31 2.73, 1.56 2.43 C1.81 2.13, 2.08 1.84, 2.38 1.59 C2.67 1.34, 3 1.11, 3.33 0.91 C3.66 0.71, 4.02 0.54, 4.38 0.41 C4.74 0.28, 5.12 0.17, 5.5 0.1 C5.88 0.03, 6.27 0, 6.66 0 C7.05 0, 7.44 0.03, 7.82 0.1 C8.2 0.17, 8.58 0.28, 8.94 0.41 C9.3 0.54, 9.66 0.71, 9.99 0.91 C10.32 1.11, 10.65 1.34, 10.94 1.59 C11.24 1.84, 11.51 2.13, 11.76 2.43 C12.01 2.73, 12.23 3.06, 12.43 3.4 C12.62 3.74, 12.79 4.1, 12.92 4.47 C13.05 4.84, 13.15 5.23, 13.22 5.62 C13.29 6.01, 13.3 6.6, 13.32 6.8 C13.34 7, 13.34 6.6, 13.32 6.8" stroke="none" stroke-width="0" fill="#343a40"></path><path d="M13.32 6.8 C13.32 7.19, 13.29 7.59, 13.22 7.98 C13.15 8.37, 13.05 8.75, 12.92 9.12 C12.79 9.49, 12.62 9.86, 12.43 10.2 C12.23 10.54, 12.01 10.87, 11.76 11.17 C11.51 11.47, 11.24 11.75, 10.94 12.01 C10.65 12.26, 10.32 12.49, 9.99 12.69 C9.66 12.88, 9.3 13.05, 8.94 13.19 C8.58 13.32, 8.2 13.43, 7.82 13.49 C7.44 13.56, 7.05 13.6, 6.66 13.6 C6.27 13.6, 5.88 13.56, 5.5 13.49 C5.12 13.43, 4.74 13.32, 4.38 13.19 C4.02 13.05, 3.66 12.88, 3.33 12.69 C3 12.49, 2.67 12.26, 2.38 12.01 C2.08 11.75, 1.81 11.47, 1.56 11.17 C1.31 10.87, 1.08 10.54, 0.89 10.2 C0.7 9.86, 0.53 9.49, 0.4 9.12 C0.27 8.75, 0.17 8.37, 0.1 7.98 C0.03 7.59, 0 7.19, 0 6.8 C0 6.4, 0.03 6.01, 0.1 5.62 C0.17 5.23, 0.27 4.84, 0.4 4.47 C0.53 4.1, 0.7 3.74, 0.89 3.4 C1.08 3.06, 1.31 2.73, 1.56 2.43 C1.81 2.13, 2.08 1.84, 2.38 1.59 C2.67 1.34, 3 1.11, 3.33 0.91 C3.66 0.71, 4.02 0.54, 4.38 0.41 C4.74 0.28, 5.12 0.17, 5.5 0.1 C5.88 0.03, 6.27 0, 6.66 0 C7.05 0, 7.44 0.03, 7.82 0.1 C8.2 0.17, 8.58 0.28, 8.94 0.41 C9.3 0.54, 9.66 0.71, 9.99 0.91 C10.32 1.11, 10.65 1.34, 10.94 1.59 C11.24 1.84, 11.51 2.13, 11.76 2.43 C12.01 2.73, 12.23 3.06, 12.43 3.4 C12.62 3.74, 12.79 4.1, 12.92 4.47 C13.05 4.84, 13.15 5.23, 13.22 5.62 C13.29 6.01, 13.3 6.6, 13.32 6.8 C13.34 7, 13.34 6.6, 13.32 6.8" stroke="#343a40" stroke-width="1" fill="none"></path></g><g stroke-linecap="round" transform="translate(483.5684919370551 120.34003034134162) rotate(0 6.6596837900256105 6.798421480934962)"><path d="M13.32 6.8 C13.32 7.19, 13.29 7.59, 13.22 7.98 C13.15 8.37, 13.05 8.75, 12.92 9.12 C12.79 9.49, 12.62 9.86, 12.43 10.2 C12.23 10.54, 12.01 10.87, 11.76 11.17 C11.51 11.47, 11.24 11.75, 10.94 12.01 C10.65 12.26, 10.32 12.49, 9.99 12.69 C9.66 12.88, 9.3 13.05, 8.94 13.19 C8.58 13.32, 8.2 13.43, 7.82 13.49 C7.44 13.56, 7.05 13.6, 6.66 13.6 C6.27 13.6, 5.88 13.56, 5.5 13.49 C5.12 13.43, 4.74 13.32, 4.38 13.19 C4.02 13.05, 3.66 12.88, 3.33 12.69 C3 12.49, 2.67 12.26, 2.38 12.01 C2.08 11.75, 1.81 11.47, 1.56 11.17 C1.31 10.87, 1.08 10.54, 0.89 10.2 C0.7 9.86, 0.53 9.49, 0.4 9.12 C0.27 8.75, 0.17 8.37, 0.1 7.98 C0.03 7.59, 0 7.19, 0 6.8 C0 6.4, 0.03 6.01, 0.1 5.62 C0.17 5.23, 0.27 4.84, 0.4 4.47 C0.53 4.1, 0.7 3.74, 0.89 3.4 C1.08 3.06, 1.31 2.73, 1.56 2.43 C1.81 2.13, 2.08 1.84, 2.38 1.59 C2.67 1.34, 3 1.11, 3.33 0.91 C3.66 0.71, 4.02 0.54, 4.38 0.41 C4.74 0.28, 5.12 0.17, 5.5 0.1 C5.88 0.03, 6.27 0, 6.66 0 C7.05 0, 7.44 0.03, 7.82 0.1 C8.2 0.17, 8.58 0.28, 8.94 0.41 C9.3 0.54, 9.66 0.71, 9.99 0.91 C10.32 1.11, 10.65 1.34, 10.94 1.59 C11.24 1.84, 11.51 2.13, 11.76 2.43 C12.01 2.73, 12.23 3.06, 12.43 3.4 C12.62 3.74, 12.79 4.1, 12.92 4.47 C13.05 4.84, 13.15 5.23, 13.22 5.62 C13.29 6.01, 13.3 6.6, 13.32 6.8 C13.34 7, 13.34 6.6, 13.32 6.8" stroke="none" stroke-width="0" fill="#343a40"></path><path d="M13.32 6.8 C13.32 7.19, 13.29 7.59, 13.22 7.98 C13.15 8.37, 13.05 8.75, 12.92 9.12 C12.79 9.49, 12.62 9.86, 12.43 10.2 C12.23 10.54, 12.01 10.87, 11.76 11.17 C11.51 11.47, 11.24 11.75, 10.94 12.01 C10.65 12.26, 10.32 12.49, 9.99 12.69 C9.66 12.88, 9.3 13.05, 8.94 13.19 C8.58 13.32, 8.2 13.43, 7.82 13.49 C7.44 13.56, 7.05 13.6, 6.66 13.6 C6.27 13.6, 5.88 13.56, 5.5 13.49 C5.12 13.43, 4.74 13.32, 4.38 13.19 C4.02 13.05, 3.66 12.88, 3.33 12.69 C3 12.49, 2.67 12.26, 2.38 12.01 C2.08 11.75, 1.81 11.47, 1.56 11.17 C1.31 10.87, 1.08 10.54, 0.89 10.2 C0.7 9.86, 0.53 9.49, 0.4 9.12 C0.27 8.75, 0.17 8.37, 0.1 7.98 C0.03 7.59, 0 7.19, 0 6.8 C0 6.4, 0.03 6.01, 0.1 5.62 C0.17 5.23, 0.27 4.84, 0.4 4.47 C0.53 4.1, 0.7 3.74, 0.89 3.4 C1.08 3.06, 1.31 2.73, 1.56 2.43 C1.81 2.13, 2.08 1.84, 2.38 1.59 C2.67 1.34, 3 1.11, 3.33 0.91 C3.66 0.71, 4.02 0.54, 4.38 0.41 C4.74 0.28, 5.12 0.17, 5.5 0.1 C5.88 0.03, 6.27 0, 6.66 0 C7.05 0, 7.44 0.03, 7.82 0.1 C8.2 0.17, 8.58 0.28, 8.94 0.41 C9.3 0.54, 9.66 0.71, 9.99 0.91 C10.32 1.11, 10.65 1.34, 10.94 1.59 C11.24 1.84, 11.51 2.13, 11.76 2.43 C12.01 2.73, 12.23 3.06, 12.43 3.4 C12.62 3.74, 12.79 4.1, 12.92 4.47 C13.05 4.84, 13.15 5.23, 13.22 5.62 C13.29 6.01, 13.3 6.6, 13.32 6.8 C13.34 7, 13.34 6.6, 13.32 6.8" stroke="#343a40" stroke-width="1" fill="none"></path></g><g stroke-linecap="round" transform="translate(307.2536275020366 120.34003034134162) rotate(0 6.6596837900256105 6.798421480934962)"><path d="M13.32 6.8 C13.32 7.19, 13.29 7.59, 13.22 7.98 C13.15 8.37, 13.05 8.75, 12.92 9.12 C12.79 9.49, 12.62 9.86, 12.43 10.2 C12.23 10.54, 12.01 10.87, 11.76 11.17 C11.51 11.47, 11.24 11.75, 10.94 12.01 C10.65 12.26, 10.32 12.49, 9.99 12.69 C9.66 12.88, 9.3 13.05, 8.94 13.19 C8.58 13.32, 8.2 13.43, 7.82 13.49 C7.44 13.56, 7.05 13.6, 6.66 13.6 C6.27 13.6, 5.88 13.56, 5.5 13.49 C5.12 13.43, 4.74 13.32, 4.38 13.19 C4.02 13.05, 3.66 12.88, 3.33 12.69 C3 12.49, 2.67 12.26, 2.38 12.01 C2.08 11.75, 1.81 11.47, 1.56 11.17 C1.31 10.87, 1.08 10.54, 0.89 10.2 C0.7 9.86, 0.53 9.49, 0.4 9.12 C0.27 8.75, 0.17 8.37, 0.1 7.98 C0.03 7.59, 0 7.19, 0 6.8 C0 6.4, 0.03 6.01, 0.1 5.62 C0.17 5.23, 0.27 4.84, 0.4 4.47 C0.53 4.1, 0.7 3.74, 0.89 3.4 C1.08 3.06, 1.31 2.73, 1.56 2.43 C1.81 2.13, 2.08 1.84, 2.38 1.59 C2.67 1.34, 3 1.11, 3.33 0.91 C3.66 0.71, 4.02 0.54, 4.38 0.41 C4.74 0.28, 5.12 0.17, 5.5 0.1 C5.88 0.03, 6.27 0, 6.66 0 C7.05 0, 7.44 0.03, 7.82 0.1 C8.2 0.17, 8.58 0.28, 8.94 0.41 C9.3 0.54, 9.66 0.71, 9.99 0.91 C10.32 1.11, 10.65 1.34, 10.94 1.59 C11.24 1.84, 11.51 2.13, 11.76 2.43 C12.01 2.73, 12.23 3.06, 12.43 3.4 C12.62 3.74, 12.79 4.1, 12.92 4.47 C13.05 4.84, 13.15 5.23, 13.22 5.62 C13.29 6.01, 13.3 6.6, 13.32 6.8 C13.34 7, 13.34 6.6, 13.32 6.8" stroke="none" stroke-width="0" fill="#343a40"></path><path d="M13.32 6.8 C13.32 7.19, 13.29 7.59, 13.22 7.98 C13.15 8.37, 13.05 8.75, 12.92 9.12 C12.79 9.49, 12.62 9.86, 12.43 10.2 C12.23 10.54, 12.01 10.87, 11.76 11.17 C11.51 11.47, 11.24 11.75, 10.94 12.01 C10.65 12.26, 10.32 12.49, 9.99 12.69 C9.66 12.88, 9.3 13.05, 8.94 13.19 C8.58 13.32, 8.2 13.43, 7.82 13.49 C7.44 13.56, 7.05 13.6, 6.66 13.6 C6.27 13.6, 5.88 13.56, 5.5 13.49 C5.12 13.43, 4.74 13.32, 4.38 13.19 C4.02 13.05, 3.66 12.88, 3.33 12.69 C3 12.49, 2.67 12.26, 2.38 12.01 C2.08 11.75, 1.81 11.47, 1.56 11.17 C1.31 10.87, 1.08 10.54, 0.89 10.2 C0.7 9.86, 0.53 9.49, 0.4 9.12 C0.27 8.75, 0.17 8.37, 0.1 7.98 C0.03 7.59, 0 7.19, 0 6.8 C0 6.4, 0.03 6.01, 0.1 5.62 C0.17 5.23, 0.27 4.84, 0.4 4.47 C0.53 4.1, 0.7 3.74, 0.89 3.4 C1.08 3.06, 1.31 2.73, 1.56 2.43 C1.81 2.13, 2.08 1.84, 2.38 1.59 C2.67 1.34, 3 1.11, 3.33 0.91 C3.66 0.71, 4.02 0.54, 4.38 0.41 C4.74 0.28, 5.12 0.17, 5.5 0.1 C5.88 0.03, 6.27 0, 6.66 0 C7.05 0, 7.44 0.03, 7.82 0.1 C8.2 0.17, 8.58 0.28, 8.94 0.41 C9.3 0.54, 9.66 0.71, 9.99 0.91 C10.32 1.11, 10.65 1.34, 10.94 1.59 C11.24 1.84, 11.51 2.13, 11.76 2.43 C12.01 2.73, 12.23 3.06, 12.43 3.4 C12.62 3.74, 12.79 4.1, 12.92 4.47 C13.05 4.84, 13.15 5.23, 13.22 5.62 C13.29 6.01, 13.3 6.6, 13.32 6.8 C13.34 7, 13.34 6.6, 13.32 6.8" stroke="#343a40" stroke-width="1" fill="none"></path></g></svg>