<svg version="1.1" xmlns="http://www.w3.org/2000/svg" viewBox="0 0 813.0594792005352 178.74213643371513" width="813.0594792005352" height="178.74213643371513"><!-- svg-source:excalidraw --><metadata></metadata><defs><style class="style-fonts">
      </style></defs><g stroke-linecap="round" transform="translate(37.47197895234001 12.831103237604566) rotate(0 22.68293355221246 22.68293355221249)"><path d="M5.07 8.38 C5.07 8.38, 5.07 8.38, 5.07 8.38 M5.07 8.38 C5.07 8.38, 5.07 8.38, 5.07 8.38 M0.87 19.31 C4.14 15.55, 7.4 11.79, 16.61 1.19 M0.87 19.31 C6.83 12.44, 12.8 5.58, 16.61 1.19 M0.61 25.7 C9.1 15.94, 17.58 6.17, 22.91 0.04 M0.61 25.7 C6.69 18.7, 12.78 11.7, 22.91 0.04 M1.66 30.59 C7.25 24.15, 12.85 17.72, 27.9 0.4 M1.66 30.59 C7.2 24.22, 12.74 17.84, 27.9 0.4 M3.36 34.73 C12.11 24.67, 20.85 14.62, 31.58 2.27 M3.36 34.73 C9.28 27.92, 15.2 21.11, 31.58 2.27 M5.73 38.1 C15.34 27.04, 24.96 15.98, 35.25 4.14 M5.73 38.1 C17.18 24.93, 28.64 11.75, 35.25 4.14 M8.75 40.73 C20.06 27.71, 31.38 14.69, 38.27 6.77 M8.75 40.73 C17.69 30.44, 26.64 20.14, 38.27 6.77 M11.76 43.35 C23.2 30.2, 34.63 17.04, 41.29 9.39 M11.76 43.35 C23.11 30.31, 34.45 17.26, 41.29 9.39 M16.1 44.47 C22.73 36.83, 29.37 29.2, 43.65 12.77 M16.1 44.47 C23.46 36, 30.81 27.54, 43.65 12.77 M20.43 45.58 C29.18 35.51, 37.93 25.44, 44.7 17.66 M20.43 45.58 C25.98 39.2, 31.53 32.81, 44.7 17.66 M26.07 45.19 C31.83 38.56, 37.6 31.93, 45.75 22.55 M26.07 45.19 C32.38 37.92, 38.7 30.66, 45.75 22.55 M33.03 43.28 C35.57 40.35, 38.12 37.42, 44.18 30.45 M33.03 43.28 C35.31 40.65, 37.6 38.02, 44.18 30.45 M7.8 39.8 C7.8 39.8, 7.8 39.8, 7.8 39.8 M7.8 39.8 C7.8 39.8, 7.8 39.8, 7.8 39.8 M19.48 44.65 C14.15 40.02, 8.82 35.38, 1.37 28.91 M19.48 44.65 C13.1 39.1, 6.71 33.54, 1.37 28.91 M25.88 44.91 C18.89 38.83, 11.89 32.75, 0.22 22.61 M25.88 44.91 C18.27 38.29, 10.65 31.67, 0.22 22.61 M30.77 43.86 C22.26 36.47, 13.76 29.08, 0.58 17.62 M30.77 43.86 C19.78 34.31, 8.78 24.75, 0.58 17.62 M34.15 41.5 C22.34 31.24, 10.53 20.97, 2.45 13.95 M34.15 41.5 C25.25 33.77, 16.36 26.04, 2.45 13.95 M37.53 39.14 C29.74 32.37, 21.96 25.61, 4.32 10.27 M37.53 39.14 C27.98 30.84, 18.43 22.53, 4.32 10.27 M40.91 36.78 C33.58 30.4, 26.25 24.03, 6.19 6.6 M40.91 36.78 C31.29 28.41, 21.67 20.05, 6.19 6.6 M42.78 33.1 C35.59 26.85, 28.39 20.6, 9.57 4.23 M42.78 33.1 C35.29 26.59, 27.8 20.08, 9.57 4.23 M44.65 29.43 C33.55 19.78, 22.45 10.13, 12.95 1.87 M44.65 29.43 C34.23 20.37, 23.81 11.31, 12.95 1.87 M45.76 25.09 C39.82 19.93, 33.88 14.77, 17.84 0.82 M45.76 25.09 C39.19 19.38, 32.62 13.67, 17.84 0.82 M45.37 19.45 C38.08 13.12, 30.79 6.78, 22.73 -0.23 M45.37 19.45 C36.71 11.92, 28.05 4.4, 22.73 -0.23 M43.46 12.5 C40.54 9.96, 37.62 7.42, 30.63 1.34 M43.46 12.5 C40.53 9.94, 37.59 7.39, 30.63 1.34" stroke="#1971c2" stroke-width="0.5" fill="none"></path><path d="M45.37 22.68 C45.37 24, 45.25 25.33, 45.02 26.62 C44.79 27.91, 44.45 29.21, 44 30.44 C43.55 31.67, 42.98 32.89, 42.33 34.02 C41.67 35.16, 40.9 36.26, 40.06 37.26 C39.22 38.27, 38.27 39.22, 37.26 40.06 C36.26 40.9, 35.16 41.67, 34.02 42.33 C32.89 42.98, 31.67 43.55, 30.44 44 C29.21 44.45, 27.91 44.79, 26.62 45.02 C25.33 45.25, 24 45.37, 22.68 45.37 C21.37 45.37, 20.04 45.25, 18.74 45.02 C17.45 44.79, 16.16 44.45, 14.92 44 C13.69 43.55, 12.48 42.98, 11.34 42.33 C10.2 41.67, 9.11 40.9, 8.1 40.06 C7.1 39.22, 6.15 38.27, 5.31 37.26 C4.46 36.26, 3.7 35.16, 3.04 34.02 C2.38 32.89, 1.82 31.67, 1.37 30.44 C0.92 29.21, 0.57 27.91, 0.34 26.62 C0.12 25.33, 0 24, 0 22.68 C0 21.37, 0.12 20.04, 0.34 18.74 C0.57 17.45, 0.92 16.16, 1.37 14.92 C1.82 13.69, 2.38 12.48, 3.04 11.34 C3.7 10.2, 4.46 9.11, 5.31 8.1 C6.15 7.1, 7.1 6.15, 8.1 5.31 C9.11 4.46, 10.2 3.7, 11.34 3.04 C12.48 2.38, 13.69 1.82, 14.92 1.37 C16.16 0.92, 17.45 0.57, 18.74 0.34 C20.04 0.12, 21.37 0, 22.68 0 C24 0, 25.33 0.12, 26.62 0.34 C27.91 0.57, 29.21 0.92, 30.44 1.37 C31.67 1.82, 32.89 2.38, 34.02 3.04 C35.16 3.7, 36.26 4.46, 37.26 5.31 C38.27 6.15, 39.22 7.1, 40.06 8.1 C40.9 9.11, 41.67 10.2, 42.33 11.34 C42.98 12.48, 43.55 13.69, 44 14.92 C44.45 16.16, 44.79 17.45, 45.02 18.74 C45.25 20.04, 45.31 22.03, 45.37 22.68 C45.42 23.34, 45.42 22.03, 45.37 22.68" stroke="#1971c2" stroke-width="1" fill="none"></path></g><g stroke-linecap="round"><g transform="translate(29.78737728302241 81.75818594440625) rotate(0 20.317737851661526 10.129753045730808)" fill-rule="evenodd"><path d="M0 0 C0 0, 0 0, 0 0 M0 0 C0 0, 0 0, 0 0 M-12.73 20.74 C-2.75 9.26, 7.23 -2.22, 24.67 -22.28 M-12.73 20.74 C-3.01 9.56, 6.7 -1.61, 24.67 -22.28 M-18.89 33.93 C-0.3 12.54, 18.29 -8.84, 30.31 -22.68 M-18.89 33.93 C-5.37 18.37, 8.16 2.81, 30.31 -22.68 M-19.15 40.33 C-6.41 25.66, 6.34 11, 33.99 -20.81 M-19.15 40.33 C-5.92 25.1, 7.31 9.88, 33.99 -20.81 M-16.14 42.95 C-0.82 25.33, 14.49 7.71, 37.01 -18.18 M-16.14 42.95 C4.78 18.89, 25.69 -5.16, 37.01 -18.18 M-12.46 44.82 C4.71 25.07, 21.88 5.31, 39.37 -14.8 M-12.46 44.82 C5.74 23.88, 23.94 2.94, 39.37 -14.8 M-8.13 45.93 C5.16 30.65, 18.44 15.37, 41.73 -11.42 M-8.13 45.93 C3.38 32.69, 14.9 19.45, 41.73 -11.42 M-3.8 47.05 C10.15 31.01, 24.09 14.97, 43.44 -7.29 M-3.8 47.05 C12.34 28.48, 28.48 9.92, 43.44 -7.29 M1.19 47.41 C11.86 35.13, 22.54 22.85, 45.8 -3.91 M1.19 47.41 C11.32 35.75, 21.46 24.09, 45.8 -3.91 M6.18 47.77 C20.88 30.85, 35.59 13.93, 47.51 0.22 M6.18 47.77 C14.45 38.25, 22.73 28.72, 47.51 0.22 M11.16 48.13 C20.98 36.84, 30.8 25.54, 49.87 3.6 M11.16 48.13 C25.76 31.34, 40.36 14.54, 49.87 3.6 M16.15 48.49 C27.06 35.94, 37.97 23.39, 51.58 7.73 M16.15 48.49 C23.65 39.86, 31.15 31.23, 51.58 7.73 M21.14 48.85 C33.5 34.63, 45.86 20.41, 53.94 11.11 M21.14 48.85 C31.97 36.39, 42.8 23.92, 53.94 11.11 M26.12 49.21 C32.51 41.86, 38.9 34.51, 55.65 15.25 M26.12 49.21 C33.96 40.2, 41.79 31.18, 55.65 15.25 M31.77 48.81 C41.91 37.14, 52.06 25.47, 57.35 19.38 M31.77 48.81 C39.21 40.26, 46.64 31.7, 57.35 19.38 M36.75 49.17 C43.61 41.29, 50.46 33.41, 58.4 24.27 M36.75 49.17 C44.44 40.33, 52.13 31.48, 58.4 24.27 M42.4 48.78 C47.87 42.49, 53.34 36.2, 59.45 29.16 M42.4 48.78 C47.81 42.55, 53.23 36.32, 59.45 29.16 M49.35 46.88 C52.65 43.09, 55.94 39.3, 59.85 34.8 M49.35 46.88 C52.29 43.5, 55.23 40.12, 59.85 34.8 M-17.24 42.69 C-17.24 42.69, -17.24 42.69, -17.24 42.69 M-17.24 42.69 C-17.24 42.69, -17.24 42.69, -17.24 42.69 M-7.82 45.58 C-11.04 42.78, -14.26 39.98, -19.14 35.74 M-7.82 45.58 C-11.7 42.2, -15.58 38.83, -19.14 35.74 M-0.67 46.5 C-4.41 43.24, -8.15 39.99, -18.03 31.41 M-0.67 46.5 C-5.5 42.3, -10.33 38.1, -18.03 31.41 M6.49 47.41 C-2.27 39.8, -11.03 32.19, -16.91 27.07 M6.49 47.41 C0.58 42.28, -5.32 37.15, -16.91 27.07 M12.88 47.67 C7.35 42.87, 1.82 38.06, -14.29 24.06 M12.88 47.67 C4.63 40.5, -3.62 33.33, -14.29 24.06 M20.04 48.59 C10.3 40.13, 0.56 31.66, -12.42 20.38 M20.04 48.59 C12.87 42.36, 5.7 36.13, -12.42 20.38 M25.68 48.2 C13.69 37.78, 1.7 27.36, -10.55 16.71 M25.68 48.2 C12 36.31, -1.67 24.42, -10.55 16.71 M32.08 48.46 C22.13 39.81, 12.19 31.17, -7.92 13.69 M32.08 48.46 C21.44 39.21, 10.8 29.96, -7.92 13.69 M37.72 48.06 C28.66 40.19, 19.59 32.31, -6.05 10.01 M37.72 48.06 C23.18 35.42, 8.64 22.78, -6.05 10.01 M43.36 47.67 C25.44 32.09, 7.51 16.5, -4.18 6.34 M43.36 47.67 C28.63 34.86, 13.9 22.06, -4.18 6.34 M48.25 46.62 C35.21 35.28, 22.17 23.95, -1.56 3.32 M48.25 46.62 C35.56 35.59, 22.88 24.56, -1.56 3.32 M53.14 45.57 C36.61 31.2, 20.09 16.84, 0.31 -0.36 M53.14 45.57 C38.39 32.74, 23.63 19.92, 0.31 -0.36 M56.52 43.21 C43.38 31.78, 30.23 20.36, 2.93 -3.37 M56.52 43.21 C35.8 25.19, 15.07 7.18, 2.93 -3.37 M59.14 40.19 C45.55 28.37, 31.95 16.55, 5.56 -6.39 M59.14 40.19 C48.12 30.6, 37.09 21.02, 5.56 -6.39 M60.26 35.86 C43.43 21.23, 26.6 6.6, 8.94 -8.76 M60.26 35.86 C48.73 25.84, 37.2 15.82, 8.94 -8.76 M59.86 30.21 C46.92 18.96, 33.98 7.72, 11.56 -11.78 M59.86 30.21 C44.14 16.54, 28.41 2.87, 11.56 -11.78 M57.96 23.26 C49.19 15.63, 40.42 8.01, 14.19 -14.79 M57.96 23.26 C48.36 14.91, 38.75 6.56, 14.19 -14.79 M56.05 16.3 C40.9 3.13, 25.75 -10.04, 17.56 -17.16 M56.05 16.3 C41.45 3.6, 26.84 -9.1, 17.56 -17.16 M52.64 8.03 C40.79 -2.27, 28.94 -12.57, 20.94 -19.52 M52.64 8.03 C43.87 0.41, 35.09 -7.22, 20.94 -19.52 M47.72 -1.54 C39.77 -8.46, 31.82 -15.37, 24.32 -21.88 M47.72 -1.54 C40.39 -7.92, 33.06 -14.29, 24.32 -21.88 M42.8 -11.12 C38.79 -14.61, 34.78 -18.09, 28.46 -23.59 M42.8 -11.12 C39.11 -14.33, 35.42 -17.54, 28.46 -23.59" stroke="#1971c2" stroke-width="0.5" fill="none"></path><path d="M0 0 C-2.92 7.07, -27.21 35.38, -17.52 42.45 C-7.82 49.52, 49.75 53.18, 58.15 42.4 C66.55 31.63, 42.57 -15.12, 32.87 -22.19 C23.18 -29.26, 5.48 -3.7, 0 0 M0 0 C-2.92 7.07, -27.21 35.38, -17.52 42.45 C-7.82 49.52, 49.75 53.18, 58.15 42.4 C66.55 31.63, 42.57 -15.12, 32.87 -22.19 C23.18 -29.26, 5.48 -3.7, 0 0" stroke="#1971c2" stroke-width="1" fill="none"></path></g></g><mask></mask><g stroke-linecap="round" transform="translate(394.1554578075248 12.831103237604566) rotate(0 22.68293355221246 22.68293355221249)"><path d="M5.07 8.38 C5.07 8.38, 5.07 8.38, 5.07 8.38 M5.07 8.38 C5.07 8.38, 5.07 8.38, 5.07 8.38 M0.87 19.31 C7 12.25, 13.14 5.19, 16.61 1.19 M0.87 19.31 C5.79 13.64, 10.72 7.97, 16.61 1.19 M0.61 25.7 C6.71 18.68, 12.82 11.66, 22.91 0.04 M0.61 25.7 C5.29 20.32, 9.97 14.93, 22.91 0.04 M1.66 30.59 C11.73 19.01, 21.8 7.43, 27.9 0.4 M1.66 30.59 C11.46 19.31, 21.26 8.04, 27.9 0.4 M3.36 34.73 C13.36 23.22, 23.36 11.72, 31.58 2.27 M3.36 34.73 C10.38 26.66, 17.39 18.59, 31.58 2.27 M5.73 38.1 C11.73 31.2, 17.73 24.29, 35.25 4.14 M5.73 38.1 C16.11 26.15, 26.5 14.2, 35.25 4.14 M8.75 40.73 C18.96 28.98, 29.16 17.24, 38.27 6.77 M8.75 40.73 C14.84 33.71, 20.94 26.7, 38.27 6.77 M11.76 43.35 C20.95 32.78, 30.14 22.21, 41.29 9.39 M11.76 43.35 C22.89 30.55, 34.02 17.75, 41.29 9.39 M16.1 44.47 C25.96 33.11, 35.83 21.76, 43.65 12.77 M16.1 44.47 C21.68 38.05, 27.26 31.62, 43.65 12.77 M20.43 45.58 C29.9 34.68, 39.38 23.78, 44.7 17.66 M20.43 45.58 C26.08 39.08, 31.72 32.59, 44.7 17.66 M26.07 45.19 C33.39 36.76, 40.71 28.34, 45.75 22.55 M26.07 45.19 C33.17 37.02, 40.26 28.86, 45.75 22.55 M33.03 43.28 C35.75 40.15, 38.47 37.03, 44.18 30.45 M33.03 43.28 C35.9 39.98, 38.77 36.67, 44.18 30.45 M7.8 39.8 C7.8 39.8, 7.8 39.8, 7.8 39.8 M7.8 39.8 C7.8 39.8, 7.8 39.8, 7.8 39.8 M19.48 44.65 C14.13 40, 8.78 35.35, 1.37 28.91 M19.48 44.65 C15.04 40.79, 10.61 36.93, 1.37 28.91 M25.88 44.91 C18.74 38.7, 11.6 32.5, 0.22 22.61 M25.88 44.91 C18.69 38.67, 11.51 32.42, 0.22 22.61 M30.77 43.86 C22.05 36.28, 13.32 28.7, 0.58 17.62 M30.77 43.86 C20.42 34.87, 10.07 25.87, 0.58 17.62 M34.15 41.5 C21.99 30.93, 9.83 20.36, 2.45 13.95 M34.15 41.5 C27.41 35.64, 20.66 29.78, 2.45 13.95 M37.53 39.14 C24.63 27.92, 11.72 16.71, 4.32 10.27 M37.53 39.14 C25.78 28.93, 14.04 18.72, 4.32 10.27 M40.91 36.78 C29.94 27.24, 18.98 17.71, 6.19 6.6 M40.91 36.78 C32.27 29.27, 23.63 21.76, 6.19 6.6 M42.78 33.1 C33.52 25.06, 24.27 17.01, 9.57 4.23 M42.78 33.1 C34.98 26.33, 27.19 19.55, 9.57 4.23 M44.65 29.43 C34.91 20.96, 25.17 12.49, 12.95 1.87 M44.65 29.43 C37.18 22.93, 29.71 16.44, 12.95 1.87 M45.76 25.09 C38.38 18.68, 31 12.27, 17.84 0.82 M45.76 25.09 C34.65 15.43, 23.53 5.77, 17.84 0.82 M45.37 19.45 C39.47 14.33, 33.58 9.2, 22.73 -0.23 M45.37 19.45 C40.27 15.02, 35.18 10.6, 22.73 -0.23 M43.46 12.5 C38.71 8.37, 33.96 4.24, 30.63 1.34 M43.46 12.5 C40.76 10.15, 38.07 7.81, 30.63 1.34" stroke="#099268" stroke-width="0.5" fill="none"></path><path d="M45.37 22.68 C45.37 24, 45.25 25.33, 45.02 26.62 C44.79 27.91, 44.45 29.21, 44 30.44 C43.55 31.67, 42.98 32.89, 42.33 34.02 C41.67 35.16, 40.9 36.26, 40.06 37.26 C39.22 38.27, 38.27 39.22, 37.26 40.06 C36.26 40.9, 35.16 41.67, 34.02 42.33 C32.89 42.98, 31.67 43.55, 30.44 44 C29.21 44.45, 27.91 44.79, 26.62 45.02 C25.33 45.25, 24 45.37, 22.68 45.37 C21.37 45.37, 20.04 45.25, 18.74 45.02 C17.45 44.79, 16.16 44.45, 14.92 44 C13.69 43.55, 12.48 42.98, 11.34 42.33 C10.2 41.67, 9.11 40.9, 8.1 40.06 C7.1 39.22, 6.15 38.27, 5.31 37.26 C4.46 36.26, 3.7 35.16, 3.04 34.02 C2.38 32.89, 1.82 31.67, 1.37 30.44 C0.92 29.21, 0.57 27.91, 0.34 26.62 C0.12 25.33, 0 24, 0 22.68 C0 21.37, 0.12 20.04, 0.34 18.74 C0.57 17.45, 0.92 16.16, 1.37 14.92 C1.82 13.69, 2.38 12.48, 3.04 11.34 C3.7 10.2, 4.46 9.11, 5.31 8.1 C6.15 7.1, 7.1 6.15, 8.1 5.31 C9.11 4.46, 10.2 3.7, 11.34 3.04 C12.48 2.38, 13.69 1.82, 14.92 1.37 C16.16 0.92, 17.45 0.57, 18.74 0.34 C20.04 0.12, 21.37 0, 22.68 0 C24 0, 25.33 0.12, 26.62 0.34 C27.91 0.57, 29.21 0.92, 30.44 1.37 C31.67 1.82, 32.89 2.38, 34.02 3.04 C35.16 3.7, 36.26 4.46, 37.26 5.31 C38.27 6.15, 39.22 7.1, 40.06 8.1 C40.9 9.11, 41.67 10.2, 42.33 11.34 C42.98 12.48, 43.55 13.69, 44 14.92 C44.45 16.16, 44.79 17.45, 45.02 18.74 C45.25 20.04, 45.31 22.03, 45.37 22.68 C45.42 23.34, 45.42 22.03, 45.37 22.68" stroke="#099268" stroke-width="1" fill="none"></path></g><g stroke-linecap="round"><g transform="translate(386.4708561382072 81.75818594440625) rotate(0 20.31773785166152 10.129753045730808)" fill-rule="evenodd"><path d="M0 0 C0 0, 0 0, 0 0 M0 0 C0 0, 0 0, 0 0 M-12.73 20.74 C1.84 3.98, 16.4 -12.77, 24.67 -22.28 M-12.73 20.74 C-5.11 11.98, 2.51 3.21, 24.67 -22.28 M-18.89 33.93 C-0.79 13.11, 17.31 -7.72, 30.31 -22.68 M-18.89 33.93 C-6.52 19.69, 5.86 5.46, 30.31 -22.68 M-19.15 40.33 C1.05 17.08, 21.25 -6.16, 33.99 -20.81 M-19.15 40.33 C-7.31 26.7, 4.53 13.08, 33.99 -20.81 M-16.14 42.95 C-4.4 29.45, 7.33 15.95, 37.01 -18.18 M-16.14 42.95 C5.1 18.52, 26.34 -5.92, 37.01 -18.18 M-12.46 44.82 C4.28 25.56, 21.02 6.31, 39.37 -14.8 M-12.46 44.82 C7.22 22.18, 26.91 -0.47, 39.37 -14.8 M-8.13 45.93 C10.53 24.47, 29.18 3.01, 41.73 -11.42 M-8.13 45.93 C2.41 33.82, 12.94 21.7, 41.73 -11.42 M-3.8 47.05 C7.16 34.44, 18.12 21.84, 43.44 -7.29 M-3.8 47.05 C6.92 34.71, 17.65 22.38, 43.44 -7.29 M1.19 47.41 C16.34 29.98, 31.49 12.55, 45.8 -3.91 M1.19 47.41 C18.09 27.97, 34.98 8.53, 45.8 -3.91 M6.18 47.77 C16.17 36.28, 26.15 24.79, 47.51 0.22 M6.18 47.77 C17.41 34.84, 28.65 21.92, 47.51 0.22 M11.16 48.13 C26.63 30.34, 42.09 12.55, 49.87 3.6 M11.16 48.13 C22.75 34.8, 34.33 21.47, 49.87 3.6 M16.15 48.49 C27.02 35.98, 37.9 23.47, 51.58 7.73 M16.15 48.49 C25.94 37.23, 35.73 25.97, 51.58 7.73 M21.14 48.85 C31.18 37.3, 41.22 25.74, 53.94 11.11 M21.14 48.85 C33.43 34.71, 45.72 20.57, 53.94 11.11 M26.12 49.21 C35.07 38.92, 44.01 28.63, 55.65 15.25 M26.12 49.21 C36.67 37.08, 47.21 24.95, 55.65 15.25 M31.77 48.81 C41.55 37.56, 51.34 26.3, 57.35 19.38 M31.77 48.81 C39.74 39.65, 47.71 30.48, 57.35 19.38 M36.75 49.17 C43.79 41.08, 50.82 32.99, 58.4 24.27 M36.75 49.17 C42.94 42.06, 49.12 34.95, 58.4 24.27 M42.4 48.78 C46.17 44.44, 49.95 40.09, 59.45 29.16 M42.4 48.78 C46.16 44.45, 49.93 40.11, 59.45 29.16 M49.35 46.88 C53.43 42.18, 57.52 37.49, 59.85 34.8 M49.35 46.88 C53.42 42.2, 57.49 37.51, 59.85 34.8 M-17.24 42.69 C-17.24 42.69, -17.24 42.69, -17.24 42.69 M-17.24 42.69 C-17.24 42.69, -17.24 42.69, -17.24 42.69 M-7.82 45.58 C-11.56 42.32, -15.31 39.07, -19.14 35.74 M-7.82 45.58 C-10.58 43.17, -13.35 40.77, -19.14 35.74 M-0.67 46.5 C-6.07 41.8, -11.47 37.1, -18.03 31.41 M-0.67 46.5 C-4.58 43.09, -8.5 39.69, -18.03 31.41 M6.49 47.41 C-0.69 41.18, -7.86 34.94, -16.91 27.07 M6.49 47.41 C-2.65 39.47, -11.79 31.52, -16.91 27.07 M12.88 47.67 C2.02 38.23, -8.85 28.79, -14.29 24.06 M12.88 47.67 C5.63 41.37, -1.62 35.07, -14.29 24.06 M20.04 48.59 C10.5 40.31, 0.97 32.02, -12.42 20.38 M20.04 48.59 C12.99 42.47, 5.95 36.35, -12.42 20.38 M25.68 48.2 C13.84 37.91, 2.01 27.62, -10.55 16.71 M25.68 48.2 C12.19 36.47, -1.3 24.74, -10.55 16.71 M32.08 48.46 C16.53 34.94, 0.98 21.43, -7.92 13.69 M32.08 48.46 C21.35 39.13, 10.62 29.81, -7.92 13.69 M37.72 48.06 C23 35.27, 8.27 22.47, -6.05 10.01 M37.72 48.06 C21.22 33.72, 4.72 19.38, -6.05 10.01 M43.36 47.67 C28.67 34.9, 13.99 22.13, -4.18 6.34 M43.36 47.67 C27.03 33.47, 10.69 19.27, -4.18 6.34 M48.25 46.62 C31.13 31.73, 14 16.85, -1.56 3.32 M48.25 46.62 C32.33 32.78, 16.41 18.94, -1.56 3.32 M53.14 45.57 C37.71 32.15, 22.28 18.74, 0.31 -0.36 M53.14 45.57 C32.14 27.32, 11.14 9.06, 0.31 -0.36 M56.52 43.21 C43.96 32.29, 31.41 21.38, 2.93 -3.37 M56.52 43.21 C38.05 27.15, 19.58 11.1, 2.93 -3.37 M59.14 40.19 C37.92 21.74, 16.7 3.29, 5.56 -6.39 M59.14 40.19 C46.36 29.07, 33.57 17.96, 5.56 -6.39 M60.26 35.86 C41.6 19.64, 22.95 3.43, 8.94 -8.76 M60.26 35.86 C49.96 26.9, 39.66 17.95, 8.94 -8.76 M59.86 30.21 C40.59 13.46, 21.31 -3.3, 11.56 -11.78 M59.86 30.21 C48.72 20.53, 37.58 10.84, 11.56 -11.78 M57.96 23.26 C46.7 13.47, 35.44 3.68, 14.19 -14.79 M57.96 23.26 C43.03 10.28, 28.1 -2.7, 14.19 -14.79 M56.05 16.3 C44.52 6.27, 32.98 -3.76, 17.56 -17.16 M56.05 16.3 C40.98 3.19, 25.9 -9.91, 17.56 -17.16 M52.64 8.03 C42.76 -0.55, 32.88 -9.14, 20.94 -19.52 M52.64 8.03 C45.54 1.86, 38.44 -4.31, 20.94 -19.52 M47.72 -1.54 C42.64 -5.96, 37.57 -10.37, 24.32 -21.88 M47.72 -1.54 C40.82 -7.54, 33.92 -13.54, 24.32 -21.88 M42.8 -11.12 C38.59 -14.78, 34.38 -18.44, 28.46 -23.59 M42.8 -11.12 C39.76 -13.77, 36.71 -16.41, 28.46 -23.59" stroke="#099268" stroke-width="0.5" fill="none"></path><path d="M0 0 C-2.92 7.07, -27.21 35.38, -17.52 42.45 C-7.82 49.52, 49.75 53.18, 58.15 42.4 C66.55 31.63, 42.57 -15.12, 32.87 -22.19 C23.18 -29.26, 5.48 -3.7, 0 0 M0 0 C-2.92 7.07, -27.21 35.38, -17.52 42.45 C-7.82 49.52, 49.75 53.18, 58.15 42.4 C66.55 31.63, 42.57 -15.12, 32.87 -22.19 C23.18 -29.26, 5.48 -3.7, 0 0" stroke="#099268" stroke-width="1" fill="none"></path></g></g><mask></mask><g transform="translate(35.84626071616378 130.94213643371518) rotate(0 14 18.899999999999977)"><text x="14" y="28.112000000000002" font-family="Nunito, Segoe UI Emoji" font-size="28px" fill="#1971c2" text-anchor="middle" style="white-space: pre;" direction="ltr" dominant-baseline="alphabetic">私</text></g><g transform="translate(378.40473921616376 130.94213593371546) rotate(0 28 18.899999999999977)"><text x="28" y="28.112000000000002" font-family="Nunito, Segoe UI Emoji" font-size="28px" fill="#099268" text-anchor="middle" style="white-space: pre;" direction="ltr" dominant-baseline="alphabetic">太郎</text></g><g stroke-linecap="round"><g transform="translate(100.13428588555199 53.46220669251284) rotate(0 128.0537137849498 0)"><path d="M0 0 C68.62 0, 137.25 0, 256.11 0 M0 0 C72.42 0, 144.83 0, 256.11 0" stroke="#343a40" stroke-width="2" fill="none"></path></g><g transform="translate(100.13428588555199 53.46220669251284) rotate(0 128.0537137849498 0)"><path d="M256.11 0 L242.51 6.34 L242.51 -6.34 L256.11 0" stroke="none" stroke-width="0" fill="#343a40" fill-rule="evenodd"></path><path d="M256.11 0 C252.46 1.7, 248.82 3.4, 242.51 6.34 M256.11 0 C252.26 1.79, 248.42 3.58, 242.51 6.34 M242.51 6.34 C242.51 2.85, 242.51 -0.65, 242.51 -6.34 M242.51 6.34 C242.51 2.9, 242.51 -0.54, 242.51 -6.34 M242.51 -6.34 C247.17 -4.17, 251.83 -2, 256.11 0 M242.51 -6.34 C246.61 -4.43, 250.71 -2.52, 256.11 0 M256.11 0 C256.11 0, 256.11 0, 256.11 0 M256.11 0 C256.11 0, 256.11 0, 256.11 0" stroke="#343a40" stroke-width="2" fill="none"></path></g></g><mask></mask><g stroke-linecap="round"><g transform="translate(100.13428588555199 90.31103304701901) rotate(0 128.0537137849498 0)"><path d="M0 0 C64.2 0, 128.41 0, 256.11 0 M0 0 C95.64 0, 191.27 0, 256.11 0" stroke="#343a40" stroke-width="2" fill="none"></path></g><g transform="translate(100.13428588555199 90.31103304701901) rotate(0 128.0537137849498 0)"><path d="M0 0 L13.59 -6.34 L13.59 6.34 L0 0" stroke="none" stroke-width="0" fill="#343a40" fill-rule="evenodd"></path><path d="M0 0 C3.41 -1.59, 6.82 -3.18, 13.59 -6.34 M0 0 C5.08 -2.37, 10.15 -4.73, 13.59 -6.34 M13.59 -6.34 C13.59 -3.62, 13.59 -0.91, 13.59 6.34 M13.59 -6.34 C13.59 -1.83, 13.59 2.68, 13.59 6.34 M13.59 6.34 C8.75 4.08, 3.91 1.82, 0 0 M13.59 6.34 C9.47 4.41, 5.34 2.49, 0 0 M0 0 C0 0, 0 0, 0 0 M0 0 C0 0, 0 0, 0 0" stroke="#343a40" stroke-width="2" fill="none"></path></g></g><mask></mask><g transform="translate(186.1880001882069 15.731909144463998) rotate(0 42 18.899999999999977)"><text x="42" y="28.112000000000002" font-family="Nunito, Segoe UI Emoji" font-size="28px" fill="#343a40" text-anchor="middle" style="white-space: pre;" direction="ltr" dominant-baseline="alphabetic">あげる</text></g><g transform="translate(186.18799996426634 127.0901568226659) rotate(0 42 18.899999999999977)"><text x="42" y="28.112000000000002" font-family="Nunito, Segoe UI Emoji" font-size="28px" fill="#343a40" text-anchor="middle" style="white-space: pre;" direction="ltr" dominant-baseline="alphabetic">くれる</text></g><g transform="translate(186.18799958011056 90.31103299136726) rotate(0 42 18.899999999999977)"><text x="42" y="28.112000000000002" font-family="Nunito, Segoe UI Emoji" font-size="28px" fill="#343a40" text-anchor="middle" style="white-space: pre;" direction="ltr" dominant-baseline="alphabetic">もらう</text></g><g stroke-linecap="round" transform="translate(750.838936930917 10) rotate(0 22.68293355221249 22.68293355221249)"><path d="M5.07 8.38 C5.07 8.38, 5.07 8.38, 5.07 8.38 M5.07 8.38 C5.07 8.38, 5.07 8.38, 5.07 8.38 M0.87 19.31 C6.36 12.99, 11.85 6.67, 16.61 1.19 M0.87 19.31 C5.88 13.54, 10.9 7.77, 16.61 1.19 M0.61 25.7 C7.12 18.21, 13.64 10.71, 22.91 0.04 M0.61 25.7 C8.52 16.6, 16.43 7.5, 22.91 0.04 M1.66 30.59 C10.69 20.21, 19.71 9.82, 27.9 0.4 M1.66 30.59 C10.85 20.01, 20.05 9.44, 27.9 0.4 M3.36 34.73 C12.05 24.74, 20.73 14.75, 31.58 2.27 M3.36 34.73 C10.33 26.71, 17.3 18.7, 31.58 2.27 M5.73 38.1 C16.61 25.59, 27.49 13.07, 35.25 4.14 M5.73 38.1 C15.31 27.08, 24.89 16.06, 35.25 4.14 M8.75 40.73 C18.41 29.62, 28.07 18.5, 38.27 6.77 M8.75 40.73 C15.16 33.35, 21.58 25.97, 38.27 6.77 M11.76 43.35 C21.66 31.97, 31.55 20.59, 41.29 9.39 M11.76 43.35 C18.56 35.54, 25.35 27.73, 41.29 9.39 M16.1 44.47 C25.13 34.07, 34.17 23.67, 43.65 12.77 M16.1 44.47 C25.81 33.29, 35.53 22.11, 43.65 12.77 M20.43 45.58 C29.19 35.5, 37.95 25.42, 44.7 17.66 M20.43 45.58 C29.57 35.07, 38.71 24.55, 44.7 17.66 M26.07 45.19 C30.84 39.7, 35.61 34.21, 45.75 22.55 M26.07 45.19 C32.17 38.17, 38.28 31.15, 45.75 22.55 M33.03 43.28 C36.02 39.84, 39.01 36.4, 44.18 30.45 M33.03 43.28 C36.3 39.51, 39.58 35.74, 44.18 30.45 M7.8 39.8 C7.8 39.8, 7.8 39.8, 7.8 39.8 M7.8 39.8 C7.8 39.8, 7.8 39.8, 7.8 39.8 M19.48 44.65 C14.34 40.18, 9.19 35.7, 1.37 28.91 M19.48 44.65 C15.28 41, 11.08 37.34, 1.37 28.91 M25.88 44.91 C17.81 37.89, 9.73 30.87, 0.22 22.61 M25.88 44.91 C16.35 36.63, 6.83 28.35, 0.22 22.61 M30.77 43.86 C20.51 34.94, 10.24 26.02, 0.58 17.62 M30.77 43.86 C22.87 37, 14.97 30.13, 0.58 17.62 M34.15 41.5 C27.47 35.69, 20.79 29.89, 2.45 13.95 M34.15 41.5 C23.34 32.1, 12.53 22.71, 2.45 13.95 M37.53 39.14 C25.18 28.41, 12.83 17.67, 4.32 10.27 M37.53 39.14 C25.13 28.36, 12.73 17.59, 4.32 10.27 M40.91 36.78 C30.62 27.83, 20.32 18.88, 6.19 6.6 M40.91 36.78 C31.72 28.79, 22.54 20.81, 6.19 6.6 M42.78 33.1 C35.45 26.73, 28.12 20.36, 9.57 4.23 M42.78 33.1 C30.22 22.19, 17.67 11.27, 9.57 4.23 M44.65 29.43 C32.68 19.02, 20.71 8.62, 12.95 1.87 M44.65 29.43 C33.53 19.77, 22.42 10.11, 12.95 1.87 M45.76 25.09 C36.49 17.03, 27.22 8.97, 17.84 0.82 M45.76 25.09 C39.97 20.06, 34.18 15.03, 17.84 0.82 M45.37 19.45 C40.51 15.23, 35.65 11, 22.73 -0.23 M45.37 19.45 C36.8 12.01, 28.24 4.56, 22.73 -0.23 M43.46 12.5 C40.17 9.64, 36.89 6.78, 30.63 1.34 M43.46 12.5 C40.73 10.12, 38 7.75, 30.63 1.34" stroke="#c2255c" stroke-width="0.5" fill="none"></path><path d="M45.37 22.68 C45.37 24, 45.25 25.33, 45.02 26.62 C44.79 27.91, 44.45 29.21, 44 30.44 C43.55 31.67, 42.98 32.89, 42.33 34.02 C41.67 35.16, 40.9 36.26, 40.06 37.26 C39.22 38.27, 38.27 39.22, 37.26 40.06 C36.26 40.9, 35.16 41.67, 34.02 42.33 C32.89 42.98, 31.67 43.55, 30.44 44 C29.21 44.45, 27.91 44.79, 26.62 45.02 C25.33 45.25, 24 45.37, 22.68 45.37 C21.37 45.37, 20.04 45.25, 18.74 45.02 C17.45 44.79, 16.16 44.45, 14.92 44 C13.69 43.55, 12.48 42.98, 11.34 42.33 C10.2 41.67, 9.11 40.9, 8.1 40.06 C7.1 39.22, 6.15 38.27, 5.31 37.26 C4.46 36.26, 3.7 35.16, 3.04 34.02 C2.38 32.89, 1.82 31.67, 1.37 30.44 C0.92 29.21, 0.57 27.91, 0.34 26.62 C0.12 25.33, 0 24, 0 22.68 C0 21.37, 0.12 20.04, 0.34 18.74 C0.57 17.45, 0.92 16.16, 1.37 14.92 C1.82 13.69, 2.38 12.48, 3.04 11.34 C3.7 10.2, 4.46 9.11, 5.31 8.1 C6.15 7.1, 7.1 6.15, 8.1 5.31 C9.11 4.46, 10.2 3.7, 11.34 3.04 C12.48 2.38, 13.69 1.82, 14.92 1.37 C16.16 0.92, 17.45 0.57, 18.74 0.34 C20.04 0.12, 21.37 0, 22.68 0 C24 0, 25.33 0.12, 26.62 0.34 C27.91 0.57, 29.21 0.92, 30.44 1.37 C31.67 1.82, 32.89 2.38, 34.02 3.04 C35.16 3.7, 36.26 4.46, 37.26 5.31 C38.27 6.15, 39.22 7.1, 40.06 8.1 C40.9 9.11, 41.67 10.2, 42.33 11.34 C42.98 12.48, 43.55 13.69, 44 14.92 C44.45 16.16, 44.79 17.45, 45.02 18.74 C45.25 20.04, 45.31 22.03, 45.37 22.68 C45.42 23.34, 45.42 22.03, 45.37 22.68" stroke="#c2255c" stroke-width="1" fill="none"></path></g><g stroke-linecap="round"><g transform="translate(743.1543352615995 78.92708270680123) rotate(0 20.317737851661548 10.129753045730808)" fill-rule="evenodd"><path d="M0 0 C0 0, 0 0, 0 0 M0 0 C0 0, 0 0, 0 0 M-12.73 20.74 C-1.13 7.4, 10.46 -5.94, 24.67 -22.28 M-12.73 20.74 C0.81 5.17, 14.34 -10.4, 24.67 -22.28 M-18.89 33.93 C-6.23 19.36, 6.44 4.79, 30.31 -22.68 M-18.89 33.93 C-6.87 20.1, 5.15 6.27, 30.31 -22.68 M-19.15 40.33 C-3.24 22.02, 12.67 3.72, 33.99 -20.81 M-19.15 40.33 C-3.08 21.83, 12.99 3.34, 33.99 -20.81 M-16.14 42.95 C-1.75 26.4, 12.64 9.85, 37.01 -18.18 M-16.14 42.95 C5.11 18.51, 26.36 -5.93, 37.01 -18.18 M-12.46 44.82 C-0.48 31.04, 11.49 17.26, 39.37 -14.8 M-12.46 44.82 C7.99 21.29, 28.44 -2.23, 39.37 -14.8 M-8.13 45.93 C6.83 28.72, 21.79 11.51, 41.73 -11.42 M-8.13 45.93 C9.62 25.52, 27.36 5.11, 41.73 -11.42 M-3.8 47.05 C14.68 25.79, 33.16 4.54, 43.44 -7.29 M-3.8 47.05 C9.38 31.89, 22.55 16.73, 43.44 -7.29 M1.19 47.41 C12.18 34.76, 23.18 22.11, 45.8 -3.91 M1.19 47.41 C14.61 31.96, 28.04 16.52, 45.8 -3.91 M6.18 47.77 C21.49 30.15, 36.81 12.53, 47.51 0.22 M6.18 47.77 C15.13 37.47, 24.08 27.17, 47.51 0.22 M11.16 48.13 C21.44 36.3, 31.73 24.47, 49.87 3.6 M11.16 48.13 C22.53 35.05, 33.9 21.97, 49.87 3.6 M16.15 48.49 C29.08 33.61, 42.01 18.74, 51.58 7.73 M16.15 48.49 C29.93 32.64, 43.7 16.79, 51.58 7.73 M21.14 48.85 C29.93 38.73, 38.72 28.62, 53.94 11.11 M21.14 48.85 C33.05 35.14, 44.96 21.44, 53.94 11.11 M26.12 49.21 C34.23 39.89, 42.33 30.56, 55.65 15.25 M26.12 49.21 C37.86 35.71, 49.6 22.21, 55.65 15.25 M31.77 48.81 C37.37 42.37, 42.96 35.93, 57.35 19.38 M31.77 48.81 C37.11 42.67, 42.45 36.53, 57.35 19.38 M36.75 49.17 C41.18 44.09, 45.6 39, 58.4 24.27 M36.75 49.17 C44.65 40.1, 52.54 31.02, 58.4 24.27 M42.4 48.78 C46.45 44.12, 50.51 39.45, 59.45 29.16 M42.4 48.78 C47.51 42.89, 52.63 37.01, 59.45 29.16 M49.35 46.88 C53.17 42.48, 56.99 38.09, 59.85 34.8 M49.35 46.88 C51.79 44.07, 54.23 41.27, 59.85 34.8 M-17.24 42.69 C-17.24 42.69, -17.24 42.69, -17.24 42.69 M-17.24 42.69 C-17.24 42.69, -17.24 42.69, -17.24 42.69 M-7.82 45.58 C-11.98 41.96, -16.14 38.35, -19.14 35.74 M-7.82 45.58 C-10.8 42.99, -13.78 40.4, -19.14 35.74 M-0.67 46.5 C-6.44 41.48, -12.21 36.46, -18.03 31.41 M-0.67 46.5 C-6.74 41.22, -12.81 35.94, -18.03 31.41 M6.49 47.41 C-1.33 40.62, -9.15 33.82, -16.91 27.07 M6.49 47.41 C-1.48 40.49, -9.44 33.57, -16.91 27.07 M12.88 47.67 C4.15 40.08, -4.59 32.49, -14.29 24.06 M12.88 47.67 C2.04 38.25, -8.81 28.82, -14.29 24.06 M20.04 48.59 C7.45 37.65, -5.13 26.71, -12.42 20.38 M20.04 48.59 C11.37 41.06, 2.71 33.53, -12.42 20.38 M25.68 48.2 C18.27 41.75, 10.85 35.31, -10.55 16.71 M25.68 48.2 C15.68 39.5, 5.68 30.81, -10.55 16.71 M32.08 48.46 C17.81 36.06, 3.55 23.66, -7.92 13.69 M32.08 48.46 C21.41 39.19, 10.75 29.92, -7.92 13.69 M37.72 48.06 C21.29 33.78, 4.87 19.51, -6.05 10.01 M37.72 48.06 C28.89 40.39, 20.07 32.72, -6.05 10.01 M43.36 47.67 C30.35 36.35, 17.33 25.04, -4.18 6.34 M43.36 47.67 C29.9 35.97, 16.44 24.26, -4.18 6.34 M48.25 46.62 C29.26 30.11, 10.27 13.6, -1.56 3.32 M48.25 46.62 C29.95 30.71, 11.65 14.8, -1.56 3.32 M53.14 45.57 C38.5 32.85, 23.87 20.12, 0.31 -0.36 M53.14 45.57 C38.31 32.67, 23.47 19.78, 0.31 -0.36 M56.52 43.21 C44.45 32.71, 32.38 22.22, 2.93 -3.37 M56.52 43.21 C43.92 32.25, 31.31 21.29, 2.93 -3.37 M59.14 40.19 C42.59 25.8, 26.04 11.41, 5.56 -6.39 M59.14 40.19 C40.71 24.17, 22.28 8.14, 5.56 -6.39 M60.26 35.86 C46.68 24.06, 33.11 12.26, 8.94 -8.76 M60.26 35.86 C48.09 25.27, 35.91 14.69, 8.94 -8.76 M59.86 30.21 C49.41 21.13, 38.96 12.04, 11.56 -11.78 M59.86 30.21 C41.63 14.36, 23.39 -1.49, 11.56 -11.78 M57.96 23.26 C44.35 11.42, 30.73 -0.41, 14.19 -14.79 M57.96 23.26 C45.89 12.76, 33.81 2.27, 14.19 -14.79 M56.05 16.3 C46.38 7.89, 36.7 -0.52, 17.56 -17.16 M56.05 16.3 C48.1 9.39, 40.15 2.48, 17.56 -17.16 M52.64 8.03 C42.13 -1.1, 31.63 -10.23, 20.94 -19.52 M52.64 8.03 C45.54 1.87, 38.45 -4.3, 20.94 -19.52 M47.72 -1.54 C39.05 -9.08, 30.38 -16.61, 24.32 -21.88 M47.72 -1.54 C41.25 -7.17, 34.77 -12.8, 24.32 -21.88 M42.8 -11.12 C37.82 -15.45, 32.84 -19.78, 28.46 -23.59 M42.8 -11.12 C39.58 -13.92, 36.36 -16.72, 28.46 -23.59" stroke="#c2255c" stroke-width="0.5" fill="none"></path><path d="M0 0 C-2.92 7.07, -27.21 35.38, -17.52 42.45 C-7.82 49.52, 49.75 53.18, 58.15 42.4 C66.55 31.63, 42.57 -15.12, 32.87 -22.19 C23.18 -29.26, 5.48 -3.7, 0 0 M0 0 C-2.92 7.07, -27.21 35.38, -17.52 42.45 C-7.82 49.52, 49.75 53.18, 58.15 42.4 C66.55 31.63, 42.57 -15.12, 32.87 -22.19 C23.18 -29.26, 5.48 -3.7, 0 0" stroke="#c2255c" stroke-width="1" fill="none"></path></g></g><mask></mask><g transform="translate(749.2132190895561 130.9421357705803) rotate(0 14 18.899999999999977)"><text x="14" y="28.112000000000002" font-family="Nunito, Segoe UI Emoji" font-size="28px" fill="#c2255c" text-anchor="middle" style="white-space: pre;" direction="ltr" dominant-baseline="alphabetic">桜</text></g><g stroke-linecap="round"><g transform="translate(456.81776505460624 53.53190934332679) rotate(0 128.05371378494976 0)"><path d="M0 0 C64.39 0, 128.79 0, 256.11 0 M0 0 C71.2 0, 142.39 0, 256.11 0" stroke="#343a40" stroke-width="2" fill="none"></path></g><g transform="translate(456.81776505460624 53.53190934332679) rotate(0 128.05371378494976 0)"><path d="M256.11 0 L242.51 6.34 L242.51 -6.34 L256.11 0" stroke="none" stroke-width="0" fill="#343a40" fill-rule="evenodd"></path><path d="M256.11 0 C252.69 1.59, 249.27 3.19, 242.51 6.34 M256.11 0 C252.33 1.76, 248.55 3.52, 242.51 6.34 M242.51 6.34 C242.51 2.09, 242.51 -2.16, 242.51 -6.34 M242.51 6.34 C242.51 2.47, 242.51 -1.41, 242.51 -6.34 M242.51 -6.34 C247.72 -3.91, 252.92 -1.49, 256.11 0 M242.51 -6.34 C247.19 -4.16, 251.86 -1.98, 256.11 0 M256.11 0 C256.11 0, 256.11 0, 256.11 0 M256.11 0 C256.11 0, 256.11 0, 256.11 0" stroke="#343a40" stroke-width="2" fill="none"></path></g></g><mask></mask><g stroke-linecap="round"><g transform="translate(456.81776505460624 90.38073569783319) rotate(0 128.05371378494976 0)"><path d="M0 0 C86.75 0, 173.5 0, 256.11 0 M0 0 C64.24 0, 128.49 0, 256.11 0" stroke="#343a40" stroke-width="2" fill="none"></path></g><g transform="translate(456.81776505460624 90.38073569783319) rotate(0 128.05371378494976 0)"><path d="M0 0 L13.59 -6.34 L13.59 6.34 L0 0" stroke="none" stroke-width="0" fill="#343a40" fill-rule="evenodd"></path><path d="M0 0 C4.6 -2.15, 9.21 -4.29, 13.59 -6.34 M0 0 C3.41 -1.59, 6.82 -3.18, 13.59 -6.34 M13.59 -6.34 C13.59 -2.94, 13.59 0.47, 13.59 6.34 M13.59 -6.34 C13.59 -1.27, 13.59 3.8, 13.59 6.34 M13.59 6.34 C10.1 4.71, 6.61 3.08, 0 0 M13.59 6.34 C8.99 4.19, 4.39 2.05, 0 0 M0 0 C0 0, 0 0, 0 0 M0 0 C0 0, 0 0, 0 0" stroke="#343a40" stroke-width="2" fill="none"></path></g></g><mask></mask><g transform="translate(542.871479339556 15.731908770580276) rotate(0 42 18.899999999999977)"><text x="42" y="28.112000000000002" font-family="Nunito, Segoe UI Emoji" font-size="28px" fill="#343a40" text-anchor="middle" style="white-space: pre;" direction="ltr" dominant-baseline="alphabetic">あげる</text></g><g transform="translate(542.871479089556 90.31103302058045) rotate(0 42 18.899999999999977)"><text x="42" y="28.112000000000002" font-family="Nunito, Segoe UI Emoji" font-size="28px" fill="#343a40" text-anchor="middle" style="white-space: pre;" direction="ltr" dominant-baseline="alphabetic">もらう</text></g></svg>