<svg aria-hidden="false" aria-label="Interactive chart" viewBox="0 0 600 300" height="300" width="600" xmlns="http://www.w3.org/2000/svg" style="font-family: Roboto; font-size: 12px;" class="highcharts-root" version="1.1" xmlns:xlink="http://www.w3.org/1999/xlink"><desc aria-hidden="true">Created with Highcharts 10.3.1</desc><defs aria-hidden="true"><clipPath id="highcharts-dggaffg-947-"><rect fill="none" height="255" width="553" y="0" x="0"></rect></clipPath><clipPath id="highcharts-dggaffg-964-"><rect fill="none" height="255" width="553" y="0" x="0"></rect></clipPath></defs><rect aria-hidden="true" ry="0" rx="0" height="300" width="600" y="0" x="0" class="highcharts-background" fill="none"></rect><rect aria-hidden="true" height="255" width="553" y="10" x="37" class="highcharts-plot-background" fill="none"></rect><g aria-hidden="true" data-z-index="0" class="highcharts-pane-group"></g><g aria-hidden="true" data-z-index="1" class="highcharts-grid highcharts-xaxis-grid"><path opacity="1" d="M 71.5 10 L 71.5 265" class="highcharts-grid-line" data-z-index="1" stroke-dasharray="none" fill="none"></path><path opacity="1" d="M 105.5 10 L 105.5 265" class="highcharts-grid-line" data-z-index="1" stroke-dasharray="none" fill="none"></path><path opacity="1" d="M 140.5 10 L 140.5 265" class="highcharts-grid-line" data-z-index="1" stroke-dasharray="none" fill="none"></path><path opacity="1" d="M 174.5 10 L 174.5 265" class="highcharts-grid-line" data-z-index="1" stroke-dasharray="none" fill="none"></path><path opacity="1" d="M 209.5 10 L 209.5 265" class="highcharts-grid-line" data-z-index="1" stroke-dasharray="none" fill="none"></path><path opacity="1" d="M 243.5 10 L 243.5 265" class="highcharts-grid-line" data-z-index="1" stroke-dasharray="none" fill="none"></path><path opacity="1" d="M 278.5 10 L 278.5 265" class="highcharts-grid-line" data-z-index="1" stroke-dasharray="none" fill="none"></path><path opacity="1" d="M 313.5 10 L 313.5 265" class="highcharts-grid-line" data-z-index="1" stroke-dasharray="none" fill="none"></path><path opacity="1" d="M 347.5 10 L 347.5 265" class="highcharts-grid-line" data-z-index="1" stroke-dasharray="none" fill="none"></path><path opacity="1" d="M 382.5 10 L 382.5 265" class="highcharts-grid-line" data-z-index="1" stroke-dasharray="none" fill="none"></path><path opacity="1" d="M 416.5 10 L 416.5 265" class="highcharts-grid-line" data-z-index="1" stroke-dasharray="none" fill="none"></path><path opacity="1" d="M 451.5 10 L 451.5 265" class="highcharts-grid-line" data-z-index="1" stroke-dasharray="none" fill="none"></path><path opacity="1" d="M 485.5 10 L 485.5 265" class="highcharts-grid-line" data-z-index="1" stroke-dasharray="none" fill="none"></path><path opacity="1" d="M 520.5 10 L 520.5 265" class="highcharts-grid-line" data-z-index="1" stroke-dasharray="none" fill="none"></path><path opacity="1" d="M 554.5 10 L 554.5 265" class="highcharts-grid-line" data-z-index="1" stroke-dasharray="none" fill="none"></path><path opacity="1" d="M 589.5 10 L 589.5 265" class="highcharts-grid-line" data-z-index="1" stroke-dasharray="none" fill="none"></path><path opacity="1" d="M 36.5 10 L 36.5 265" class="highcharts-grid-line" data-z-index="1" stroke-dasharray="none" fill="none"></path></g><g aria-hidden="true" data-z-index="1" class="highcharts-grid highcharts-yaxis-grid"><path opacity="1" d="M 37 265.5 L 590 265.5" class="highcharts-grid-line" data-z-index="1" stroke-dasharray="none" stroke-width="1" stroke="#e6e6e6" fill="none"></path><path opacity="1" d="M 37 229.5 L 590 229.5" class="highcharts-grid-line" data-z-index="1" stroke-dasharray="none" stroke-width="1" stroke="#e6e6e6" fill="none"></path><path opacity="1" d="M 37 192.5 L 590 192.5" class="highcharts-grid-line" data-z-index="1" stroke-dasharray="none" stroke-width="1" stroke="#e6e6e6" fill="none"></path><path opacity="1" d="M 37 156.5 L 590 156.5" class="highcharts-grid-line" data-z-index="1" stroke-dasharray="none" stroke-width="1" stroke="#e6e6e6" fill="none"></path><path opacity="1" d="M 37 119.5 L 590 119.5" class="highcharts-grid-line" data-z-index="1" stroke-dasharray="none" stroke-width="1" stroke="#e6e6e6" fill="none"></path><path opacity="1" d="M 37 83.5 L 590 83.5" class="highcharts-grid-line" data-z-index="1" stroke-dasharray="none" stroke-width="1" stroke="#e6e6e6" fill="none"></path><path opacity="1" d="M 37 46.5 L 590 46.5" class="highcharts-grid-line" data-z-index="1" stroke-dasharray="none" stroke-width="1" stroke="#e6e6e6" fill="none"></path><path opacity="1" d="M 37 9.5 L 590 9.5" class="highcharts-grid-line" data-z-index="1" stroke-dasharray="none" stroke-width="1" stroke="#e6e6e6" fill="none"></path></g><rect aria-hidden="true" height="255" width="553" y="10" x="37" data-z-index="1" class="highcharts-plot-border" fill="none"></rect><g aria-hidden="true" data-z-index="2" class="highcharts-axis highcharts-xaxis"><path d="M 37 265.5 L 590 265.5" data-z-index="7" stroke-width="1" stroke="#ccd6eb" class="highcharts-axis-line" fill="none"></path></g><g aria-hidden="true" data-z-index="2" class="highcharts-axis highcharts-yaxis"><path d="M 37 10 L 37 265" data-z-index="7" class="highcharts-axis-line" fill="none"></path></g><g aria-hidden="false" data-z-index="3" class="highcharts-series-group"><g aria-hidden="true" clip-path="url(#highcharts-dggaffg-964-)" transform="translate(37,10) scale(1 1)" opacity="1" data-z-index="0.1" class="highcharts-series highcharts-series-0 highcharts-line-series"><path stroke-linecap="round" stroke-linejoin="round" stroke-width="2" stroke="#d7d7d7" data-z-index="1" class="highcharts-graph" d="M 17.28125 236.785714285714 L 51.84375 218.571428571429 L 86.40625 182.142857142857 L 120.96875 109.28571428570999 L 155.53125 91.07142857143 L 190.09375 72.85714285713999 L 224.65625 54.64285714286001 L 259.21875 36.428571428569995 L 293.78125 236.785714285714 L 328.34375 218.571428571429 L 362.90625 182.142857142857 L 397.46875 145.71428571428999 L 432.03125 127.5 L 466.59375 109.28571428570999 L 501.15625 91.07142857143 L 535.71875 72.85714285713999" fill="none"></path></g><g aria-hidden="false" clip-path="none" transform="translate(37,10) scale(1 1)" opacity="1" data-z-index="0.1" class="highcharts-markers highcharts-series-0 highcharts-line-series"><path style="outline: none;" aria-label="1, 1. Item 1." role="img" tabindex="-1" class="highcharts-point" opacity="1" d="M 17 241 A 4 4 0 1 1 17.003999999333335 240.99999800000018 Z" fill="#d64d4d"></path><path style="outline: none;" aria-label="2, 2. Item 1." role="img" tabindex="-1" class="highcharts-point" opacity="1" d="M 51 223 A 4 4 0 1 1 51.00399999933334 222.99999800000018 Z" fill="#d64d4d"></path><path style="outline: none;" aria-label="3, 4. Item 1." role="img" tabindex="-1" class="highcharts-point" opacity="1" d="M 86 186 A 4 4 0 1 1 86.00399999933333 185.99999800000018 Z" fill="#d64d4d"></path><path style="outline: none;" aria-label="4, 8. Item 1." role="img" tabindex="-1" class="highcharts-point" opacity="1" d="M 120 113 A 4 4 0 1 1 120.00399999933333 112.99999800000016 Z" fill="#d64d4d"></path><path style="outline: none;" aria-label="5, 9. Item 1." role="img" tabindex="-1" class="highcharts-point" opacity="1" d="M 155 95 A 4 4 0 1 1 155.00399999933333 94.99999800000016 Z" fill="#005cc7"></path><path style="outline: none;" aria-label="6, 10. Item 1." role="img" tabindex="-1" class="highcharts-point" opacity="1" d="M 190 77 A 4 4 0 1 1 190.00399999933333 76.99999800000016 Z" fill="#005cc7"></path><path style="outline: none;" aria-label="7, 11. Item 1." role="img" tabindex="-1" class="highcharts-point" opacity="1" d="M 224 59 A 4 4 0 1 1 224.00399999933333 58.99999800000017 Z" fill="#005cc7"></path><path style="outline: none;" aria-label="8, 12. Item 1." role="img" tabindex="-1" class="highcharts-point" opacity="1" d="M 259 40 A 4 4 0 1 1 259.00399999933336 39.99999800000017 Z" fill="#005cc7"></path><path style="outline: none;" aria-label="9, 1. Item 1." role="img" tabindex="-1" class="highcharts-point" opacity="1" d="M 293 241 A 4 4 0 1 1 293.00399999933336 240.99999800000018 Z" fill="#d64d4d"></path><path style="outline: none;" aria-label="10, 2. Item 1." role="img" tabindex="-1" class="highcharts-point" opacity="1" d="M 328 223 A 4 4 0 1 1 328.00399999933336 222.99999800000018 Z" fill="#d64d4d"></path><path style="outline: none;" aria-label="11, 4. Item 1." role="img" tabindex="-1" class="highcharts-point" opacity="1" d="M 362 186 A 4 4 0 1 1 362.00399999933336 185.99999800000018 Z" fill="#d64d4d"></path><path style="outline: none;" aria-label="12, 6. Item 1." role="img" tabindex="-1" class="highcharts-point" opacity="1" d="M 397 150 A 4 4 0 1 1 397.00399999933336 149.99999800000018 Z" fill="#d64d4d"></path><path style="outline: none;" aria-label="13, 7. Item 1." role="img" tabindex="-1" class="highcharts-point" opacity="1" d="M 432 132 A 4 4 0 1 1 432.00399999933336 131.99999800000018 Z" fill="#005cc7"></path><path style="outline: none;" aria-label="14, 8. Item 1." role="img" tabindex="-1" class="highcharts-point" opacity="1" d="M 466 113 A 4 4 0 1 1 466.00399999933336 112.99999800000016 Z" fill="#005cc7"></path><path style="outline: none;" aria-label="15, 9. Item 1." role="img" tabindex="-1" class="highcharts-point" opacity="1" d="M 501 95 A 4 4 0 1 1 501.00399999933336 94.99999800000016 Z" fill="#005cc7"></path><path style="outline: none;" aria-label="16, 10. Item 1." role="img" tabindex="-1" class="highcharts-point" opacity="1" d="M 535 77 A 4 4 0 1 1 535.0039999993334 76.99999800000016 Z" fill="#005cc7"></path></g></g><text aria-hidden="true" y="24" style="color: rgb(51, 51, 51); font-size: 18px; fill: rgb(51, 51, 51);" data-z-index="4" class="highcharts-title" text-anchor="middle" x="300"></text><text aria-hidden="true" y="24" style="color: rgb(102, 102, 102); fill: rgb(102, 102, 102);" data-z-index="4" class="highcharts-subtitle" text-anchor="middle" x="300"></text><text aria-hidden="true" y="297" style="color: rgb(102, 102, 102); fill: rgb(102, 102, 102);" data-z-index="4" class="highcharts-caption" text-anchor="start" x="10"></text><g aria-hidden="true" visibility="hidden" data-z-index="7" class="highcharts-legend highcharts-no-tooltip"><rect height="8" width="8" y="0" x="0" ry="0" rx="0" class="highcharts-legend-box" fill="none"></rect><g data-z-index="1"><g></g></g></g><g aria-hidden="true" data-z-index="7" class="highcharts-axis-labels highcharts-xaxis-labels"><text opacity="1" y="284" style="color: rgb(102, 102, 102); cursor: default; font-size: 11px; fill: rgb(102, 102, 102);" transform="translate(0,0)" text-anchor="middle" x="54.28125">1</text><text opacity="1" y="284" style="color: rgb(102, 102, 102); cursor: default; font-size: 11px; fill: rgb(102, 102, 102);" transform="translate(0,0)" text-anchor="middle" x="88.84375">2</text><text opacity="1" y="284" style="color: rgb(102, 102, 102); cursor: default; font-size: 11px; fill: rgb(102, 102, 102);" transform="translate(0,0)" text-anchor="middle" x="123.40625">3</text><text opacity="1" y="284" style="color: rgb(102, 102, 102); cursor: default; font-size: 11px; fill: rgb(102, 102, 102);" transform="translate(0,0)" text-anchor="middle" x="157.96875">4</text><text opacity="1" y="284" style="color: rgb(102, 102, 102); cursor: default; font-size: 11px; fill: rgb(102, 102, 102);" transform="translate(0,0)" text-anchor="middle" x="192.53125">5</text><text opacity="1" y="284" style="color: rgb(102, 102, 102); cursor: default; font-size: 11px; fill: rgb(102, 102, 102);" transform="translate(0,0)" text-anchor="middle" x="227.09375">6</text><text opacity="1" y="284" style="color: rgb(102, 102, 102); cursor: default; font-size: 11px; fill: rgb(102, 102, 102);" transform="translate(0,0)" text-anchor="middle" x="261.65625">7</text><text opacity="1" y="284" style="color: rgb(102, 102, 102); cursor: default; font-size: 11px; fill: rgb(102, 102, 102);" transform="translate(0,0)" text-anchor="middle" x="296.21875">8</text><text opacity="1" y="284" style="color: rgb(102, 102, 102); cursor: default; font-size: 11px; fill: rgb(102, 102, 102);" transform="translate(0,0)" text-anchor="middle" x="330.78125">9</text><text opacity="1" y="284" style="color: rgb(102, 102, 102); cursor: default; font-size: 11px; fill: rgb(102, 102, 102);" transform="translate(0,0)" text-anchor="middle" x="365.34375">10</text><text opacity="1" y="284" style="color: rgb(102, 102, 102); cursor: default; font-size: 11px; fill: rgb(102, 102, 102);" transform="translate(0,0)" text-anchor="middle" x="399.90625">11</text><text opacity="1" y="284" style="color: rgb(102, 102, 102); cursor: default; font-size: 11px; fill: rgb(102, 102, 102);" transform="translate(0,0)" text-anchor="middle" x="434.46875">12</text><text opacity="1" y="284" style="color: rgb(102, 102, 102); cursor: default; font-size: 11px; fill: rgb(102, 102, 102);" transform="translate(0,0)" text-anchor="middle" x="469.03125">13</text><text opacity="1" y="284" style="color: rgb(102, 102, 102); cursor: default; font-size: 11px; fill: rgb(102, 102, 102);" transform="translate(0,0)" text-anchor="middle" x="503.59375">14</text><text opacity="1" y="284" style="color: rgb(102, 102, 102); cursor: default; font-size: 11px; fill: rgb(102, 102, 102);" transform="translate(0,0)" text-anchor="middle" x="538.15625">15</text><text opacity="1" y="284" style="color: rgb(102, 102, 102); cursor: default; font-size: 11px; fill: rgb(102, 102, 102);" transform="translate(0,0)" text-anchor="middle" x="572.71875">16</text></g><g aria-hidden="true" data-z-index="7" class="highcharts-axis-labels highcharts-yaxis-labels"><text opacity="1" y="270" style="color: rgb(102, 102, 102); cursor: default; font-size: 11px; fill: rgb(102, 102, 102);" transform="translate(0,0)" text-anchor="end" x="22">0</text><text opacity="1" y="233" style="color: rgb(102, 102, 102); cursor: default; font-size: 11px; fill: rgb(102, 102, 102);" transform="translate(0,0)" text-anchor="end" x="22">2</text><text opacity="1" y="197" style="color: rgb(102, 102, 102); cursor: default; font-size: 11px; fill: rgb(102, 102, 102);" transform="translate(0,0)" text-anchor="end" x="22">4</text><text opacity="1" y="160" style="color: rgb(102, 102, 102); cursor: default; font-size: 11px; fill: rgb(102, 102, 102);" transform="translate(0,0)" text-anchor="end" x="22">6</text><text opacity="1" y="124" style="color: rgb(102, 102, 102); cursor: default; font-size: 11px; fill: rgb(102, 102, 102);" transform="translate(0,0)" text-anchor="end" x="22">8</text><text opacity="1" y="88" style="color: rgb(102, 102, 102); cursor: default; font-size: 11px; fill: rgb(102, 102, 102);" transform="translate(0,0)" text-anchor="end" x="22">10</text><text opacity="1" y="51" style="color: rgb(102, 102, 102); cursor: default; font-size: 11px; fill: rgb(102, 102, 102);" transform="translate(0,0)" text-anchor="end" x="22">12</text><text opacity="1" y="15" style="color: rgb(102, 102, 102); cursor: default; font-size: 11px; fill: rgb(102, 102, 102);" transform="translate(0,0)" text-anchor="end" x="22">14</text></g><text x="110" y="220" fill="#d64d4d" font-family="monospace">Slow Start</text><text x="100" y="70" fill="#005cc7" font-family="monospace">Congestion Avoidance</text><text x="390" y="220" fill="#d64d4d" font-family="monospace">Slow Start</text><text x="430" y="70" fill="#005cc7" font-family="monospace">Congestion Avoidance</text></svg>
